<?xml version="1.0" encoding="UTF-8" standalone="no"?>
<!-- Created with Inkscape (http://www.inkscape.org/) -->

<svg
   xmlns:dc="http://purl.org/dc/elements/1.1/"
   xmlns:cc="http://creativecommons.org/ns#"
   xmlns:rdf="http://www.w3.org/1999/02/22-rdf-syntax-ns#"
   xmlns:svg="http://www.w3.org/2000/svg"
   xmlns="http://www.w3.org/2000/svg"
   xmlns:sodipodi="http://sodipodi.sourceforge.net/DTD/sodipodi-0.dtd"
   xmlns:inkscape="http://www.inkscape.org/namespaces/inkscape"
   width="1600"
   height="1200"
   viewBox="0 0 1600 1200"
   id="svg2"
   version="1.1"
   inkscape:version="0.91 r13725"
   sodipodi:docname="bgbubble.svg">
  <defs
     id="defs4" />
  <sodipodi:namedview
     id="base"
     pagecolor="#ffffff"
     bordercolor="#666666"
     borderopacity="1.0"
     inkscape:pageopacity="0.0"
     inkscape:pageshadow="2"
     inkscape:zoom="0.98994949"
     inkscape:cx="649.03216"
     inkscape:cy="520"
     inkscape:document-units="px"
     inkscape:current-layer="layer1"
     showgrid="false"
     units="px"
     inkscape:window-width="3090"
     inkscape:window-height="1752"
     inkscape:window-x="110"
     inkscape:window-y="48"
     inkscape:window-maximized="1" />
  <metadata
     id="metadata7">
    <rdf:RDF>
      <cc:Work
         rdf:about="">
        <dc:format>image/svg+xml</dc:format>
        <dc:type
           rdf:resource="http://purl.org/dc/dcmitype/StillImage" />
        <dc:title></dc:title>
      </cc:Work>
    </rdf:RDF>
  </metadata>
  <g
     inkscape:label="Layer 1"
     inkscape:groupmode="layer"
     id="layer1"
     transform="translate(0,147.63784)">
    <path
       style="fill:#ff5555;fill-opacity:1"
       id="path3340"
       d="m 704.79278,18.68409 c -26.38935,2.10836 -51.71981,10.7682 -76.74833,18.8498 -38.37756,12.37581 -75.71575,27.79392 -112.38562,44.51785 -7.98202,3.64034 -15.88498,7.45161 -23.82747,11.17741 -17.29753,8.58043 -30.87896,15.1363 -47.87779,24.29075 -7.95961,4.28652 -15.66669,9.03685 -23.68028,13.22159 -7.25481,3.78852 26.12006,-18.72077 21.403,-12.03238 -5.23632,7.42467 -15.48938,9.50421 -23.10941,14.45193 -7.61455,4.94417 -15.05846,10.1463 -22.58769,15.21945 -28.42832,19.94987 -55.48099,41.96654 -79.8402,66.76494 -15.85583,16.14172 -18.86878,20.47286 -33.25981,37.75237 -25.42747,32.71273 -44.03125,69.93553 -58.7216,108.53293 -3.1763,8.34541 -6.00074,16.82052 -9.00111,25.23078 -10.79366,32.92221 -19.63953,66.55015 -24.36902,100.91689 -2.86068,20.7871 -2.61604,25.32866 -3.57894,45.99945 -0.25891,34.63696 5.64091,69.1313 18.29524,101.43047 2.53415,6.46819 5.59907,12.71567 8.39861,19.07351 3.39553,6.34888 6.58194,12.81412 10.18659,19.04665 8.21932,14.21145 15.61828,25.0867 25.53421,38.19134 9.73313,12.86305 20.79537,26.21509 31.97811,37.83369 5.97509,6.20797 12.38224,11.98509 18.57336,17.97764 26.77037,24.33483 56.60131,44.86895 88.41894,62.01233 20.42433,11.00466 30.79358,15.35871 52.0003,25.11208 49.19899,21.5681 101.03325,36.7798 153.87901,46.3093 11.55576,2.0839 23.20507,3.6107 34.8076,5.4161 60.00297,7.7292 120.65503,10.0238 181.10644,8.0978 12.50645,-0.3985 24.99543,-1.2281 37.49314,-1.8422 62.06246,-4.2542 123.55035,-14.5381 184.46644,-26.8796 11.833,-2.3973 23.6218,-5.0077 35.4327,-7.5115 45.3752,-10.647 90.662,-22.2549 134.6224,-37.87259 26.6351,-9.46255 35.7204,-13.76854 61.597,-24.74676 43.011,-20.73144 15.6209,-6.95396 56.753,-29.01155 6.2139,-3.33227 -23.2408,15.40991 -18.5716,10.1265 6.2426,-7.06368 15.807,-10.28427 23.5115,-15.71619 20.3181,-14.32484 22.0211,-16.48756 40.6839,-32.36038 21.8077,-19.8628 41.5818,-42.23132 56.1043,-68.04627 8.8308,-15.69741 9.7701,-19.99372 16.1278,-36.66546 10.7432,-33.44824 14.2168,-68.6859 12.949,-103.70022 -0.2643,-7.29844 -0.9911,-14.57278 -1.4866,-21.85918 -0.9831,-7.43956 -1.7528,-14.91046 -2.9494,-22.31868 -5.0095,-31.01454 -13.4094,-62.55751 -23.6077,-92.25358 -2.6992,-7.85968 -5.7491,-15.59448 -8.6237,-23.39172 -14.9321,-39.53188 -30.9193,-78.8232 -51.9419,-115.57588 -4.3082,-7.53176 -8.9933,-14.84155 -13.49,-22.26233 -18.7274,-28.9045 -39.2102,-56.72049 -62.0854,-82.49606 -14.8177,-16.69649 -20.1003,-21.39881 -35.888,-36.97501 -24.464,-23.54508 -50.8528,-45.10119 -79.656,-63.1478 -18.6633,-11.6935 -24.7791,-14.29223 -44.3663,-24.32607 -38.3219,-18.12627 -79.0445,-31.04322 -121.1176,-36.71642 -8.55887,-1.15408 -17.18705,-1.71733 -25.78056,-2.576 -8.81567,-0.25776 -17.62771,-0.8234 -26.447,-0.77329 -18.75204,0.10656 -36.06106,1.55528 -54.67153,3.86989 -17.54814,2.18248 -37.23253,5.57245 -54.49761,9.29641 -9.13481,1.97032 -18.17643,4.35029 -27.26464,6.52543 -8.99335,2.53129 -18.02323,4.9362 -26.98005,7.59387 -13.74551,4.07856 -39.0944,12.30127 -52.78671,16.80064 -18.8095,6.1809 -32.75991,10.81753 -51.37744,17.57773 -8.83582,3.20837 -17.60735,6.59109 -26.41103,9.88664 -33.62821,13.46379 -17.34637,6.76923 -48.86577,20.03438 0,0 42.12942,-33.18625 42.12942,-33.18625 l 0,0 c 30.3679,-12.08987 14.51435,-5.81328 47.56714,-18.8134 8.95839,-3.368 17.87836,-6.84002 26.87518,-10.10399 17.25098,-6.25851 33.98337,-11.79702 51.43628,-17.45249 13.08185,-4.23907 39.5831,-12.6496 52.66813,-16.44454 9.00331,-2.61115 18.08099,-4.95872 27.12149,-7.43808 21.46987,-4.94771 33.52064,-8.08499 55.3391,-11.653 8.90326,-1.45597 17.86077,-2.57491 26.82261,-3.61095 27.44188,-3.17245 54.78354,-4.87668 82.39339,-2.71891 8.7265,0.92065 17.4931,1.51915 26.1797,2.76194 42.4619,6.07506 83.449,19.48944 122.0572,38.01313 18.2845,9.49377 27.3972,13.7071 44.7932,24.81441 7.1079,4.53831 13.9748,9.44757 20.8215,14.3709 7.0698,5.08367 14.1181,10.20863 20.9206,15.64469 14.2302,11.37163 24.9698,21.70332 38.3558,34.0364 12.5515,12.71873 24.0736,24.0706 35.9663,37.44747 23.0685,25.94723 43.6388,54.07567 62.4129,83.24805 4.586,7.47531 9.372,14.83151 13.7579,22.42594 21.2969,36.87662 37.5261,76.33512 52.5942,116.07246 5.8939,15.94438 11.731,31.10288 16.7987,47.34045 2.3872,7.64876 4.4852,15.38625 6.5505,23.12814 5.986,22.43939 10.9481,45.15552 13.6353,68.24972 0.5625,7.37405 1.3305,14.73529 1.6875,22.12213 0.7337,15.1811 0.6048,28.3164 -0.4379,43.46299 -0.4888,7.09983 -1.0745,14.20213 -2.0582,21.25045 -2.3355,16.73447 -4.7121,24.1538 -8.8791,40.48267 -5.8935,16.05577 -7.6481,22.67119 -15.9345,37.79364 -3.3803,6.1689 -7.1833,12.10715 -11.143,17.92115 -13.1742,19.34382 -28.8254,36.78314 -46.2056,52.43444 -6.5676,5.66013 -12.9427,11.55176 -19.703,16.98037 -10.6986,8.59115 -34.0645,25.48774 -45.5835,32.48298 -22.7741,13.83024 -45.8851,27.10333 -69.0598,40.25118 -8.8741,5.03458 -17.9404,9.73084 -27.0697,14.28642 -9.6992,4.84002 -19.6013,9.26234 -29.402,13.89351 -26.8632,11.13993 -33.6702,14.42263 -61.3043,24.01333 -43.9221,15.2435 -89.065,26.6554 -134.3564,36.9845 -11.7828,2.4444 -23.5419,5.0055 -35.3483,7.3332 -60.97825,12.0225 -122.4591,22.0986 -184.54337,26.0904 -32.77627,1.4949 -42.53143,2.2765 -75.39844,2.4225 -23.61634,0.1048 -49.11656,-0.4408 -72.69799,-1.9644 -11.77951,-0.7611 -23.5345,-1.8787 -35.28288,-3.0241 -12.17446,-1.1869 -24.3206,-2.6482 -36.4809,-3.9723 -30.17614,-4.528 -39.66894,-5.384 -69.22208,-12.0321 -41.83594,-9.411 -82.7892,-22.6507 -122.22713,-39.4701 -9.10416,-4.071 -18.30863,-7.9248 -27.31248,-12.2131 -15.49538,-7.3801 -35.44695,-17.9654 -50.11553,-26.92139 -23.19838,-14.16395 -44.95865,-30.56269 -65.2124,-48.67425 -6.32726,-6.05058 -12.85146,-11.90171 -18.98178,-18.15174 -22.56851,-23.00918 -42.83299,-48.73448 -59.4539,-76.3676 -3.78555,-6.29368 -7.11715,-12.84949 -10.67573,-19.27423 -7.57575,-16.88833 -10.29158,-21.53791 -15.72829,-39.22357 -8.42498,-27.40655 -12.19204,-55.22712 -11.5421,-83.87922 0.43762,-7.66873 0.62664,-15.35571 1.31284,-23.00621 3.85062,-42.93036 14.37,-85.00508 27.43952,-125.96729 2.81213,-8.41458 5.4126,-16.90288 8.43637,-25.24375 8.42648,-23.2438 18.66875,-46.95257 30.75848,-68.53785 10.5529,-18.84138 14.69706,-23.76055 27.137,-41.43829 14.24766,-17.342 17.64018,-22.178 33.3189,-38.39986 24.35693,-25.20068 51.44524,-47.64844 80.05358,-67.8463 7.50729,-5.12922 14.92613,-10.39036 22.52186,-15.38766 29.55832,-19.44669 60.62425,-36.67026 91.25478,-54.24958 23.48087,-13.47603 47.68145,-25.61281 72.03046,-37.42565 8.04543,-3.75892 16.05153,-7.60324 24.13631,-11.27677 37.36532,-16.97792 75.45259,-32.4512 114.40548,-45.4092 27.38182,-9.02599 54.89362,-18.10296 83.50427,-22.3813 0,0 -50.30237,37.31844 -50.30237,37.31844 z"
       inkscape:connector-curvature="0" />
    <path
       style="fill:#ececec;fill-opacity:1"
       id="path3369"
       d="m 559.32858,871.75596 c -15.5453,-11.3308 -31.5011,-22.07608 -47.63819,-32.54338 -22.02051,-14.16088 -44.4693,-27.6606 -67.32608,-40.42858 -12.77398,-7.13566 -25.65231,-14.0829 -38.4688,-21.14194 -34.92119,-19.07059 -70.58294,-36.71043 -106.00538,-54.81366 -19.8682,-10.45477 -39.6739,-21.17167 -60.61559,-29.35007 -1.72149,-0.58125 -3.4321,-1.19575 -5.16445,-1.74375 -1.28864,-0.40764 -2.59932,-0.74208 -3.89626,-1.12245 -0.87601,-0.25692 -1.83824,-0.32213 -2.62249,-0.78941 -0.77166,-0.45978 -2.63506,-1.38604 -1.90358,-1.90737 69.92533,-49.83648 44.98535,-57.87939 75.77699,-46.44609 10.76469,2.80793 21.66245,5.1023 32.42712,7.90586 6.08036,1.58357 33.79343,9.36415 38.67699,10.81584 7.86914,2.33919 15.68446,4.85579 23.52669,7.28368 59.59477,18.83005 118.49805,39.75909 177.46799,60.43973 34.0745,12.47463 68.08478,25.12703 102.07055,37.84139 24.0744,9.00644 42.06549,15.9515 66.14466,24.74829 10.11664,3.69589 20.27736,7.26999 30.41604,10.90498 23.74637,8.31314 47.35912,17.0038 71.16679,25.1423 7.3907,2.52646 21.21557,7.1784 29.23904,9.49255 3.14002,0.90565 6.33122,1.62332 9.49683,2.43498 2.51627,11.43674 8.93037,-4.77905 6.73577,-3.51504 -24.51906,14.12206 -46.58384,32.51204 -71.9671,45.01434 -2.77387,1.3662 -4.50697,-4.2482 -6.94884,-6.1451 -10.55001,-8.1956 -17.65763,-12.149 -29.42216,-19.5113 C 726.42698,822.36162 669.4869,795.77847 613.00889,768.45738 601.91788,763.18318 590.83846,757.88455 579.73587,752.63478 568.59213,747.36555 557.3999,742.19897 546.27006,736.90044 502.22604,715.93262 458.43861,694.40168 414.794,672.61757 362.32085,646.87636 310.34854,620.12545 257.76179,594.61643 c -14.21596,-6.78836 -28.55673,-13.31129 -43.00722,-19.58393 -6.71138,-2.91327 -13.46366,-5.68707 -20.0834,-8.80299 -1.01155,-0.60619 -2.13799,-1.05261 -3.03465,-1.81858 -0.79347,-0.67783 -2.81694,-1.85498 -1.95588,-2.44459 23.91533,-16.37597 48.12347,-32.44932 73.46367,-46.5202 1.89858,-1.05425 4.04441,1.58353 6.07471,2.35419 8.30324,3.15172 16.62531,6.25361 24.93229,9.39545 22.48296,8.50753 44.87555,17.25185 67.28948,25.93898 9.49625,3.68053 19.03353,7.25716 28.48603,11.04865 10.50136,4.2122 20.91081,8.65008 31.37203,12.96101 11.35732,4.68021 22.72239,9.3416 34.08359,14.01239 53.11379,22.11105 105.71484,45.43273 158.82424,67.55263 28.38872,11.82381 57.52355,23.52138 86.03125,35.05109 14.08127,5.55513 28.15477,11.13003 42.24383,16.66539 13.86593,5.4477 27.70593,10.96297 41.62105,16.28375 13.25496,5.06835 26.59055,9.92322 39.88664,14.88267 12.63173,4.71164 25.24093,9.4842 37.8968,14.13061 23.8784,8.76656 44.93059,16.16161 68.83454,24.6387 46.74855,16.57308 93.92441,31.89971 141.05491,47.34132 3.2148,1.05179 16.9501,5.70334 21.348,6.63885 1.629,0.34653 3.322,0.24513 4.983,0.36769 -23.9679,14.71699 -47.129,30.83705 -71.9038,44.15095 -1.5247,0.8194 -2.5732,-2.3188 -3.9241,-3.4012 -3.2861,-2.6329 -6.655,-5.1608 -9.9825,-7.7412 -5.1153,-3.4876 -10.1542,-7.09 -15.34586,-10.4629 -23.37901,-15.1884 -47.56547,-29.14498 -71.68583,-43.10297 -36.79672,-21.29355 -25.02295,-14.51138 -63.32439,-36.09112 -36.82951,-20.99345 -74.36573,-40.68629 -111.82392,-60.51888 -13.23557,-7.00769 -26.40933,-14.13208 -39.66521,-21.10128 -13.13914,-6.90781 -26.36081,-13.65759 -39.5189,-20.52924 -13.15283,-6.86891 -26.27577,-13.7949 -39.41365,-20.69235 -53.71865,-27.67863 -24.17528,-12.60037 -76.96074,-39.2399 -31.37997,-15.8367 -39.30989,-20.13135 -70.70815,-34.96045 -22.75217,-10.74563 -38.38824,-17.57989 -61.12562,-27.71995 -40.74581,-17.79286 -82.17598,-33.93495 -123.36298,-50.65837 -20.42632,-8.54164 -40.70665,-17.43309 -60.89661,-26.51855 -0.41535,-0.19519 -7.95262,-3.73134 -8.99964,-4.24312 -0.91587,-0.44767 -1.87642,-0.82389 -2.72387,-1.3905 -1.68908,-1.12932 -6.62478,-6.58508 -4.47192,-7.98573 24.13399,-15.70152 50.56857,-27.54575 75.85285,-41.31862 1.90169,0.73465 3.79061,1.50323 5.70507,2.20393 27.36635,10.0162 -12.50674,-4.91806 23.43459,8.36522 22.11023,8.17155 43.98628,16.96154 65.89743,25.64668 72.64198,29.87393 145.38537,59.50015 218.19233,88.96983 78.60408,31.46519 158.24337,60.34185 238.73131,86.61714 15.91058,5.19401 31.8998,10.14395 47.8497,15.21593 43.13146,13.54147 86.24584,27.15816 129.56411,40.09506 33.8773,10.11736 67.8979,19.77446 101.8827,29.52312 22.1938,6.3266 44.3862,12.65845 66.5752,19.00205 10.7956,3.08635 21.5568,6.18344 32.4639,8.84676 1.5184,0.10433 5.846,-0.49342 4.5552,0.31297 -23.6877,14.79839 -48.158,28.30977 -72.4462,42.10044 -0.5268,0.29908 -1.2758,0.3391 -1.816,0.0651 -3.0978,-1.57105 -5.8568,-3.73969 -8.8623,-5.4807 -11.4776,-6.64865 -22.2944,-12.13222 -34.1457,-18.35465 -39.1753,-18.79857 -78.2919,-37.72525 -117.70233,-56.02962 -12.27004,-5.69888 -24.62644,-11.21019 -36.91427,-16.87062 -13.19923,-6.08027 -26.36439,-12.23423 -39.54659,-18.35134 -71.86435,-32.66278 -143.37954,-66.09074 -215.57063,-98.0327 -14.05734,-6.21987 -28.17539,-12.30162 -42.26309,-18.45243 -47.95625,-21.49398 -96.7974,-40.90599 -145.27025,-61.18004 -17.23548,-7.20884 -41.13774,-17.47276 -58.44827,-24.87774 -42.01361,-17.9602 -83.99686,-35.99336 -126.35979,-53.11798 -16.26042,-6.51222 -32.58445,-12.8576 -49.27033,-18.19976 -0.3198,-0.39531 -6.34494,-1.54367 -6.65674,-1.86439 -1.64723,-1.69432 -2.64476,-4.72363 -3.49689,-6.63651 -2.18953,-35.03997 52.95505,-48.89887 83.53061,-44.75788 2.68625,0.36381 5.35964,0.81698 8.03946,1.22547 17.06987,3.80974 34.16155,7.69667 51.00208,12.4397 28.39163,7.99632 56.33911,17.64401 84.32824,26.91281 52.34944,17.33372 104.76314,34.48732 157.40212,50.92487 35.91282,11.21447 60.27404,18.5326 96.55831,29.55301 4.53914,1.33465 101.57165,29.86941 104.94373,30.84375 18.05668,5.21733 36.16177,10.26561 54.23859,15.41269 51.45921,14.65214 56.26143,16.22016 107.56684,30.27707 16.8475,4.61596 33.7273,9.11311 50.5909,13.66966 70.3177,19.10262 141.0878,36.56439 212.3968,51.56065 14.1739,2.82393 28.41,5.40891 42.7649,7.13254 5.6638,0.68006 10.8749,1.25323 16.5427,0.93935 0.4893,-0.29671 1.9478,-1.20215 1.468,-0.89015 -23.8047,15.48135 -47.6543,30.89389 -71.4438,46.39865 -0.2338,0.15242 -0.3414,0.61291 -0.6167,0.56657 -1.2881,-0.21684 -2.4613,-0.87598 -3.6991,-1.29311 -2.2254,-0.74993 -4.442,-1.52958 -6.6902,-2.20795 -3.0711,-0.92667 -6.1761,-1.73734 -9.2641,-2.60601 -21.3199,-5.55916 -42.6813,-11.01802 -63.8088,-17.28317 -20.6213,-6.11504 -31.6664,-9.95247 -52.6213,-16.86452 -10.6517,-3.62802 -21.3679,-7.0719 -31.9552,-10.88407 -12.3532,-4.44806 -24.5425,-9.34023 -36.8573,-13.89342 -13.3638,-4.941 -26.8333,-9.59431 -40.1773,-14.58863 -14.5453,-5.44397 -28.99183,-11.1484 -43.4869,-16.72485 -60.57755,-23.30501 -30.73629,-11.58099 -92.00599,-36.19628 -46.73803,-18.77026 -93.31139,-37.95134 -139.87106,-57.15916 -14.98442,-6.1817 -29.91929,-12.48326 -44.91263,-18.64328 -93.13295,-38.26369 7.12436,3.45374 -82.83888,-34.11694 -61.01615,-25.64402 -122.48661,-50.22679 -184.75126,-72.68052 -24.91979,-8.83314 -50.10676,-16.93045 -75.68397,-23.64105 -1.62739,-1.81477 -5.8625,-0.21214 -7.63669,-2.17644 -19.86353,-21.99187 52.59346,-39.31619 72.47484,-49.52329 2.12598,-1.09148 4.70304,0.85672 7.06682,1.2084 3.55042,0.52824 7.11534,0.95398 10.67302,1.43097 19.25059,3.19541 12.27583,2.00607 33.90673,5.75167 7.39426,1.28039 14.80612,2.46407 22.18043,3.85474 28.68479,5.40947 57.18223,11.8226 85.66602,18.18144 36.82934,8.4974 73.51509,17.58118 110.03828,27.31032 13.90339,3.70362 27.81577,7.37919 41.6558,11.31297 9.91687,2.81869 83.90031,24.91342 92.68248,27.53191 50.32681,15.93327 100.85388,31.23247 151.21159,47.06538 17.11947,5.38251 34.17697,10.96034 51.28487,16.37964 16.7082,5.29271 33.4754,10.39919 50.1631,15.75631 16.5247,5.30482 32.9815,10.81925 49.4722,16.22888 43.727,14.06733 87.3324,28.52624 131.1669,42.25897 29.4647,9.23087 59.0785,17.93736 88.752,26.46547 13.3032,3.58734 20.145,5.63244 33.0058,8.4531 3.3244,0.72912 6.6422,1.56424 10.0255,1.93372 2.0077,0.21925 7.7746,-1.23846 6.0562,-0.17748 -69.6361,42.99386 -49.2815,56.44734 -73.5198,39.46963 -2.9919,-2.42731 -5.8429,-5.03947 -8.9757,-7.28194 -11.3913,-8.15379 -23.3965,-15.01146 -35.6466,-21.80119 -17.0276,-9.43761 -37.5421,-20.0033 -54.8206,-28.53599 -10.8885,-5.37709 -21.883,-10.53662 -32.8246,-15.80494 -12.0739,-5.72083 -24.1039,-11.53524 -36.2216,-17.1625 -12.5258,-5.81675 -25.1517,-11.41577 -37.707,-17.16853 -13.183,-6.04035 -26.3023,-12.21973 -39.5078,-18.21071 -13.4102,-6.08385 -26.8988,-11.99359 -40.338,-18.01315 -60.98922,-27.31769 -21.7802,-10.06131 -83.29765,-36.82803 C 947.85077,395.94177 933.84106,389.8049 919.79361,383.7553 878.2665,365.87149 836.51,348.58457 794.45736,331.97154 c -26.09621,-10.30938 -52.28175,-20.39137 -78.3942,-30.65956 -12.43368,-4.73463 -24.82834,-9.57304 -37.30104,-14.2039 -15.05491,-5.58957 -52.07894,-18.75364 -67.76819,-24.23618 -17.93776,-6.26827 -39.44205,-13.66526 -57.65419,-19.46127 -8.26785,-2.63125 -16.59607,-5.06887 -24.89411,-7.6033 -23.89539,-6.89379 -47.82488,-13.82012 -72.22407,-18.73803 -9.98595,-2.01277 -12.40055,-2.24503 -21.96049,-3.63622 -6.17062,-0.56671 -12.38855,-1.57161 -18.61009,-1.45217 -1.04944,0.0201 -2.18903,-0.15026 -3.13394,0.30677 -0.53238,0.25749 -1.28393,1.91099 -0.78734,1.58985 23.88086,-15.44325 47.43051,-31.39277 71.14576,-47.08916 1.09317,0.50524 2.19502,0.99209 3.27949,1.51574 9.11755,4.40245 9.99196,5.1693 20.67527,9.50388 5.40869,2.19449 10.90638,4.16308 16.37138,6.21329 24.93623,9.35492 17.81279,6.68313 44.94335,16.10254 21.79146,7.38593 38.39859,13.12238 60.54464,20.15593 11.66866,3.70594 23.40196,7.20522 35.09749,10.82545 40.47092,12.52738 80.98138,24.91364 121.50492,37.27017 14.71972,4.3341 29.44922,8.63511 44.15916,13.00229 15.19225,4.51037 30.34779,9.14408 45.54719,13.63028 61.10081,18.03427 122.39716,35.40996 183.58575,53.14257 43.2761,12.55228 86.761,24.35685 130.1801,36.39668 34.5917,9.59207 69.0931,19.4969 103.6999,29.0356 20.3765,5.37806 40.7593,10.8685 61.4738,14.8257 2.675,0.51103 14.8776,2.94362 18.9376,2.13423 1.3087,-0.2609 2.1397,-1.59531 3.2095,-2.39297 -23.7681,14.20426 -46.7513,29.81325 -71.3045,42.61277 -1.4571,0.75961 -1.963,-2.65072 -3.1246,-3.81305 -2.6422,-2.64387 -5.3732,-5.20961 -8.2623,-7.58118 -16.5203,-13.56098 -35.0781,-24.3973 -53.1759,-35.64332 -41.1722,-24.72364 -83.5252,-47.38801 -125.8467,-70.05664 -55.7632,-29.86835 -20.8117,-11.41018 -77.6188,-41.1181 -50.84973,-27.1722 -102.28079,-53.26677 -154.35814,-78.00759 -11.27388,-5.35598 -22.55249,-10.70448 -33.91229,-15.87573 -10.18434,-4.63614 -20.47738,-9.02972 -30.71607,-13.54458 -33.36108,-13.88477 -66.6615,-28.43212 -101.42711,-38.54264 -3.88827,-1.13078 -7.82765,-2.0778 -11.74147,-3.1167 -7.41655,-1.77432 -14.92451,-3.22437 -22.52619,-3.90923 -1.39952,-0.12608 -2.80311,-0.25498 -4.20828,-0.24788 -0.94221,0.005 -2.11861,-0.35413 -2.81245,0.28335 -0.57364,0.52705 -0.0261,1.55778 -0.0392,2.33667 23.5982,-16.02739 46.66322,-32.86941 70.79462,-48.08218 0.96794,-0.6102 2.02811,1.06636 3.0835,1.50841 2.11254,0.88483 4.24872,1.71716 6.41222,2.46885 12.76495,4.43508 25.86352,7.62442 38.96196,10.88356 46.4146,11.26395 93.13223,21.24023 139.80183,31.38196 58.18256,12.28245 115.44357,28.48337 172.55887,44.92788 34.9217,9.74648 69.5467,20.50772 104.3563,30.63737 18.8106,5.47392 24.2854,6.94139 42.688,12.06072 15.3655,4.20098 30.7977,8.19236 46.4232,11.31583 3.2513,0.64993 14.2048,2.81889 18.3121,2.75359 1.6133,-0.0257 3.1517,-0.69315 4.7275,-1.03973 -23.8109,13.19435 -47.6219,26.3887 -71.4329,39.58304 0.074,0.17804 0.3545,0.67295 0.2209,0.53411 -1.9196,-1.99541 -3.5808,-4.24133 -5.6049,-6.13063 -3.2216,-3.00693 -6.6447,-5.79555 -10.1012,-8.52915 -11.9583,-9.45731 -18.5087,-13.64032 -31.4684,-22.59926 -21.7779,-13.86399 -43.7341,-27.48283 -66.0716,-40.43216 -25.3746,-14.70995 -51.2013,-28.67682 -76.8412,-42.91558 -34.4391,-18.67128 -69.19233,-36.78782 -104.49543,-53.77739 -18.63604,-8.96856 -25.26661,-11.87339 -43.65242,-20.23972 -24.22126,-10.75306 -48.75575,-21.12285 -74.42713,-27.89884 -3.56298,-0.56918 -7.16937,-1.851 -10.82283,-1.90769 -0.32954,-0.005 -1.23709,0.39866 -0.9659,0.21136 71.10289,-49.10914 44.5415,-59.65973 72.89959,-47.70007 1.2971,0.38891 2.57945,0.8309 3.89129,1.16674 3.4213,0.87588 10.14894,2.20968 13.31753,2.86435 11.11707,2.29693 22.24276,4.55014 33.3601,6.84597 4.83837,1.02034 9.67754,2.03689 14.51511,3.061 5.18672,1.09802 10.38532,2.14193 15.55775,3.30539 13.93321,3.13408 18.72833,4.51114 32.65054,8.04192 19.6029,4.97144 14.1034,3.58393 33.968,8.34269 30.5186,6.9364 61.4843,11.68235 92.4881,15.83087 15.4662,2.07478 30.9303,4.17003 46.4401,5.89458 0,0 -67.7428,47.49522 -67.7428,47.49522 l 0,0 c -14.1776,-3.38724 -28.5346,-5.87373 -42.9252,-8.17434 -30.3877,-5.08557 -60.6545,-10.959 -90.68379,-17.86113 -32.6944,-7.55665 -65.15989,-16.38016 -98.45429,-21.01039 -18.59755,-2.81798 -37.24777,-5.23091 -55.89097,-7.72422 -30.85081,-3.13102 -4.61694,0.13118 66.75577,-49.145 0.2077,-0.14339 0.32085,0.40633 0.54103,0.52968 2.88848,1.61825 6.29482,2.26469 9.16672,3.917 22.91928,10.39328 45.26677,21.97946 67.60899,33.54714 48.27064,25.46634 96.46494,51.0771 144.66364,76.67947 49.3178,26.51482 98.5193,53.24617 147.0557,81.17449 17.9916,10.26161 18.7647,10.53335 35.4282,20.62553 3.1063,1.88132 17.6872,10.4989 21.3008,14.08671 2.4671,2.44947 8.9291,6.32176 6.1562,8.41883 -22.7034,17.17049 -49.2606,28.53904 -73.891,42.80856 -21.4224,-5.71781 -42.3065,-13.30543 -63.4163,-20.03835 -47.341,-15.86181 -94.8683,-31.18104 -142.6963,-45.51484 -57.22796,-16.30774 -114.47034,-32.89844 -172.99784,-43.99933 -48.2702,-9.59561 -96.61677,-18.8032 -144.99025,-27.86364 -14.54343,-2.75964 -29.22151,-5.14331 -43.63455,-8.54823 -2.81653,-0.66538 -5.63943,-1.33012 -8.39484,-2.21515 -1.81118,-0.58174 -6.73129,-0.95085 -5.27589,-2.17584 21.50686,-18.10209 45.1093,-33.55701 67.66394,-50.33551 0.58441,0.51697 1.05942,1.19396 1.75323,1.55092 0.79642,0.40975 1.73148,0.45904 2.5975,0.68748 1.25286,0.33048 2.51182,0.63854 3.75915,0.9893 6.82591,1.9195 13.54716,4.19787 20.17544,6.71393 10.73167,4.25789 12.39767,4.81166 23.62217,9.77089 27.23934,12.03492 53.72038,25.69438 80.20967,39.2741 2.37753,1.2238 61.47128,31.64147 61.48916,31.65076 50.80187,26.37978 101.20071,53.53243 152.21381,79.50565 65.0835,33.30389 14.3779,7.54689 79.3048,40.01912 12.3005,6.1519 24.5417,12.42232 36.8596,18.53918 31.875,15.82853 64.0072,31.14429 95.6644,47.41193 20.4287,10.3185 25.6223,12.73293 44.774,23.12862 6.8572,3.72215 20.0252,10.85885 26.9742,15.89199 2.6394,1.91169 9.8665,4.21761 7.4181,6.36853 -21.2357,18.65598 -46.4531,32.21967 -69.6797,48.32951 -10.5849,-3.83342 7.9164,2.82551 -9.4792,-3.19639 -21.4312,-7.41892 -42.4581,-15.98023 -63.9238,-23.30544 -32.5102,-11.42422 -65.0983,-22.51364 -98.0077,-32.74943 -42.6949,-13.27941 -40.0451,-11.95501 -84.0325,-24.82197 -14.6874,-4.29628 -29.3423,-8.70273 -44.0135,-13.0541 -30.36365,-8.87027 -60.68619,-17.88175 -91.077,-26.6585 -15.50038,-4.47645 -31.0528,-8.77132 -46.55516,-13.24091 -15.27019,-4.40265 -30.48927,-8.98142 -45.7619,-13.37561 -30.26556,-8.70791 -60.6458,-17.01407 -90.883,-25.82182 -14.7119,-4.0624 -29.4238,-8.1248 -44.1357,-12.18719 -13.68963,-3.91904 -27.34999,-7.94182 -41.0689,-11.75713 -13.31049,-3.70172 -26.68742,-7.16054 -40.0169,-10.79332 -33.5428,-9.14168 -67.034,-18.47605 -100.53471,-27.77027 -15.66104,-4.28505 -33.28712,-9.06198 -49.01201,-13.5265 -6.02463,-1.71047 -12.0197,-3.52389 -18.04335,-5.23782 -5.00308,-1.42354 -10.02946,-2.76406 -15.03627,-4.17442 -3.4198,-0.96331 -6.88098,-1.79851 -10.24328,-2.94653 -2.30499,-0.78701 -4.48593,-1.89893 -6.72889,-2.8484 22.97328,-16.41101 45.62611,-33.28013 68.91984,-49.23304 0.49472,-0.3388 0.92378,0.80329 1.48435,1.01613 0.87862,0.33361 1.83536,0.40607 2.75621,0.59397 5.57801,1.1382 11.17193,2.21068 16.67087,3.70553 29.62612,7.79597 58.68807,17.50341 87.38786,28.20559 18.11138,6.68571 31.75682,11.65104 49.94933,18.68163 43.71794,16.89505 87.10764,34.62724 130.62203,52.03466 50.93905,20.85603 25.33493,10.27937 76.80973,31.73634 13.74622,5.65765 27.57714,11.10856 41.31028,16.79786 42.0953,17.43903 83.83444,35.72719 125.68457,53.74099 28.003,12.14522 56.0547,24.17825 84.0219,36.40572 13.5309,5.91582 26.9918,11.99104 40.5254,17.90055 13.5028,5.89602 27.0829,11.61398 40.5832,17.51573 12.7316,5.56571 25.3572,11.37286 38.1115,16.88626 12.6328,5.46085 25.3644,10.69007 38.0466,16.03511 11.3695,4.99541 22.7111,10.05513 34.1087,14.98622 54.8611,23.73522 9.8708,3.67535 59.4466,25.78121 5.2403,2.33664 34.707,15.52376 41.582,18.83942 4.19,2.02077 8.2608,4.28001 12.3912,6.42002 29.0854,25.79181 14.9215,8.44918 -63.9066,51.56728 -1.5163,0.82939 -3.2125,-1.27617 -4.8104,-1.93484 -6.7308,-2.77457 -13.4338,-5.6163 -20.1519,-8.42169 -5.4517,-2.27658 -10.904,-4.5518 -16.356,-6.8277 -26.7802,-10.95673 -53.647,-21.70275 -80.7357,-31.87993 -12.6972,-4.77033 -25.4584,-9.36891 -38.1946,-14.03409 -53.2477,-19.50416 -32.2809,-11.925 -88.005,-31.50479 -7.4618,-2.46377 -91.2465,-30.1451 -98.70445,-32.53888 -17.15121,-5.50503 -34.37511,-10.78101 -51.56971,-16.14897 -50.73856,-15.84002 -101.55588,-31.42583 -152.70376,-45.90431 -16.13691,-4.48436 -32.22382,-9.15269 -48.41073,-13.45309 -15.66016,-4.16047 -31.40587,-7.99231 -47.12407,-11.92781 -14.18868,-3.55253 -28.35796,-7.18805 -42.59625,-10.53622 -13.62294,-3.20348 -27.31646,-6.09913 -40.98163,-9.11736 -45.16639,-9.97594 -28.58327,-6.43843 -72.8794,-15.2537 -10.89717,-2.00517 -21.77596,-4.11293 -32.69151,-6.01552 -21.40118,-3.73025 -35.92199,-5.91415 -57.21895,-8.7315 -20.23809,-2.67727 -40.53998,-4.8349 -60.96623,-5.31883 -4.03804,0.0269 -8.08189,-0.13724 -12.11412,0.0809 -2.82016,0.15254 -10.73123,2.63827 -8.41007,1.02931 22.23706,-15.41405 46.97589,-27.06131 68.87986,-42.94514 3.20122,-2.32139 -7.77833,-6.17104 -2.0026,-3.35323 1.27516,0.62212 2.59547,1.14706 3.89321,1.72058 22.47641,10.00197 45.23153,19.36932 67.67321,29.45296 34.84683,15.17193 69.44281,30.89748 104.01259,46.6898 11.31222,5.1677 22.56364,10.46893 33.90868,15.56418 12.57161,5.64611 25.22606,11.10595 37.83909,16.65892 13.16812,5.80777 26.3447,11.59641 39.50437,17.4233 13.66647,6.05128 27.26455,12.25787 40.97399,18.21118 14.7827,6.41937 29.66803,12.59975 44.4995,18.90561 15.07137,6.40785 30.0987,12.92004 45.209,19.23553 35.61363,14.88505 58.23497,23.81101 94.05082,38.17956 33.5226,12.8278 59.69726,23.09633 93.45916,35.03143 15.0344,5.31478 30.1703,10.33871 45.2918,15.40045 13.8043,4.62083 27.6005,9.27141 41.4845,13.64691 24.5627,7.74087 48.4,14.43102 73.098,21.52003 23.2843,5.92624 33.7042,8.78574 56.4601,13.84399 22.9427,5.09979 46.0961,9.21783 69.2086,13.45353 3.4888,0.66118 6.9789,1.31508 10.4663,1.98353 2.0139,0.38601 10.9845,1.90743 13.7019,3.12772 1.4052,0.63106 5.0373,1.70199 3.8037,2.62471 -66.704,49.89578 -45.254,59.74712 -72.2056,46.70353 -17.1348,-4.89267 -34.3273,-9.59215 -51.2453,-15.21737 -37.445,-11.92883 -74.8982,-23.83423 -112.559,-35.07 -13.8709,-4.13826 -27.8096,-8.04769 -41.6722,-12.21361 -14.9122,-4.48135 -29.767,-9.15176 -44.6505,-13.72765 -16.3545,-4.90182 -32.68314,-9.89058 -49.06343,-14.70547 -17.55259,-5.15949 -35.14859,-10.17028 -52.73386,-15.21728 -29.27082,-8.40078 -79.26576,-22.64817 -108.59146,-30.8078 -18.17547,-5.05717 -36.41413,-9.88621 -54.57794,-14.98512 -17.30128,-4.85678 -34.54368,-9.92094 -51.81552,-14.88141 -17.29696,-4.67185 -34.6226,-9.23881 -51.89089,-14.01556 -15.9364,-4.40833 -31.81733,-9.01483 -47.72119,-13.53915 -54.43635,-15.48599 -108.76664,-31.3311 -163.14409,-47.02042 -26.4711,-7.29842 -37.34665,-10.55062 -63.46509,-16.81962 -22.32307,-5.35802 -44.87974,-10.29023 -67.80123,-12.23288 -4.86399,-0.41224 -9.7551,-0.38919 -14.63264,-0.58378 -5.8816,0.35769 -9.16455,0.11279 -14.46413,1.67042 -0.90382,0.26564 -1.76228,0.69709 -2.55842,1.20073 -0.51353,0.32486 -1.8481,1.55979 -1.3227,1.25448 72.51055,-42.13544 90.62703,-21.89711 70.50835,-43.44107 -0.78248,-1.2932 -1.54449,-2.59901 -2.34744,-3.8796 -0.34187,-0.54522 -0.81701,-1.01158 -1.08601,-1.59619 -0.0841,-0.18282 0.33362,0.22531 0.50428,0.33195 1.51251,0.94508 3.08934,1.78286 4.65134,2.64124 14.44136,7.62734 29.14282,14.76271 43.68386,22.19563 39.66115,19.67952 79.62219,38.72326 119.7177,57.50146 3.00173,1.38554 54.44503,25.13272 56.52311,26.08423 10.37154,4.7489 20.79673,9.38044 31.15303,14.16247 11.06631,5.10987 22.05558,10.38526 33.11373,15.51276 12.2111,5.6621 24.46235,11.2372 36.69352,16.8558 13.05609,6.05999 26.11219,12.11998 39.16828,18.17996 69.13729,32.24616 13.03688,6.34732 85.12079,38.85107 14.58612,6.5771 29.1101,13.2914 43.69502,19.87115 43.09715,19.44259 86.44793,38.30267 129.7824,57.20799 67.75723,28.71315 135.32593,57.90154 203.81013,84.85692 40.4172,15.22285 6.1951,2.40392 39.8265,14.84215 3.9016,1.44296 7.9922,2.46244 11.691,4.36593 3.1526,1.62239 11.4835,3.93489 8.6957,6.12555 -63.537,49.92726 -47.9225,56.91412 -75.8757,42.16368 -28.6101,-13.42173 -58.2219,-24.55992 -87.9888,-35.11853 -9.5335,-3.32256 -19.0457,-6.70695 -28.6006,-9.96768 -22.7368,-7.75928 -45.55949,-15.26477 -68.31391,-22.97225 -23.15884,-7.84447 -58.13617,-19.77228 -80.99782,-27.56067 -14.93103,-5.06098 -29.87664,-10.07886 -44.81496,-15.11829 -3.18787,-1.07169 -94.10325,-31.63207 -96.07082,-32.30757 -16.32066,-5.60309 -32.56967,-11.41274 -48.85688,-17.11234 -47.89536,-16.76069 -95.8225,-33.45479 -143.1496,-51.78268 -75.54187,-28.0049 -150.71167,-57.07574 -227.0622,-82.84407 -8.92758,-2.98632 -17.80439,-6.12896 -26.78275,-8.95898 -13.8126,-4.35379 -30.26165,-8.97262 -44.52564,-12.29968 -7.08812,-1.65329 -19.21681,-4.19259 -27.05327,-4.7435 -2.26733,-0.15939 -4.54323,0.15417 -6.81485,0.23125 23.82657,-13.76748 48.79109,-25.73082 71.47972,-41.30243 1.75746,-1.20618 -2.42634,-3.50571 -3.67719,-5.23167 -0.0729,-0.10052 0.0437,0.26417 0.13671,0.34644 0.61273,0.54222 1.27923,1.02178 1.94573,1.49635 1.02733,0.7315 2.07405,1.43616 3.13353,2.12028 1.43672,0.92769 2.90253,1.80954 4.35379,2.71432 18.21894,10.64956 37.18855,19.94888 56.22206,29.03853 38.84303,18.45017 78.21244,35.79816 116.44909,55.51004 49.21431,25.05644 5.85799,2.87203 58.02573,29.90888 11.24632,5.8286 22.5582,11.5309 33.77506,17.416 37.08552,19.4575 73.68168,39.84256 111.0204,58.82049 13.15068,6.88837 26.31439,13.75192 39.45204,20.66511 13.08291,6.88439 26.10154,13.89097 39.2095,20.72756 13.3802,6.97858 26.85093,13.78232 40.25377,20.71733 12.9982,6.72563 25.92658,13.58616 38.94914,20.26448 12.98171,6.65738 26.07042,13.10448 39.06233,19.74191 12.19343,6.22949 24.32862,12.57233 36.49292,18.85849 53.82194,27.91602 107.46497,56.21884 162.18047,82.36133 4.2975,2.00641 8.6245,3.95077 12.8925,6.01924 2.8513,1.38187 10.9174,2.3276 8.462,4.33015 -21.7526,17.74031 -46.3217,31.77961 -70.4091,46.19101 -1.0887,0.6513 -1.9902,-1.592 -3.0964,-2.2131 -3.0703,-1.7236 -16.1046,-7.8163 -18.135,-8.7786 C 964.3754,851.47006 919.84985,834.84734 875.64131,817.44283 828.16626,798.73764 780.85036,779.64896 733.49428,760.64617 719.71566,755.11716 705.88507,749.71775 692.12306,744.14751 678.22089,738.52054 664.37624,732.75248 650.50283,727.05497 635.93604,721.17423 578.68808,698.0748 564.13826,692.15262 510.05958,670.14109 456.14743,647.6783 401.38421,627.3974 345.17447,606.57237 288.83995,585.65111 230.77262,570.50758 c -9.86188,-2.21443 -18.74247,-4.73547 -28.79956,-5.32076 -2.22579,-0.12953 -8.4632,1.82308 -6.67011,0.49803 22.08554,-16.32073 45.68244,-30.49346 68.31249,-46.05038 0.24773,-0.17031 -0.99925,-0.58841 -0.8373,-0.33514 0.41543,0.64969 1.104,1.07698 1.65599,1.61548 5.35204,3.82385 10.93005,7.24399 16.53709,10.68482 12.66349,7.77112 25.43885,15.35866 38.34547,22.71991 11.72953,6.7684 28.6775,16.58548 40.2318,23.0863 36.36236,20.45863 73.17848,40.14622 110.42671,58.94084 10.48447,5.37327 20.9422,10.79906 31.45341,16.11982 54.90404,27.79233 110.51375,54.19899 166.52434,79.67957 10.8666,5.06529 21.74934,10.09611 32.5998,15.19588 10.48753,4.92918 20.90256,10.01249 31.41385,14.89081 10.49245,4.86958 21.08757,9.51534 31.59528,14.35191 26.44086,12.17041 52.56849,24.98813 78.97275,37.23524 12.19505,5.8048 22.96033,10.77767 34.83214,16.9282 3.46629,1.79581 12.97308,2.78423 10.28018,5.6106 -133.12788,139.72635 -40.59274,65.48705 -67.59721,49.55275 -1.52508,-0.8999 -3.2077,-1.5011 -4.81156,-2.2516 -32.84655,-15.4782 -65.83769,-30.6668 -99.51409,-44.2763 -65.18294,-26.22561 -130.73106,-51.62123 -197.28647,-74.18097 -10.87511,-3.78092 -21.70736,-7.68745 -32.62532,-11.34277 -10.98856,-3.67896 -22.05309,-7.12708 -33.08991,-10.65861 -38.43745,-12.2991 -76.88277,-24.67174 -115.88361,-35.08808 -8.25976,-2.0604 -16.4912,-4.23783 -24.77928,-6.18121 -14.27905,-3.34814 -27.11201,-5.96927 -41.52069,-8.31331 -10.16474,-1.65362 -18.4389,-2.72517 -28.58874,-3.29503 -2.8043,-0.15745 -5.61683,-0.0819 -8.42525,-0.12277 -31.47735,7.55467 -2.25483,1.05559 65.24615,-46.52481 0.31332,-0.22085 -1.23013,-0.88169 -0.86893,-0.75331 0.66399,0.236 1.19419,0.75006 1.81223,1.08858 2.63465,1.44309 5.38014,2.67848 7.97555,4.19593 19.00451,10.51988 37.54905,21.84798 56.37353,32.68287 34.1287,19.43531 68.76937,37.93842 103.32639,56.59738 36.48625,19.62992 72.90039,39.40231 108.89328,59.92583 8.96632,4.96055 17.54898,9.74589 26.55307,14.59473 7.43065,4.00151 15.32267,8.55628 23.40624,11.19688 1.05849,0.34577 2.17831,0.46344 3.26747,0.69515 0,0 -70.18122,47.85592 -70.18122,47.85592 z"
       inkscape:connector-curvature="0" />
  </g>
</svg>
