<?xml version="1.0" encoding="UTF-8" standalone="no"?>
<!-- Created with Inkscape (http://www.inkscape.org/) -->

<svg
   xmlns:dc="http://purl.org/dc/elements/1.1/"
   xmlns:cc="http://creativecommons.org/ns#"
   xmlns:rdf="http://www.w3.org/1999/02/22-rdf-syntax-ns#"
   xmlns:svg="http://www.w3.org/2000/svg"
   xmlns="http://www.w3.org/2000/svg"
   xmlns:sodipodi="http://sodipodi.sourceforge.net/DTD/sodipodi-0.dtd"
   xmlns:inkscape="http://www.inkscape.org/namespaces/inkscape"
   width="300"
   height="300"
   viewBox="0 0 300 300"
   id="svg2"
   version="1.1"
   inkscape:version="0.91 r13725"
   sodipodi:docname="circle.svg">
  <defs
     id="defs4" />
  <sodipodi:namedview
     id="base"
     pagecolor="#ffffff"
     bordercolor="#666666"
     borderopacity="1.0"
     inkscape:pageopacity="0.0"
     inkscape:pageshadow="2"
     inkscape:zoom="3.959798"
     inkscape:cx="23.219314"
     inkscape:cy="150.21194"
     inkscape:document-units="px"
     inkscape:current-layer="layer1"
     showgrid="false"
     units="px"
     inkscape:window-width="3730"
     inkscape:window-height="2112"
     inkscape:window-x="110"
     inkscape:window-y="48"
     inkscape:window-maximized="1" />
  <metadata
     id="metadata7">
    <rdf:RDF>
      <cc:Work
         rdf:about="">
        <dc:format>image/svg+xml</dc:format>
        <dc:type
           rdf:resource="http://purl.org/dc/dcmitype/StillImage" />
        <dc:title></dc:title>
      </cc:Work>
    </rdf:RDF>
  </metadata>
  <g
     inkscape:label="Layer 1"
     inkscape:groupmode="layer"
     id="layer1"
     transform="translate(0,-752.36216)">
    <path
       style="fill:#808080"
       id="path3338"
       d="m 100.6964,775.89684 c -1.751689,0.38544 -2.186323,0.43413 -4.073766,1.10861 -2.263745,0.80895 -4.772883,1.90031 -6.89512,3.03251 -1.414095,0.75442 -5.595889,3.14064 -4.164956,2.42399 1.765796,-0.88434 3.447326,-1.95189 5.170984,-2.92783 -4.749484,3.7589 -6.527626,4.98817 -11.034142,9.32913 -6.337671,6.10485 -12.181406,12.94347 -17.610771,19.97868 -2.039041,2.64211 -3.980751,5.36957 -5.971126,8.05436 -7.86897,10.89233 -14.690889,22.61532 -20.527359,34.89505 -1.431359,3.01152 -2.825383,6.04606 -4.108789,9.13391 -1.284302,3.09001 -2.393876,6.2608 -3.590813,9.3912 -4.093984,11.7609 -6.983082,24.00293 -8.006278,36.53415 -0.645054,7.90005 -0.399868,9.40404 -0.19476,17.21465 0.26233,2.70498 0.436961,5.4215 0.78699,8.11496 0.340888,2.62312 0.79205,5.22969 1.284461,7.82477 1.441391,7.59633 3.445869,15.06537 6.00515,22.31264 0.85118,2.41035 1.820659,4.77032 2.730988,7.15548 1.040817,2.34435 2.004534,4.73019 3.12245,7.03301 1.110215,2.28697 2.314759,4.52108 3.557647,6.72752 2.353082,4.17731 5.178026,8.6759 8.01643,12.49269 3.810094,5.12338 5.160558,6.28298 9.507068,10.89438 5.106957,5.0213 10.617433,9.5567 16.551996,13.3899 3.738998,2.4151 8.473853,5.026 12.456062,6.9368 2.2026,1.0569 4.460106,1.9758 6.690154,2.9637 11.57509,4.7926 23.55101,8.5362 35.83867,10.4734 2.54266,0.4009 5.10402,0.6496 7.65603,0.9744 10.41535,1.0647 20.90437,0.4457 31.19921,-1.4991 6.79608,-1.2838 8.85186,-2.0282 15.52035,-3.9196 10.14059,-3.2738 20.03065,-7.4038 29.37558,-12.779 2.2682,-1.3047 4.56485,-2.5721 6.70947,-4.0999 0.80979,-0.5769 -1.78665,0.8195 -2.67998,1.2293 9.07203,-6.4658 17.34487,-14.1201 24.94463,-22.48448 4.83956,-5.32647 6.32009,-7.32732 10.86185,-12.95209 6.54724,-8.41053 12.64941,-17.30313 17.40006,-27.04111 2.88394,-5.91154 3.17257,-7.22519 5.40465,-13.41035 3.70357,-11.4747 5.02214,-23.31999 5.2187,-35.41193 0.0405,-2.48874 -0.0136,-4.97821 -0.0205,-7.46731 -0.26148,-13.31232 -1.89488,-26.60125 -5.20864,-39.44228 -0.67806,-2.62755 -1.49325,-5.21185 -2.23988,-7.81777 -0.89268,-2.56539 -1.72075,-5.15793 -2.67805,-7.69615 -3.82338,-10.13749 -8.56193,-19.97852 -14.38004,-28.96207 -1.48678,-2.29569 -3.11821,-4.47875 -4.67732,-6.71812 -6.633,-8.9946 -14.38677,-16.92866 -23.11517,-23.53372 -6.14064,-4.64681 -7.72282,-5.34955 -14.29687,-9.28752 -10.4047,-5.7685 -21.5957,-9.61271 -33.05759,-12.04992 -7.65448,-1.6276 -10.17372,-1.76174 -17.91088,-2.70525 -11.61079,-0.97017 -23.3506,-0.96321 -34.82208,1.44501 -2.65348,0.55705 -5.30131,1.18699 -7.88535,2.04245 -2.53424,0.83896 -4.95946,2.02052 -7.43919,3.03078 -8.83393,4.7602 -4.63273,2.3053 -12.63148,7.30911 0,0 8.76501,-7.63208 8.76501,-7.63208 l 0,0 c 7.80174,-4.68163 3.67159,-2.3655 12.42327,-6.88009 2.49601,-0.96293 4.94176,-2.0928 7.48801,-2.8888 2.58748,-0.8089 5.23301,-1.40175 7.88454,-1.91694 11.49835,-2.23411 23.21343,-2.06066 34.81711,-1.07392 7.45408,0.95503 10.61311,1.19692 17.99304,2.79801 11.55175,2.50617 22.87601,6.36057 33.35044,12.2252 2.47747,1.4844 5.00464,2.8765 7.43241,4.45321 7.06534,4.58859 13.71307,9.95601 19.70157,16.07167 5.00414,5.11039 6.23758,6.97935 10.67419,12.60559 4.13766,5.93447 5.42702,7.48618 9.01773,13.82121 5.32795,9.40003 9.50891,19.52399 12.95621,29.87339 0.75817,2.62414 1.58361,5.22684 2.27449,7.87242 3.36798,12.89674 5.08357,26.21853 5.50249,39.59563 0.0258,2.49767 0.10076,4.99532 0.0773,7.49302 -0.042,4.46897 -0.28254,10.16207 -0.74749,14.60993 -0.75153,7.18947 -2.1274,14.30851 -4.30166,21.15933 -0.81265,2.28996 -1.53472,4.6196 -2.43796,6.86988 -2.91642,7.26567 -6.67053,13.99228 -10.85745,20.479 -1.51094,2.34087 -3.05752,4.65656 -4.66814,6.91908 -1.62926,2.2887 -3.36554,4.48675 -5.04831,6.73012 -1.76978,2.21319 -3.49867,4.46504 -5.30932,6.63956 -9.05705,10.87714 -19.03838,20.9058 -30.31607,29.0789 -5.99757,3.914 -15.55171,10.433 -22.69595,14.4597 -9.38246,5.2882 -19.30938,9.3269 -29.45956,12.5427 -6.612,1.8249 -8.87987,2.6099 -15.62027,3.8336 -10.36911,1.8824 -20.93531,2.3945 -31.40622,1.2823 -6.6806,-0.8966 -8.74619,-1.036 -15.36272,-2.4781 -9.699094,-2.1139 -19.197651,-5.2692 -28.405541,-9.1519 -2.264001,-0.9939 -4.559928,-1.9074 -6.791988,-2.9818 -3.525504,-1.6969 -9.262883,-4.8997 -12.562357,-7.0442 -5.978455,-3.8856 -11.502465,-8.5295 -16.635973,-13.6143 -1.685994,-1.7845 -3.445022,-3.4924 -5.057983,-5.3535 -4.829165,-5.572 -8.935507,-11.82772 -12.575931,-18.34752 -1.248098,-2.23528 -2.461648,-4.49527 -3.585066,-6.80594 -1.128701,-2.32153 -2.111654,-4.72187 -3.16748,-7.0828 -2.423369,-6.31133 -3.227503,-8.03179 -5.154199,-14.5407 -3.009372,-10.16646 -4.984185,-20.69923 -5.673077,-31.34755 -0.1410974,-7.42279 -0.376409,-9.96291 0.254239,-17.44406 0.467849,-5.54993 1.59819,-12.89347 2.786571,-18.29089 1.685107,-7.65345 3.004692,-11.18585 5.386328,-18.6583 1.188237,-3.15201 2.281332,-6.34755 3.564711,-9.456 1.285474,-3.11355 2.699408,-6.16498 4.137732,-9.20004 5.832781,-12.30798 12.551109,-24.12812 20.420185,-35.05687 1.932538,-2.6752 3.814727,-5.39347 5.797614,-8.02564 3.744347,-4.9704 7.361803,-9.3656 11.486406,-13.96129 1.831626,-2.04082 3.685967,-4.06102 5.617836,-5.99174 4.179677,-4.17719 6.126208,-5.63158 10.534742,-9.29189 3.889991,-2.51014 13.221383,-8.92455 19.137567,-12.00892 3.792604,-1.97724 7.798694,-3.54313 11.921954,-4.48858 0,0 -10.35175,8.35987 -10.35175,8.35987 z"
       inkscape:connector-curvature="0" />
    <path
       style="fill:#333333"
       id="path3371"
       d="m 102.0262,773.70965 c -1.60236,1.21745 -3.294643,2.30961 -4.917374,3.49863 -1.499138,1.09846 -2.958566,2.25053 -4.42591,3.39046 -5.935319,4.71749 -11.489869,9.88413 -16.964704,15.12123 -3.801081,3.73573 -7.60205,7.48931 -11.067301,11.54476 -2.118492,2.47932 -2.655526,3.2749 -4.605739,5.86522 -4.49712,6.27455 -8.426495,12.92474 -12.268932,19.61192 -4.302439,7.30224 -8.197822,14.83058 -11.941874,22.43082 -3.525684,7.07209 -6.469826,14.40531 -9.256608,21.79275 -2.512124,6.85579 -4.655168,13.83536 -6.583918,20.87496 -1.838722,6.86589 -2.997226,13.88418 -3.862381,20.93122 -0.474343,4.4249 -0.756527,8.87552 -0.684125,13.32746 0.045,2.76709 0.137745,3.66059 0.318944,6.39929 0.316876,4.11713 0.783808,8.22284 1.532611,12.28502 0.480209,2.60509 0.64445,3.2026 1.232039,5.78319 0.88952,3.74689 1.875595,7.47396 3.112849,11.1227 0.734168,2.16511 1.063847,2.9513 1.885471,5.07507 1.847223,4.56954 4.274741,8.87245 6.678099,13.16586 2.214396,4.03745 4.807977,7.84303 7.523402,11.55545 1.804115,2.42875 3.704631,4.78954 5.789839,6.98404 0.77828,0.819 2.480746,2.5098 3.274117,3.3026 2.211034,2.1789 4.395269,4.4041 6.829686,6.3392 1.594726,1.2677 2.086041,1.5408 3.785957,2.6685 4.148081,2.5507 8.772653,4.1348 13.285935,5.895 4.539668,1.7967 9.17231,3.3434 13.79986,4.8951 4.530332,1.5201 9.098597,2.9241 13.680415,4.2799 4.492532,1.1625 8.957512,2.4268 13.445922,3.6045 0.76884,0.1948 1.53714,0.3917 2.3065,0.5843 1.62006,0.4057 3.07758,0.7714 4.71519,1.1187 2.50118,0.5304 5.02328,0.9334 7.5475,1.334 4.30708,0.6689 8.64411,1.1249 12.97902,1.5695 4.74061,0.4963 9.50517,0.5758 14.26643,0.4994 4.6396,-0.156 9.27042,-0.5016 13.89117,-0.9393 4.19415,-0.4441 8.38927,-0.8925 12.56826,-1.4636 3.88871,-0.609 7.7333,-1.4717 11.56194,-2.3783 3.77954,-0.9386 7.58118,-1.7715 11.32688,-2.8404 3.93145,-1.2331 7.6894,-2.9651 11.35475,-4.8328 3.17337,-1.7593 8.02232,-4.4602 -5.98933,3.4822 -0.60369,0.3422 1.19096,-0.7126 1.78279,-1.0749 1.87075,-1.1452 3.69792,-2.3462 5.51568,-3.5733 4.09296,-2.8128 7.80725,-6.1105 11.4235,-9.5005 3.64634,-3.516 6.90737,-7.39 10.12285,-11.2944 3.2567,-4.0404 6.18052,-8.32713 8.97774,-12.69323 2.41224,-3.89204 4.83446,-7.77755 7.19171,-11.70324 1.93346,-3.17844 3.73056,-6.44078 5.39155,-9.76939 1.58571,-3.37495 2.86475,-6.88191 4.18694,-10.36536 1.44499,-3.64014 2.72364,-7.33637 3.83002,-11.09238 1.10713,-3.68953 1.9135,-7.45439 2.68548,-11.22471 0.80774,-3.62795 1.58713,-7.25989 2.25479,-10.9165 0.66099,-3.72933 1.06946,-7.49936 1.39304,-11.27127 0.34171,-3.73019 0.58259,-7.46567 0.71886,-11.20869 0.19396,-3.81683 0.41472,-7.63072 0.52677,-11.45121 0.0962,-3.81692 0.14665,-7.63577 0.0839,-11.45356 -0.0546,-3.63369 -0.50108,-7.23929 -0.90558,-10.8452 -0.35254,-3.6094 -0.96663,-7.18222 -1.83189,-10.70237 -1.07521,-3.88755 -2.28809,-7.73454 -3.65523,-11.52895 -1.52197,-3.80806 -3.13513,-7.58358 -4.832,-11.31731 -1.73543,-3.7172 -3.68181,-7.33031 -5.76624,-10.862 -2.12436,-3.56545 -4.48147,-6.98289 -6.88566,-10.36325 -2.60778,-3.53868 -5.60648,-6.76747 -8.59457,-9.98391 -2.76037,-2.96664 -5.62908,-5.83105 -8.56029,-8.62837 -0.44886,-0.43228 -0.89966,-0.86254 -1.34658,-1.29682 -1.20738,-1.17327 -1.47901,-1.47686 -2.7224,-2.62057 -1.44162,-1.32604 -2.9398,-2.58577 -4.44176,-3.84212 -2.86307,-2.33861 -5.91681,-4.42717 -9.00101,-6.4598 -3.09726,-2.0312 -6.2953,-3.89637 -9.50683,-5.73856 -2.79559,-1.54343 -5.6462,-3.00105 -8.62353,-4.16475 -0.62769,-0.24534 -1.26463,-0.46632 -1.89695,-0.69947 -3.97982,-1.49764 -8.08078,-2.62286 -12.20598,-3.6355 -4.84673,-1.13278 -9.78655,-1.7622 -14.74041,-2.1751 -5.70583,-0.44694 -11.40695,0.043 -17.06821,0.74119 -6.00062,0.7586 -11.93888,1.91777 -17.91277,2.85111 -5.66396,0.77873 -11.2627,1.93267 -16.85171,3.12119 -4.78549,1.08386 -9.51507,2.43488 -14.11726,4.14181 -0.94877,0.35189 -1.88522,0.73614 -2.827829,1.1042 -4.978443,1.92643 -9.817323,4.19609 -14.480349,6.79413 -0.909987,0.507 -1.80469,1.04096 -2.707035,1.56144 10.21465,-5.78799 8.24169,-4.88207 4.593962,-2.3806 -1.386735,0.95097 -2.102621,1.50752 -3.399979,2.48192 0,0 -10.50356,4.17295 -10.50356,4.17295 l 0,0 c 5.660834,-4.18208 11.451986,-8.03638 17.827526,-11.16324 5.578363,-3.13182 11.302054,-5.99899 17.304604,-8.23826 0.95308,-0.3609 1.9006,-0.73683 2.85923,-1.0827 4.64323,-1.67524 9.40951,-2.99356 14.22865,-4.05386 5.60334,-1.18523 11.22281,-2.28568 16.89667,-3.0834 5.96822,-0.95793 11.92573,-1.9902 17.91663,-2.7994 5.73572,-0.6455 11.5115,-1.09892 17.28195,-0.61753 5.01059,0.45519 10.00903,1.10422 14.91163,2.26285 4.17687,1.01493 8.32169,2.16556 12.3412,3.70289 3.68127,1.38787 7.2596,3.01676 10.66913,4.98841 3.22951,1.85628 6.43192,3.75709 9.55317,5.79195 3.11382,2.05485 6.16315,4.21135 9.03811,6.59284 2.94917,2.50029 5.85596,5.04716 8.5606,7.81472 2.92825,2.82423 5.7578,5.74947 8.52794,8.72874 2.9973,3.27207 6.03238,6.52649 8.67729,10.09705 2.4415,3.39483 4.82567,6.83606 6.94317,10.44518 2.09739,3.57053 4.1212,7.18807 5.84423,10.95738 1.69162,3.76869 3.33844,7.56216 4.87474,11.39645 1.36759,3.82934 2.61637,7.70177 3.75507,11.6052 0.88761,3.55858 1.58869,7.16718 1.92648,10.82316 0.39172,3.64164 0.85469,7.28234 0.9403,10.94841 0.0484,3.83592 -0.0118,7.67294 -0.0803,11.50831 -0.11754,3.81659 -0.31404,7.62913 -0.49217,11.44311 -0.14481,3.76025 -0.40127,7.51355 -0.71432,11.26344 -0.30228,3.8028 -0.7523,7.59763 -1.34276,11.36616 -0.64445,3.66879 -1.42176,7.3104 -2.24279,10.94348 -0.78787,3.7966 -1.59352,7.58972 -2.66781,11.31854 -1.09839,3.77352 -2.33876,7.49932 -3.77204,11.16036 -1.31593,3.50341 -2.63788,7.00731 -4.1145,10.44673 -1.61624,3.40522 -3.50295,6.68071 -5.45108,9.9055 -2.38312,3.9595 -4.85824,7.86076 -7.30197,11.7828 -2.78241,4.40557 -5.70556,8.71668 -8.92778,12.81608 -0.47146,0.5797 -2.72222,3.3513 -3.21793,3.9438 -2.16473,2.5877 -4.48209,5.0407 -6.82246,7.469 -3.58285,3.4265 -7.27676,6.7446 -11.30746,9.6433 -6.54827,4.555 -13.47263,8.5515 -20.5171,12.2886 -3.71772,1.8244 -7.51452,3.5326 -11.5043,4.6767 -3.76847,1.0333 -7.5803,1.8901 -11.37595,2.8166 -3.83357,0.8842 -7.68237,1.7251 -11.58343,2.2571 -4.18645,0.5427 -8.38196,1.0198 -12.58481,1.4167 -4.6169,0.3967 -9.24339,0.7047 -13.87658,0.8215 -4.79933,0.047 -9.59929,-0.068 -14.37612,-0.5757 -4.34292,-0.4255 -8.68854,-0.8517 -12.98203,-1.6563 -4.91896,-0.8569 -9.83557,-1.7483 -14.64567,-3.1095 -4.502245,-1.1888 -8.999531,-2.3977 -13.493832,-3.6156 -4.574191,-1.374 -9.118102,-2.8468 -13.653197,-4.3444 -4.641752,-1.5593 -9.290182,-3.1086 -13.834955,-4.9368 -4.580266,-1.7928 -9.262652,-3.4367 -13.442098,-6.0827 -1.758779,-1.1871 -2.214201,-1.4403 -3.864335,-2.7696 -2.444229,-1.9689 -4.623816,-4.2346 -6.868089,-6.4209 -0.706523,-0.7026 -2.632863,-2.6083 -3.321572,-3.3331 -2.113451,-2.2241 -4.009307,-4.6411 -5.839192,-7.1003 -2.730552,-3.75906 -5.385119,-7.57556 -7.586026,-11.67692 -2.407791,-4.35294 -4.830849,-8.71922 -6.666693,-13.35217 -0.758188,-1.9836 -1.218254,-3.12462 -1.893361,-5.14521 -1.231541,-3.686 -2.1821344,-7.45731 -3.110362,-11.22837 -0.223189,-0.97013 -0.4626079,-1.93667 -0.6695668,-2.91039 -1.0744323,-5.05509 -1.7227287,-10.19271 -2.1264961,-15.34194 -0.130609,-2.16318 -0.281001,-4.30624 -0.3257557,-6.47397 -0.092922,-4.50073 0.2364542,-8.99475 0.6753939,-13.47082 0.8668228,-7.09751 2.0344635,-14.16582 3.8382717,-21.09157 1.901247,-7.0863 4.066722,-14.10333 6.595664,-20.9926 2.776786,-7.44236 5.781019,-14.80666 9.303689,-21.9315 3.758396,-7.60144 7.628014,-15.15251 11.899788,-22.48119 3.788706,-6.70997 7.661309,-13.38457 12.108293,-19.68681 1.923115,-2.59058 2.527637,-3.48786 4.619547,-5.96837 3.460247,-4.10305 7.290777,-7.87207 11.096004,-11.64942 5.378634,-5.1946 10.826852,-10.32895 16.599303,-15.08776 1.908749,-1.52588 3.789082,-3.1006 5.768618,-4.53547 0.415944,-0.30149 0.85061,-0.57645 1.268888,-0.8747 0.306972,-0.21889 1.263714,-0.94361 1.638018,-1.22619 0,0 10.888513,-4.34558 10.888513,-4.34558 z"
       inkscape:connector-curvature="0" />
    <path
       style="fill:#ececec"
       id="path3345"
       d="m 48.473035,912.88006 c 0.0521,3.12381 0.548366,6.21988 1.177423,9.2735 0.283697,1.37715 0.569459,2.75451 0.904103,4.12017 0.375744,1.53339 0.817667,3.0498 1.2265,4.5747 0.518225,1.74512 0.981738,3.50742 1.554675,5.23535 0.609039,1.8368 1.302967,3.64462 1.989598,5.45385 0.751414,1.97993 1.502441,3.96099 2.324209,5.91277 1.545344,3.67036 3.831595,8.49101 5.666649,12.00074 1.049958,2.00815 2.189131,3.96838 3.283697,5.95257 4.193819,7.82672 8.770709,15.44746 13.697828,22.83409 2.845413,4.26579 3.799806,5.55038 6.726062,9.6756 2.847902,3.8742 5.787192,7.701 9.150765,11.1483 1.64495,1.6859 3.272201,3.1707 5.183876,4.5379 0.7156,0.5118 1.48876,0.9379 2.23314,1.4069 0.96928,0.425 2.38839,1.2498 3.57112,1.0978 0.44113,-0.057 0.7931,-0.4028 1.18965,-0.6042 -6.66523,3.6421 -13.253805,7.4282 -19.995704,10.9264 -0.45267,0.2349 0.834924,-0.6449 1.061371,-1.1019 0.330981,-0.6679 0.371894,-1.4437 0.557841,-2.1655 -0.01154,-1.0581 0.05307,-2.1197 -0.03462,-3.1742 -0.239488,-2.8802 -0.855505,-5.5918 -1.606633,-8.3797 -1.479247,-5.4906 -3.537732,-10.8056 -5.457516,-16.15069 -2.209229,-6.69606 -4.92114,-13.20701 -7.477525,-19.77303 -0.92559,-2.37736 -1.835789,-4.76071 -2.740551,-7.14607 -0.904999,-2.38599 -1.831891,-4.76417 -2.688696,-7.16789 -0.869787,-2.44013 -1.660259,-4.90782 -2.490389,-7.36174 -2.389434,-7.13131 -4.736495,-14.2764 -7.083106,-21.42183 -2.009509,-6.11896 -2.254646,-6.68221 -4.094936,-12.72859 -0.582597,-1.91416 -1.133533,-3.83781 -1.700299,-5.75672 -2.102105,-7.22108 -4.200411,-14.44403 -6.661398,-21.55236 -0.207719,-0.56321 -0.683348,-1.90221 -0.974362,-2.54319 -3.684935,-8.11634 -23.004087,7.13304 21.923985,-12.05494 0.559198,-0.23883 0.524892,1.09712 0.799377,1.63971 0.456167,0.90171 0.928292,1.79527 1.392437,2.69291 1.079229,2.05318 3.241075,6.19005 4.280665,8.05281 0.950587,1.70329 1.946316,3.381 2.925858,5.06779 1.105936,1.90446 2.19666,3.818 3.330557,5.70594 1.377381,2.29333 6.275539,10.13115 7.617098,12.28382 1.402283,2.17145 2.786771,4.3545 4.206849,6.51436 1.433936,2.18093 2.917516,4.32892 4.354905,6.50758 1.477028,2.23874 2.904972,4.50968 4.388172,6.74434 1.47508,2.22243 2.99102,4.41747 4.48629,6.62636 1.49488,2.20831 2.96475,4.43376 4.48416,6.62526 1.46499,2.113 2.97898,4.1916 4.46848,6.28739 6.62762,9.12628 13.58895,18.00903 20.76813,26.70698 0.45598,0.53473 2.74338,3.24819 3.406,3.92302 0.33623,0.34243 0.60555,0.94637 1.08546,0.94582 0.31936,-3.6e-4 0.42785,-1.09329 0.14385,-0.94722 -7.19019,3.69789 -13.74374,8.66208 -21.20435,11.77859 -0.8581,0.35845 -0.24935,-1.84314 -0.37403,-2.76471 -2.01911,-8.36431 -5.28111,-16.35687 -8.18569,-24.435 -2.63895,-7.33934 -3.53178,-10.17188 -6.02869,-17.66707 -3.15858,-9.70022 -6.352274,-19.38895 -9.508739,-29.08987 -2.790085,-8.5749 -3.41118,-10.65109 -6.301144,-19.11172 -1.005698,-2.94427 -2.046831,-5.87631 -3.070246,-8.81447 -3.414382,-9.4834 -6.441715,-19.11895 -10.345128,-28.42023 -1.693342,-4.03499 -2.363707,-5.30374 -4.196754,-9.09309 -1.379256,-2.66367 -2.820152,-5.29943 -4.453616,-7.81725 -0.665798,-1.02626 -1.357655,-2.00716 -2.180145,-2.91057 -3.971633,7.62484 0.943745,-1.93767 21.524626,-11.67451 0.482527,-0.22829 0.13645,1.06054 0.255524,1.58089 0.230457,1.0071 0.500384,2.00538 0.791934,2.99652 1.189504,4.0438 1.616874,4.97018 3.159584,9.17595 2.627523,7.20081 5.746669,14.20217 8.862245,21.19995 1.230029,2.76272 2.443269,5.53302 3.696079,8.28548 2.01782,4.43323 6.22912,13.37614 8.26549,17.71698 1.50443,3.13331 3.00962,6.26624 4.51329,9.39991 5.4568,11.37209 3.80427,7.89463 9.2085,19.33956 2.87749,6.09386 6.32569,13.45396 9.2567,19.52808 1.53818,3.18768 3.10823,6.35988 4.66235,9.53982 5.53698,10.91145 10.87881,21.94537 17.05435,32.51784 2.84563,4.87169 3.53219,5.80388 6.47073,10.28457 2.05864,2.89863 2.48363,3.61363 4.5865,6.19033 0.51386,0.6296 1.02669,1.2629 1.59411,1.8447 0.3663,0.3756 0.69458,0.8758 1.19916,1.0195 0.25474,0.073 0.85058,-0.6246 0.61547,-0.5026 -6.98883,3.6254 -13.92737,7.347 -20.89105,11.0204 0.20362,-0.7064 0.542,-1.3872 0.61088,-2.1191 0.24735,-2.6288 -0.32471,-6.2352 -0.7242,-8.7143 -0.65006,-4.03418 -1.69895,-9.12965 -2.62407,-13.04843 -0.61866,-2.6206 -1.32126,-5.22067 -1.98189,-7.831 -2.44942,-8.92671 -5.18426,-17.77201 -8.0866,-26.56102 -1.03763,-3.14222 -2.13866,-6.26328 -3.17508,-9.4059 -2.41071,-7.3097 -4.02269,-12.55555 -6.32703,-19.91381 -6.14573,-19.45933 -12.20033,-38.9475 -18.49032,-58.36083 -4.77568,-13.82319 -8.66203,-27.9268 -13.100153,-41.85682 -1.732372,-5.25752 -3.542092,-10.48941 -5.583168,-15.63545 -3.797208,-8.09997 -1.727612,-3.06304 21.792461,-11.73904 0.84057,-0.31006 0.49399,1.72264 0.76229,2.57746 0.38102,1.21398 0.7758,2.42375 1.18551,3.62836 1.70681,5.01835 1.96427,5.56078 3.947,10.82442 0.92086,2.21943 1.82105,4.44755 2.76259,6.65828 1.43947,3.37983 5.20924,11.91021 6.65706,15.12256 2.62589,5.82619 5.22145,11.47281 8.04248,17.21126 1.48003,3.01063 3.02745,5.98767 4.54118,8.9815 9.18458,18.64191 19.37217,36.75847 29.26478,55.0266 5.45557,10.30153 10.87239,20.62555 16.41882,30.87877 0.3682,0.68065 5.46983,9.9793 6.06805,11.0699 1.98346,3.55759 3.95916,7.12675 6.15721,10.55859 0.79673,1.24395 1.6438,2.48957 2.57539,3.6406 0.29465,0.36405 0.62138,0.70092 0.93206,1.05138 0.23983,0.17737 0.42621,0.47765 0.71949,0.5321 0.16586,0.0308 0.536,-0.40483 0.38645,-0.32676 -7.09455,3.70333 -14.05005,7.67755 -21.23212,11.20813 -0.42268,0.20778 0.66505,-0.71323 0.8005,-1.16431 0.63758,-2.12326 0.5015,-5.36618 0.53755,-7.40917 -0.0808,-1.90057 -0.12376,-3.80313 -0.24254,-5.7017 -0.71182,-11.37816 -2.23988,-22.72342 -4.16759,-33.95408 -0.59314,-3.45556 -1.27113,-6.89602 -1.90669,-10.34403 -2.7096,-14.46018 -5.41208,-28.92539 -8.80516,-43.24462 -1.06176,-4.48078 -3.88622,-15.54726 -5.0357,-20.08023 -3.98205,-16.14544 -8.72285,-32.08414 -13.64197,-47.96395 -2.43855,-8.19123 -4.71196,-16.42997 -6.89201,-24.69334 -0.15204,-0.50452 -0.28746,-1.01434 -0.45611,-1.51354 -2.9332,-8.6823 -13.9885,0.86647 22.14988,-11.70697 0.88769,-0.30885 0.65792,1.761 0.96944,2.64776 1.04908,2.98625 2.06159,5.98525 3.10833,8.97232 3.54749,9.6093 6.89919,19.28953 10.59727,28.84286 1.21741,3.14496 5.57429,14.08684 6.78936,17.1442 5.0067,12.20687 9.75789,24.51603 14.72652,36.73803 3.67018,9.02806 3.6118,8.81109 7.35928,17.70169 5.62071,13.17108 11.98162,26.00528 18.65793,38.66809 1.63499,2.95665 3.19467,5.97607 5.16109,8.73389 0.4534,0.63586 1.47443,1.95469 2.16068,2.50972 0.22097,0.17872 0.5011,0.26828 0.75165,0.40242 5.56635,-6.57078 -0.42959,0.62161 -20.67646,10.8312 -0.40025,0.20184 0.66229,-0.65165 0.80659,-1.07605 0.27843,-0.8189 0.36108,-1.6968 0.42937,-2.55903 0.20338,-2.56777 -0.0324,-6.21145 -0.12782,-8.66372 -0.16603,-2.0054 -0.27469,-4.01638 -0.49809,-6.01619 -0.24854,-2.22482 -0.57143,-4.44125 -0.91719,-6.65304 -1.2317,-7.87886 -2.95657,-15.66116 -4.90566,-23.39126 -0.6947,-2.7552 -1.45421,-5.49366 -2.18131,-8.24048 -2.36449,-8.40041 -2.32584,-8.48211 -4.92317,-16.83023 -0.84898,-2.72871 -1.76384,-5.43672 -2.60481,-8.16791 -2.46474,-8.00469 -4.70406,-16.0809 -7.00015,-24.13492 -3.22992,-11.34212 -6.5538,-22.66736 -10.41987,-33.81138 -0.8478,-2.27737 -1.6254,-4.58986 -2.62767,-6.807 -0.15912,-0.35199 -0.32024,-0.70482 -0.51811,-1.03657 -0.0918,-0.15395 -0.50199,-0.32387 -0.34581,-0.41185 7.24204,-4.07932 14.65375,-7.8498 21.98062,-11.7747 0.0393,0.42237 0.0312,0.85187 0.11792,1.26711 0.17373,0.83207 1.48287,5.10779 1.57987,5.40237 0.77368,2.34942 2.36827,6.68032 3.2526,8.81916 0.74069,1.79142 1.56489,3.54716 2.34733,5.32074 0.93209,1.97744 1.82894,3.97188 2.79626,5.93232 1.82684,3.70237 4.88177,9.40924 6.80122,13.01586 3.78856,7.11865 7.66858,14.18004 11.59236,21.2249 1.33366,2.38265 2.64451,4.77822 4.00098,7.14797 1.31034,2.28915 2.67477,4.54695 3.99907,6.82806 1.28235,2.20885 2.55061,4.42586 3.8208,6.64172 0.54749,0.95509 6.28209,11.0093 6.95677,12.16681 1.05296,1.80653 2.136,3.59535 3.204,5.39303 2.57955,4.21485 5.22624,8.38821 8.0665,12.43297 1.15507,1.64491 2.29922,3.22763 3.56446,4.7844 0.40661,0.50029 0.84214,0.97637 1.2632,1.46456 0.31997,0.29356 0.5879,0.65668 0.9599,0.88066 0.17151,0.10326 0.39858,0.0382 0.59787,0.0573 -7.2029,3.66222 -14.39261,7.3505 -21.60869,10.98666 -0.25463,0.12831 0.62519,-0.19238 0.72044,-0.46113 0.4711,-1.32906 0.0102,-4.0251 -0.10368,-5.17924 -0.24996,-1.33264 -0.45643,-2.67417 -0.74989,-3.99791 -0.19576,-0.88308 -2.34127,-9.22042 -2.48338,-9.76813 -1.50811,-5.81241 -3.00599,-11.62723 -4.5093,-17.44092 -0.84871,-3.21246 -2.40729,-9.14874 -3.28848,-12.3347 -0.56408,-2.03946 -1.17016,-4.06713 -1.73618,-6.10605 -1.68516,-6.07033 -3.29184,-12.1633 -4.88424,-18.25844 -2.00877,-7.64732 -4.18557,-15.27075 -7.10422,-22.62817 -0.35117,-0.88523 -0.73508,-1.75711 -1.10262,-2.63566 -0.7223,-1.54575 -1.42403,-3.12006 -2.35232,-4.55843 -0.14517,-0.22494 -0.28911,-0.45507 -0.47544,-0.6473 -0.0658,-0.0679 -0.34332,-0.0661 -0.26066,-0.1121 7.26983,-4.04362 14.61189,-7.95601 21.91783,-11.93401 0.0618,0.36115 0.0916,0.72922 0.18525,1.08344 0.31272,1.18295 1.124,3.37065 1.54647,4.38683 1.48721,3.57721 3.3577,6.9794 5.14208,10.41243 3.05537,5.67286 5.66067,11.56886 8.49825,17.34977 0.92383,1.88207 3.26864,6.52317 4.22764,8.42621 2.13285,4.06153 4.19717,8.17595 6.7475,11.99833 0.82956,1.24332 1.1385,1.61536 1.98465,2.71986 0,0 -21.08635,12.20143 -21.08635,12.20143 l 0,0 c -2.3428,-5.29923 -4.67494,-10.60369 -7.08048,-15.87467 -3.01572,-6.33491 -0.97624,-2.07145 -4.08767,-8.52215 -2.77434,-5.75185 -5.4798,-11.5485 -8.71659,-17.06113 -2.03404,-3.34652 -4.11466,-6.66574 -6.13717,-10.0191 -0.8387,-1.39057 -1.52202,-2.6506 -2.3996,-3.99555 -0.24268,-0.37192 -0.51237,-0.7255 -0.76855,-1.08825 7.23271,-4.21658 14.39555,-8.55538 21.69815,-12.64974 0.13052,-0.0732 0.0344,0.29845 0.0738,0.44282 0.0799,0.29307 0.1867,0.57813 0.28305,0.86621 0.58083,1.7365 1.13277,3.48145 1.57974,5.25873 2.34341,8.75453 4.41986,17.57651 6.50406,26.39559 1.00074,4.05902 1.96459,8.05048 3.04284,12.09054 2.19402,8.22076 4.6172,16.3793 6.82942,24.59509 1.59574,5.72673 3.16679,11.4637 4.97418,17.12861 0.73722,2.31067 2.36683,7.05511 3.19793,9.43927 0.44779,1.28458 0.90638,2.56538 1.35958,3.84808 0.62777,2.11972 0.99945,3.25606 1.49563,5.32006 0.15526,0.64585 0.98437,1.5983 0.41967,1.94806 -8.31708,5.15133 -17.85682,18.61272 -23.03983,10.84453 -0.26401,-0.39569 -0.48796,-0.81668 -0.73195,-1.22502 -3.6251,-6.70139 -6.95415,-13.56009 -10.64907,-20.22495 -0.98707,-1.85597 -1.98662,-3.70536 -2.96123,-5.5679 -3.23946,-6.19082 -3.08296,-6.12002 -6.4597,-12.42067 -3.74367,-6.98531 -7.66672,-13.87351 -11.55919,-20.77621 -5.924,-10.65166 -1.95897,-3.59801 -8.01838,-14.18995 -0.82134,-1.43571 -6.74172,-11.83439 -7.64461,-13.40189 -1.19648,-2.07719 -2.42441,-4.1362 -3.61505,-6.21675 -1.09225,-1.90864 -2.15563,-3.83367 -3.23345,-5.75051 -0.90304,-1.72291 -1.8,-3.44903 -2.70914,-5.16875 -0.81198,-1.53594 -1.65334,-3.05635 -2.45416,-4.59814 -1.70153,-3.27591 -3.20336,-6.68523 -5.36573,-9.69878 7.27849,-4.0936 14.46029,-8.36405 21.83546,-12.28079 0.1966,-0.10441 0.005,0.4462 0.0331,0.667 0.0543,0.42336 0.13959,0.84218 0.21422,1.26242 0.44512,2.5064 0.9644,4.99851 1.45539,7.49612 2.4347,11.74609 5.15003,23.43671 8.14745,35.05185 1.55745,5.98916 2.5685,10.01753 4.27213,15.99221 3.17597,11.13819 6.78962,22.14552 10.02982,33.26447 3.05795,10.93433 1.5638,5.43342 4.42438,16.28406 0.68239,2.58842 1.39291,5.16958 2.04757,7.76515 1.62346,6.43662 3.00436,12.92723 4.2026,19.45594 0.70403,3.63824 1.45451,7.26203 1.85349,10.94962 0.0737,0.68117 0.74756,1.66956 0.17632,2.04787 -20.97008,13.88757 -15.5792,17.71866 -23.05805,11.75424 -0.2513,-0.31644 -0.52758,-0.61455 -0.7539,-0.94931 -0.62829,-0.92931 -1.25172,-2.20532 -1.7063,-3.19532 -1.44499,-3.14691 -2.61814,-6.40885 -3.90795,-9.61968 -3.15864,-7.98124 -6.36106,-15.94522 -9.65187,-23.87305 -1.09,-2.62591 -2.21661,-5.23659 -3.29745,-7.86628 -1.14007,-2.77382 -2.24341,-5.56258 -3.36511,-8.34388 -2.38092,-5.94911 -4.78883,-11.88746 -7.14938,-17.84469 -1.21196,-3.05857 -2.38741,-6.13151 -3.59821,-9.19054 -3.63824,-9.19187 -7.39981,-18.33416 -11.40459,-27.37335 -4.72361,-11.30138 -2.41764,-5.84029 -7.15307,-16.95065 -3.9743,-9.32461 -7.768,-18.74488 -12.45668,-27.74336 -1.50164,-2.89427 -2.59752,-5.29425 -4.45207,-7.92477 -0.44828,-0.63585 -2.15638,-1.31016 -1.52594,-1.76602 6.61909,-4.7861 14.12895,-8.20182 21.13013,-12.40929 0.21465,-0.129 -0.63272,-0.0755 -0.7356,0.15287 -0.22716,0.50418 -0.0533,1.10471 -0.0799,1.65706 0.73618,8.6969 2.34596,17.29588 4.41529,25.77041 2.46655,10.11466 5.01995,20.20894 7.41535,30.34089 0.71509,3.02463 1.39542,6.05739 2.10042,9.08438 0.74733,3.2087 1.50439,6.41512 2.25658,9.62268 2.40244,10.33234 4.80542,20.66623 6.98952,31.04762 0.76266,3.62505 1.46475,7.26261 2.21108,10.89106 1.84062,8.94862 2.64086,12.63912 4.53133,21.52781 1.7335,7.87653 2.66362,11.99297 4.29254,19.8139 1.80444,8.66367 1.66525,8.22665 3.27093,16.54643 2.12004,10.9849 0.49726,2.39358 2.30916,12.06465 0.0661,0.39829 1.03848,6.22154 1.1751,7.17003 0.10077,0.69964 0.84171,1.71646 0.25161,2.1056 -2.01131,1.32633 -16.97698,18.71039 -23.00507,11.58988 -0.25132,-0.29687 -0.43995,-0.64157 -0.65993,-0.96235 -2.94849,-5.42907 -4.98964,-11.28659 -7.45847,-16.93711 -1.713,-4.02084 -3.23002,-7.63047 -5.0305,-11.63833 -4.78038,-10.6411 -9.97893,-21.09207 -15.16352,-31.53963 -1.52403,-2.96722 -3.02658,-5.94556 -4.57209,-8.90164 -8.08245,-15.45918 -16.74922,-30.6085 -24.66504,-46.15605 -1.57869,-2.9692 -3.17362,-5.92982 -4.73607,-8.9076 -6.60814,-12.59415 -12.90523,-25.34616 -19.387507,-38.00463 -2.768354,-5.38186 -2.568881,-5.12935 -5.334576,-10.03978 -0.606373,-1.0766 -1.204907,-2.15857 -1.855521,-3.20903 -0.409386,-0.66097 -1.939898,-1.44942 -1.322159,-1.92153 6.519555,-4.98259 13.807563,-8.87836 20.885453,-13.02978 0.22459,-0.13173 -0.002,0.52075 -0.002,0.78112 0.8644,5.67229 2.10126,11.282 3.25965,16.89896 3.15689,14.43946 6.57334,28.83212 10.86413,42.98287 8.02276,26.94784 -2.71552,-9.09449 5.57588,18.64574 3.99683,13.37204 7.93435,26.7633 12.35874,40.00278 1.08401,3.32656 2.13519,6.66401 3.25204,9.97969 2.07898,6.17203 4.53533,12.90789 6.70643,19.05589 3.06727,8.68569 3.24781,9.26947 6.19082,17.87273 0.94289,2.75635 1.88459,5.51311 2.82689,8.26966 0.83856,2.53306 1.6958,5.06001 2.51568,7.59918 1.11668,3.45839 2.79223,8.91575 3.86359,12.50029 0.52985,1.77278 1.90743,6.4105 2.38854,8.44506 0.20777,0.8786 0.33713,1.774 0.50569,2.661 -7.28192,4.3768 -14.34792,9.1348 -21.84576,13.1305 -0.40331,0.215 -0.68893,-0.6099 -0.96405,-0.9748 -0.34717,-0.4605 -0.61125,-0.9788 -0.88961,-1.4838 -1.65002,-2.9938 -3.07462,-6.1121 -4.61704,-9.1602 -2.18835,-4.5806 -3.02079,-6.28982 -5.24049,-11.09048 -5.15619,-11.1516 -10.14027,-22.38499 -15.56088,-33.41259 -1.53609,-3.19726 -3.08834,-6.38682 -4.60829,-9.59179 -1.53488,-3.23647 -3.02141,-6.49572 -4.55609,-9.73229 -1.55095,-3.27088 -3.13578,-6.52559 -4.70067,-9.78982 -4.58288,-9.55946 -9.16395,-19.12142 -14.124455,-28.49347 -2.924371,-5.81882 -5.874848,-11.62454 -8.785955,-17.45002 -1.346491,-2.69449 -2.658303,-5.40623 -4.007109,-8.09956 -3.415445,-6.82005 -6.969728,-13.56635 -10.548296,-20.30179 -0.852217,-1.59635 -1.709062,-3.19024 -2.556649,-4.78905 -0.656191,-1.23778 -1.285996,-2.4896 -1.954661,-3.72069 -0.474173,-0.873 -0.95958,-1.74045 -1.473388,-2.59073 -0.33986,-0.56242 -1.617024,-1.25769 -1.08626,-1.64513 6.770113,-4.94197 14.143694,-9.00982 21.409008,-13.18986 0.218492,-0.12571 0.244618,0.44082 0.366928,0.66124 1.73158,4.02853 3.233013,8.15054 4.750702,12.26291 1.539494,4.41908 1.79184,5.05114 3.277291,9.73604 3.086021,9.73288 5.736664,19.59666 8.749244,29.35199 5.90778,19.1223 11.86681,38.23838 18.74806,57.03836 1.11495,2.96989 2.18107,5.95857 3.34485,8.90968 1.08988,2.76369 2.22766,5.50903 3.41512,8.23222 2.04793,4.6965 4.25037,9.167 6.49163,13.76565 0.84641,1.73668 1.6775,3.48107 2.5505,5.20455 0.67778,1.33807 1.40086,2.65271 2.10129,3.97906 5.48689,9.83003 2.92494,3.18534 -19.34871,16.80421 -0.34974,0.21385 -0.45805,-0.6805 -0.66773,-1.03276 -0.63172,-1.06122 -1.13613,-2.19608 -1.85154,-3.20924 -0.49804,-0.83133 -1.00253,-1.65877 -1.5038,-2.48816 -5.88908,-9.54274 -12.15332,-18.85127 -18.607318,-28.01999 -8.856338,-13.09009 -17.656371,-26.21825 -26.557189,-39.27819 -6.73858,-9.95502 -13.276996,-20.06037 -20.543907,-29.64454 -0.661714,-0.7417 -1.29376,-1.51098 -1.985142,-2.2251 -0.421013,-0.43486 -1.846266,-0.87427 -1.347491,-1.21717 6.807836,-4.68026 14.248172,-8.36634 21.372258,-12.54951 -0.111729,0.0813 -0.306146,0.10873 -0.335187,0.2438 -0.106465,0.49515 0.262333,2.57215 0.296348,2.80187 1.30501,7.59289 2.91105,15.13308 4.568147,22.65559 1.355835,5.58764 1.523837,6.47947 3.101246,12.13615 2.641439,9.47234 5.688709,18.82723 8.764945,28.16509 2.070107,5.98733 2.877839,8.52485 5.189005,14.41081 3.496063,8.90359 7.514451,17.59408 11.016245,26.4956 0.78823,1.8994 1.57394,3.79984 2.36469,5.69819 0.73375,1.76151 1.49846,3.5103 2.2088,5.28139 2.14671,5.35243 4.03299,10.83693 5.06353,16.52483 0.013,0.2009 0.49915,4.391 -0.1954,4.8446 -7.13314,4.6586 -14.652437,8.7174 -22.222487,12.6262 -0.48579,0.2508 -1.091673,-0.1426 -1.608457,-0.3211 -1.361991,-0.4703 -2.320166,-1.2658 -3.497915,-2.0771 -2.048692,-1.7502 -2.439904,-1.9864 -4.359269,-4.0748 -4.140607,-4.5052 -7.545532,-9.6208 -10.978789,-14.664 -2.221698,-3.4096 -4.250702,-6.4866 -6.405835,-9.94855 -1.127095,-1.81055 -2.219342,-3.64256 -3.328523,-5.46413 -1.166541,-1.91578 -2.357638,-3.81684 -3.498642,-5.74793 -2.398249,-4.05893 -4.405951,-7.74466 -6.693697,-11.86852 -1.455285,-2.64264 -5.201969,-9.38495 -6.550373,-12.07927 -0.974257,-1.94672 -1.847536,-3.94239 -2.758988,-5.91929 -0.890606,-1.93169 -1.798008,-3.85611 -2.64714,-5.80638 -1.542553,-3.54292 -2.821378,-6.9038 -4.227197,-10.49494 -0.06667,-0.19199 -2.744137,-7.8972 -2.911531,-8.39711 -0.953274,-2.84692 -1.769794,-5.74461 -2.852777,-8.54656 0,0 22.013535,-11.73536 22.013535,-11.73536 z"
       inkscape:connector-curvature="0" />
  </g>
</svg>
