<?xml version="1.0" encoding="UTF-8" standalone="no"?>
<!-- Created with Inkscape (http://www.inkscape.org/) -->

<svg
   xmlns:dc="http://purl.org/dc/elements/1.1/"
   xmlns:cc="http://creativecommons.org/ns#"
   xmlns:rdf="http://www.w3.org/1999/02/22-rdf-syntax-ns#"
   xmlns:svg="http://www.w3.org/2000/svg"
   xmlns="http://www.w3.org/2000/svg"
   xmlns:sodipodi="http://sodipodi.sourceforge.net/DTD/sodipodi-0.dtd"
   xmlns:inkscape="http://www.inkscape.org/namespaces/inkscape"
   width="1200"
   height="500"
   viewBox="0 0 1200 500.00001"
   id="svg2"
   version="1.1"
   inkscape:version="0.91 r13725"
   sodipodi:docname="constructfairness.svg">
  <defs
     id="defs4" />
  <sodipodi:namedview
     id="base"
     pagecolor="#ffffff"
     bordercolor="#666666"
     borderopacity="1.0"
     inkscape:pageopacity="0.0"
     inkscape:pageshadow="2"
     inkscape:zoom="4.0466667"
     inkscape:cx="419.16298"
     inkscape:cy="277.95809"
     inkscape:document-units="px"
     inkscape:current-layer="layer1"
     showgrid="false"
     units="px"
     inkscape:window-width="3090"
     inkscape:window-height="1752"
     inkscape:window-x="110"
     inkscape:window-y="48"
     inkscape:window-maximized="1" />
  <metadata
     id="metadata7">
    <rdf:RDF>
      <cc:Work
         rdf:about="">
        <dc:format>image/svg+xml</dc:format>
        <dc:type
           rdf:resource="http://purl.org/dc/dcmitype/StillImage" />
        <dc:title></dc:title>
      </cc:Work>
    </rdf:RDF>
  </metadata>
  <g
     inkscape:label="Layer 1"
     inkscape:groupmode="layer"
     id="layer1"
     transform="translate(0,-552.36215)">
    <circle
       style="fill:#000000"
       id="path3338"
       cx="596.9975"
       cy="719.51691"
       r="7.5761442" />
    <circle
       style="fill:#000000"
       id="path3338-3"
       cx="600.53302"
       cy="804.36969"
       r="7.5761442" />
    <path
       style="fill:#000000"
       id="path3379"
       d="m 960.18362,657.32365 c 1.3156,7.68706 -2.06783,15.00436 -5.01722,21.8995 -4.07162,8.83971 -9.61772,16.85682 -15.21932,24.77147 -5.86601,8.24004 -2.95391,4.13363 -8.73673,12.31894 -7.39182,10.44858 -14.79877,20.89208 -21.65368,31.70356 -3.50914,5.77319 -6.86106,11.66763 -9.52535,17.88632 -1.69715,3.96129 -1.89484,4.80792 -3.2338,8.79892 -1.06975,4.16382 -2.70842,8.61719 -1.90787,12.99622 0.4307,2.35591 0.91783,2.72928 2.14956,4.73063 0.68562,0.70224 1.31999,1.45846 2.05686,2.1067 5.06693,4.45751 11.60685,6.81148 17.80449,9.179 7.82383,2.74274 15.90365,4.8501 24.06275,6.33758 1.60195,0.29204 3.21734,0.5048 4.826,0.7572 4.13677,0.2936 6.10916,0.59227 10.30572,0.22546 6.41711,-0.56089 12.81755,-2.36081 18.81511,-4.64936 2.30063,-0.87787 4.52418,-1.94577 6.78628,-2.91865 2.25605,-1.29283 4.63003,-2.39875 6.76815,-3.8785 0.26125,-0.18081 -1.1722,0.0628 -0.94053,-0.15468 2.05215,-1.92608 4.49255,-3.39534 6.64937,-5.20344 4.28217,-3.58979 8.61209,-7.74891 12.46919,-11.79109 1.8918,-1.98264 3.6835,-4.05844 5.5253,-6.08766 6.7366,-7.51877 12.816,-15.60611 18.4248,-23.99389 1.222,-1.8275 2.4397,-3.65937 3.5841,-5.53645 1.0722,-1.75865 2.0421,-3.57766 3.0632,-5.36649 4.1084,-7.96885 7.3086,-16.41443 9.5926,-25.08519 0.4083,-1.54993 0.7383,-3.11944 1.1074,-4.67917 1.2454,-6.48477 1.8659,-13.16963 1.115,-19.75837 -0.1263,-1.10812 -0.3387,-2.20471 -0.5081,-3.30706 -0.9189,-4.5051 -2.4374,-8.90368 -4.753,-12.89135 -1.4011,-2.41288 -2.3867,-3.56841 -4.0655,-5.77624 -4.6762,-5.58511 -10.0952,-10.47112 -15.6804,-15.12145 -4.6989,-3.61972 -9.3566,-7.45346 -14.65,-10.19708 -0.9216,-0.47765 -1.8778,-0.88518 -2.8167,-1.32777 -5.7219,-2.4021 -11.82736,-3.65074 -17.942,-4.54446 -3.36331,-0.43861 -6.78489,-0.59626 -10.16379,-0.21785 -1.72948,0.19369 -2.71543,0.4449 -4.40235,0.80323 -0.65758,0.21785 -1.32883,0.39809 -1.97273,0.65355 -0.62757,0.24898 -1.22342,0.57146 -1.83513,0.85718 2.22823,-1.25495 4.40304,-2.60986 6.68467,-3.76487 0.62643,-0.31711 -1.15542,0.80035 -1.70114,1.24212 -1.47945,1.19763 -1.86336,1.70061 -3.16884,3.08805 -2.68792,3.06376 -4.70055,6.61771 -6.49063,10.25698 -1.95588,4.42365 -2.7444,9.20148 -3.25839,13.97438 -0.14909,1.48505 -0.2109,2.97587 -0.25979,4.46673 0,0 -8.88688,4.47538 -8.88688,4.47538 l 0,0 c 0.0936,-1.52747 0.19517,-3.05456 0.34416,-4.57787 0.54525,-4.85226 1.30524,-9.71627 3.12786,-14.27746 1.72915,-3.73207 3.73258,-7.35161 6.38082,-10.52165 1.31158,-1.49446 1.60576,-1.92395 3.08745,-3.24127 4.48121,-3.98409 9.9994,-6.97394 15.77516,-8.55523 1.83231,-0.33816 2.57909,-0.52093 4.46051,-0.68025 3.41359,-0.28907 6.85236,-0.0679 10.23596,0.42147 6.16118,0.9964 12.32388,2.29575 18.07098,4.80166 0.9533,0.46321 1.9259,0.88874 2.8599,1.38962 5.2848,2.83399 9.9046,6.77217 14.6473,10.39204 5.6525,4.6873 11.1571,9.6017 15.8417,15.28203 1.7012,2.26142 2.7065,3.46104 4.1394,5.9237 2.369,4.0716 3.9769,8.545 4.9288,13.14843 0.1793,1.12609 0.4051,2.24574 0.5378,3.37825 0.7852,6.69872 0.062,13.50436 -1.1476,20.10144 -0.3655,1.57613 -0.6884,3.16276 -1.0965,4.7284 -2.2852,8.76601 -5.5662,17.27953 -9.6544,25.35689 -1.0303,1.81247 -2.005,3.65766 -3.0909,5.4374 -1.1571,1.89659 -2.3974,3.74158 -3.635,5.58667 -5.6542,8.42954 -11.7318,16.59762 -18.5106,24.16124 -1.8478,2.04743 -3.6469,4.13991 -5.5435,6.14228 -3.7639,3.97384 -8.2493,8.33715 -12.4169,11.88546 -2.1407,1.82268 -4.27966,3.66481 -6.60223,5.24933 -4.72724,3.22503 -9.62827,6.18994 -14.51947,9.16041 -2.24258,1.36194 -4.58339,2.55513 -6.87509,3.83269 -2.28775,0.96053 -4.53853,2.01435 -6.86326,2.88158 -6.12928,2.28648 -12.62136,4.06037 -19.16627,4.56676 -4.29388,0.33222 -6.23105,0.0138 -10.45339,-0.32768 -1.61417,-0.26681 -3.23497,-0.49625 -4.84251,-0.80044 -8.19278,-1.55029 -16.31459,-3.65208 -24.17117,-6.44363 -6.34922,-2.41775 -13.04973,-4.81552 -18.21702,-9.4101 -0.78757,-0.70029 -1.46657,-1.5139 -2.19985,-2.27084 -1.32718,-2.16225 -1.87013,-2.61013 -2.36593,-5.14156 -0.88765,-4.5321 0.79284,-9.13283 1.93835,-13.43842 1.35672,-4.03799 1.56754,-4.90654 3.2592,-8.91774 2.64756,-6.2778 5.96201,-12.24446 9.53753,-18.03561 6.91739,-10.86308 14.38061,-21.35937 21.85724,-31.84241 9.41512,-13.3033 -0.79433,1.10815 8.75403,-12.32588 5.55985,-7.82241 11.08345,-15.73399 15.0874,-24.49921 2.34417,-5.49601 4.98135,-11.20252 5.13043,-17.2974 0.0376,-1.53658 -0.17118,-2.34557 -0.43251,-3.76215 0,0 8.80144,-4.73898 8.80144,-4.73898 z"
       inkscape:connector-curvature="0" />
    <path
       style="fill:#000000"
       id="path3383"
       d="m 988.02791,683.36164 c -3.01814,5.35562 -6.24962,10.58563 -9.39509,15.86689 -5.75117,9.48076 -10.62143,19.44857 -15.71961,29.28493 -5.56515,10.90167 -11.22022,21.75721 -16.38464,32.85601 -4.43066,9.81511 -8.35203,19.85065 -11.71302,30.07978 -2.00365,6.31812 -3.66114,12.74843 -4.25762,19.35967 -0.23665,4.90433 0.64724,9.76349 1.32916,14.60036 0.79699,5.47005 1.71429,10.92087 2.67566,16.36403 0.6554,3.40732 1.43551,6.82293 2.72535,10.05549 0.68791,1.72402 1.08898,2.34857 1.96976,3.96823 2.08685,3.47818 5.04463,6.35394 8.40869,8.60224 0.72602,0.48522 1.49416,0.90425 2.24125,1.35638 2.12668,1.00104 2.84259,1.47907 5.18652,1.99459 5.09084,1.11969 10.24523,0.27673 15.30292,-0.53254 4.84227,-1.01836 9.61465,-2.40888 14.14122,-4.42943 1.57905,-0.70485 3.00051,-1.76789 4.63764,-2.32468 1.30967,-0.44542 -4.4821,3.08689 -3.64363,1.98662 1.0571,-1.38717 2.89853,-1.94044 4.3478,-2.91066 7.67032,-5.38392 14.40873,-11.94602 20.54413,-19.00326 1.1998,-1.38004 2.3468,-2.80508 3.5202,-4.20761 5.5881,-6.9927 10.6378,-14.43455 14.8091,-22.3625 0.7893,-1.50022 1.5099,-3.03563 2.2649,-4.55345 3.2876,-7.16405 6.0751,-14.59196 7.9734,-22.25174 0.3329,-1.34322 0.5987,-2.70219 0.8981,-4.05328 1.4082,-7.20396 1.7977,-14.54142 1.6434,-21.86391 -0.2714,-7.38252 -1.2377,-14.71207 -2.1848,-22.03094 -0.8451,-7.11826 -1.8929,-14.20696 -3.0696,-21.27706 -0.9614,-6.03009 -2.1484,-12.01956 -3.3507,-18.00515 -1.0286,-4.54495 -2.2173,-9.05956 -3.8605,-13.42307 -1.335,-3.23537 -3.0374,-6.30295 -5.0263,-9.17841 -1.7345,-2.51119 -3.6937,-4.37126 -6.2122,-6.06347 -2.1801,-1.45591 -4.6772,-1.98821 -7.2386,-2.25529 -1.6172,-0.11751 -3.256,-0.21319 -4.8595,0.10418 -1.0913,0.21599 -1.5171,0.42495 -2.5692,0.81697 -0.4752,0.2068 -0.9536,0.40625 -1.4255,0.62041 -0.5217,0.23674 -1.046,0.46906 -1.5549,0.73214 -0.54419,0.28134 -2.13424,1.20422 -1.60242,0.90008 2.24022,-1.28114 4.45422,-2.60994 6.72772,-3.83113 0.6098,-0.32752 -1.1562,0.76113 -1.7308,1.14707 -0.5685,0.38188 -1.1322,0.77091 -1.6982,1.15636 -2.86016,1.99201 -5.84901,3.90966 -8.29537,6.42286 -0.65884,0.67683 -1.25375,1.41308 -1.88063,2.11962 -2.16269,2.76232 -1.14502,1.41254 -3.0633,4.04157 0,0 -8.98692,3.88649 -8.98692,3.88649 l 0,0 c 1.95866,-2.68092 0.93073,-1.30245 3.08982,-4.13091 0.59389,-0.73079 1.15091,-1.49316 1.78166,-2.19239 2.35194,-2.60727 5.34322,-4.56473 8.20133,-6.55565 5.79393,-3.94176 11.71671,-7.84802 18.26711,-10.40079 2.665,-0.79576 4.9517,-0.95229 7.7118,-0.57981 2.6714,0.38112 5.2398,1.09968 7.4857,2.66304 2.4934,1.7562 4.668,3.84248 6.3809,6.38583 2.0131,2.95623 3.738,6.10092 5.0982,9.41273 1.6557,4.42597 2.8101,9.01127 3.8256,13.62294 1.185,6.00197 2.4023,11.99943 3.3455,18.04553 1.1435,7.09398 2.1094,14.21275 3.0175,21.34056 0.9615,7.34368 1.9114,14.69957 2.2689,22.10273 0.1849,7.40736 -0.2426,14.82123 -1.6298,22.1141 -0.2989,1.36866 -0.5615,2.74573 -0.8966,4.10599 -1.9031,7.7263 -4.7336,15.20985 -7.9871,22.45881 -0.7522,1.53256 -1.4679,3.08357 -2.2566,4.59767 -4.1584,7.98321 -9.2069,15.48135 -14.7761,22.54256 -7.1505,8.61138 -14.7399,16.94626 -23.9318,23.44193 -7.23397,4.95159 -5.76891,4.10305 -16.83363,10.24233 -1.51702,0.84172 -3.09477,1.57434 -4.68867,2.25942 -4.60446,1.97905 -9.44003,3.35435 -14.34832,4.3309 -5.21631,0.77818 -10.50213,1.55393 -15.71957,0.28254 -2.37035,-0.5776 -3.19878,-1.12174 -5.34483,-2.17148 -0.76261,-0.4757 -1.54575,-0.91996 -2.28783,-1.42709 -3.45874,-2.36363 -6.51501,-5.3349 -8.67576,-8.93923 -0.94238,-1.74239 -1.28963,-2.26075 -2.02199,-4.11854 -1.29639,-3.28861 -2.08171,-6.75816 -2.75937,-10.21682 -0.96559,-5.44951 -1.88946,-10.90675 -2.71498,-16.37943 -0.71295,-4.90114 -1.62934,-9.82429 -1.44109,-14.79672 0.0748,-0.84837 0.1198,-1.69989 0.22435,-2.5451 0.72387,-5.85236 2.50525,-11.51263 4.19335,-17.13863 3.42273,-10.28251 7.37815,-20.37663 11.83802,-30.25581 5.12374,-11.12484 10.81982,-21.96439 16.35538,-32.8879 5.07149,-9.80524 9.85965,-19.76924 15.52549,-29.25349 3.01838,-5.20131 6.18143,-10.32403 8.94977,-15.66526 0,0 9.12979,-4.05995 9.12979,-4.05995 z"
       inkscape:connector-curvature="0" />
    <path
       style="fill:#999999"
       id="path3387"
       d="m 898.27432,649.17397 c -4.38844,8.0962 -8.85339,16.16113 -12.80002,24.4865 -1.10002,2.32049 -2.12917,4.67394 -3.19375,7.0109 -6.48422,15.32349 -10.7055,31.3915 -14.50098,47.54927 -3.23968,14.46455 -5.15195,29.18504 -6.16886,43.96463 -0.20435,2.96997 -0.32397,5.94517 -0.48595,8.91775 -0.47601,11.29082 -0.35481,22.61813 0.76539,33.87013 0.69116,6.94248 1.17852,9.40539 2.25889,16.25759 2.21171,12.79101 5.19869,25.44057 9.4791,37.70508 0.8357,2.39451 1.7687,4.75395 2.65304,7.13092 3.70125,9.02756 7.79691,17.95597 13.02674,26.21734 3.28772,5.1935 4.47148,6.44918 8.2251,11.21176 6.6637,8.03987 14.38251,15.21739 22.98576,21.15083 1.64356,1.13351 3.35841,2.16001 5.03761,3.24001 6.63018,3.90186 13.73206,7.07311 21.29375,8.65395 5.07934,1.06188 6.49986,0.94605 11.69715,1.24316 10.63364,0.13815 21.08148,-2.3776 30.8852,-6.3992 2.04664,-0.83955 4.02829,-1.82957 6.04243,-2.74435 2.04946,-1.13324 4.16897,-2.14815 6.14838,-3.39974 0.4931,-0.31178 -2.09267,0.94963 -1.65803,0.56048 1.87303,-1.67706 4.03663,-2.99819 6.05503,-4.49728 1.9976,-1.69343 4.0442,-3.33073 5.9929,-5.0803 4.7859,-4.29691 6.9728,-6.71146 11.4455,-11.32371 11.0878,-11.89256 19.8536,-25.65719 28.2153,-39.53018 8.4823,-14.26346 15.5578,-29.29073 22.4677,-44.3588 4.7011,-10.12967 8.7756,-20.53857 12.3371,-31.12061 1.6406,-4.87469 3.5309,-11.05186 5.0595,-15.96647 4.0496,-12.95979 7.826,-26.01902 10.7266,-39.28967 0.5365,-2.45473 1.0086,-4.92311 1.5129,-7.38466 2.2167,-11.49207 3.5483,-23.16528 3.6791,-34.87474 0.025,-2.2272 -0.04,-4.4545 -0.061,-6.68176 -0.2831,-8.39234 -1.0269,-16.78231 -2.5919,-25.03894 -0.9136,-4.81972 -1.4945,-6.85028 -2.6794,-11.57729 -2.0581,-7.18186 -3.7961,-14.4899 -6.5349,-21.45794 -1.8289,-4.65306 -2.4266,-5.52695 -4.7208,-9.95645 -3.6962,-6.41337 -7.9274,-12.57645 -13.2031,-17.80809 -3.3193,-3.2916 -4.8757,-4.31204 -8.5467,-7.14191 -7.3918,-5.4686 -15.6791,-9.59063 -24.2497,-12.86435 -1.8426,-0.70383 -3.7145,-1.32848 -5.5718,-1.99273 -7.4932,-2.4643 -15.1392,-4.49284 -22.9122,-5.85777 -5.0894,-0.89368 -6.5362,-0.97277 -11.6932,-1.54886 -7.99828,-0.75845 -16.05276,-0.65532 -24.02622,0.3261 -5.03486,0.61972 -6.46017,0.99947 -11.42709,1.9893 -7.66574,1.8242 -15.27315,4.05855 -22.43725,7.38415 -4.34282,2.01596 -6.5548,3.40218 -10.70733,5.78159 0.99361,-0.50067 3.7341,-2.32088 2.98084,-1.50202 -1.24567,1.35416 -3.03871,2.07713 -4.51726,3.17226 -1.41953,1.0514 -2.82726,2.12216 -4.1741,3.2652 -2.8104,2.38515 -5.0254,4.63487 -7.44356,7.4123 -1.11267,1.27798 -2.14136,2.62673 -3.21204,3.9401 -6.55341,8.44433 -11.43888,17.97309 -16.24817,27.46993 -4.90054,9.98067 -9.56996,20.0804 -13.69163,30.40878 -1.94187,4.78679 -3.35566,9.75488 -4.65955,14.74461 0,0 -8.76409,4.17579 -8.76409,4.17579 l 0,0 c 1.4265,-5.03559 2.86031,-10.0828 4.82204,-14.94261 4.16277,-10.36434 8.95367,-20.45818 13.76917,-30.5324 4.7636,-9.53832 9.61081,-19.10688 16.09487,-27.62202 2.62273,-3.27178 3.79363,-4.89537 6.74642,-7.91323 7.33755,-7.49922 16.45612,-12.82409 25.53042,-17.92564 4.30391,-2.42254 6.28543,-3.66245 10.78666,-5.70004 7.22174,-3.26909 14.86788,-5.47655 22.57581,-7.25337 5.02878,-0.9643 6.37296,-1.32103 11.46589,-1.90165 8.01612,-0.91387 16.10867,-0.96415 24.13757,-0.16993 1.9862,0.22809 3.9776,0.41351 5.9584,0.68427 9.7923,1.33859 19.4013,3.78871 28.7737,6.89675 1.8713,0.67124 3.7578,1.30172 5.6141,2.0137 8.641,3.31427 17.0003,7.48573 24.4149,13.06185 3.6016,2.82344 5.3497,4.02529 8.6216,7.2815 5.3245,5.299 9.5842,11.54144 13.335,18.01684 2.268,4.37674 2.9771,5.47 4.7878,10.06644 2.7559,6.9956 4.4815,14.34504 6.5366,21.55994 1.1401,4.60142 1.7944,6.97441 2.6829,11.65899 1.5762,8.31012 2.3183,16.75326 2.5933,25.20051 0.023,2.23962 0.092,4.47923 0.07,6.71885 -0.1183,11.77169 -1.4683,23.51187 -3.702,35.06279 -1.3903,6.68601 -1.6943,8.42909 -3.3306,15.13591 -2.6007,10.65951 -5.7022,21.18887 -8.9627,31.66265 -1.2752,4.09677 -3.693,11.93751 -5.0489,15.99596 -3.5435,10.60608 -7.6085,21.04219 -12.2985,31.19533 -6.9045,15.09202 -13.9595,30.14975 -22.4212,44.44821 -8.3385,13.91688 -17.0622,27.73909 -28.106,39.70627 -5.5476,5.76815 -11.0883,11.46645 -17.3213,16.51262 -1.9522,1.58047 -3.9045,3.17533 -6.0077,4.54835 -4.5757,2.98703 -9.29542,5.74907 -14.00672,8.51722 -2.03761,1.19721 -4.15644,2.25047 -6.23465,3.3757 -2.03505,0.90195 -4.0385,1.87888 -6.10516,2.70585 -9.90581,3.96381 -20.45765,6.37057 -31.16012,6.13057 -5.25532,-0.35147 -6.70765,-0.24962 -11.83809,-1.37257 -7.616,-1.667 -14.74878,-4.95305 -21.42025,-8.91964 -1.68785,-1.09813 -3.41205,-2.14231 -5.06355,-3.29439 -8.62927,-6.01971 -16.3858,-13.26625 -23.03342,-21.41363 -3.74994,-4.83369 -4.92072,-6.10724 -8.23007,-11.35119 -5.24787,-8.31569 -9.38977,-17.27626 -13.07016,-26.37511 -2.46951,-6.64583 -2.96507,-7.69714 -5.06647,-14.48835 -3.09353,-9.99756 -5.2744,-20.24037 -7.09481,-30.53874 -0.97546,-6.25883 -1.64444,-9.99948 -2.28039,-16.32595 -1.13573,-11.29833 -1.21241,-22.68277 -0.73544,-34.01872 0.16453,-2.98257 0.29279,-5.96737 0.49359,-8.94772 0.99758,-14.80622 2.83233,-29.56709 6.06661,-44.06127 0.65204,-2.83369 1.26638,-5.67631 1.95611,-8.50106 3.24664,-13.29646 7.16254,-26.4741 12.34795,-39.15052 1.04374,-2.33801 2.05161,-4.69238 3.13124,-7.01404 3.80486,-8.18204 8.12339,-16.11124 12.11094,-24.20196 0,0 9.02377,-4.06391 9.02377,-4.06391 z"
       inkscape:connector-curvature="0" />
    <path
       style="fill:#999999"
       id="path3389"
       d="m 576.36791,607.72345 c -7.32661,4.43901 -13.59083,10.32255 -19.66938,16.29526 -6.67635,7.04453 -12.76865,14.66115 -17.88029,22.92363 -3.82158,6.17723 -5.7452,10.15574 -9.13139,16.63649 -8.12029,16.57904 -14.36364,34.01713 -19.09109,51.85166 -0.98851,3.72917 -1.83282,7.49508 -2.74922,11.24262 -4.58514,20.76763 -7.27025,41.9119 -9.2521,63.07154 -0.4357,4.6519 -0.79034,9.31103 -1.18552,13.96654 -1.31793,17.7475 -2.30702,35.56572 -1.79164,53.36968 0.28818,9.95533 0.68496,12.72265 1.56911,22.46294 1.66681,15.35508 5.03573,30.63408 11.78065,44.61468 1.19658,2.48023 2.61751,4.84581 3.92626,7.26871 1.4633,2.25336 2.83884,4.56621 4.38989,6.76009 1.55803,2.20375 3.23485,4.32257 4.93012,6.42257 3.19064,3.9524 6.76152,8.02269 10.43386,11.54413 4.74743,4.55237 6.18185,5.38737 11.38056,9.28647 2.01401,1.22199 3.95764,2.56831 6.04201,3.66598 6.31788,3.32712 13.29802,5.57924 20.33404,6.7509 6.4436,1.073 8.59877,0.86865 15.16299,0.99235 2.7114,-0.21521 5.43814,-0.28614 8.13421,-0.64564 6.04822,-0.80648 11.24574,-2.14122 17.06495,-3.96761 6.50085,-2.04033 11.51022,-3.95079 17.63936,-6.98622 3.07156,-1.52117 6.01886,-3.28133 9.0283,-4.92199 0.57295,-0.49293 1.12136,-1.01591 1.71885,-1.47878 8.52423,-6.60357 9.6626,-6.83704 17.52521,-14.34704 5.46503,-5.21995 11.72783,-12.13978 16.49481,-17.99785 2.60884,-3.20597 5.0273,-6.56227 7.54096,-9.8434 2.31297,-3.38829 4.71685,-6.71626 6.93891,-10.16485 9.03671,-14.02475 16.88249,-29.00779 22.90136,-44.57843 1.522,-3.93737 2.79392,-7.9669 4.19087,-11.95035 6.09976,-19.18512 9.531,-39.10407 11.11887,-59.14816 0.30824,-3.89097 0.47688,-7.79174 0.71532,-11.68761 0.77141,-18.84471 0.75914,-37.72853 10e-4,-56.57421 -0.14765,-3.67193 -0.3567,-7.34113 -0.53506,-11.0117 -0.92806,-16.70004 -3.54488,-33.30107 -8.23668,-49.36699 -0.85071,-2.91305 -1.84175,-5.78328 -2.76262,-8.67491 -3.58582,-10.75968 -8.48825,-21.01269 -14.35278,-30.70785 -3.35296,-5.54308 -4.60339,-7.18709 -8.23488,-12.44164 -5.35543,-7.14689 -11.35371,-13.83825 -18.1084,-19.69559 -3.99454,-3.46388 -5.47404,-4.38272 -9.73454,-7.44609 -6.14516,-4.12402 -12.76354,-7.47198 -19.89885,-9.49538 -4.55317,-1.29117 -5.81823,-1.34755 -10.46993,-2.07923 -7.16271,-0.87407 -14.36337,-0.26136 -21.29915,1.72175 -4.52236,1.29305 -6.14398,2.17493 -10.45442,4.05899 -1.72659,0.92545 -3.49129,1.78308 -5.17978,2.77635 -0.8246,0.48507 3.28105,-1.90449 2.58391,-1.24931 -1.70044,1.5981 -3.81559,2.69111 -5.65117,4.13197 -1.94412,1.52607 -3.84512,3.10999 -5.6817,4.76393 -5.54966,4.99779 -6.67212,6.51344 -11.78175,12.11467 -4.8784,6.00498 -6.49483,7.57326 -10.53183,14.26363 -1.59112,2.63692 -3.00739,5.37751 -4.3976,8.12567 -1.23952,2.45025 -2.32545,4.97522 -3.48818,7.46283 0,0 -8.20609,3.73608 -8.20609,3.73608 l 0,0 c 2.50441,-5.28193 4.93985,-10.70442 7.91662,-15.74585 4.0508,-6.86041 5.50511,-8.2245 10.4443,-14.37059 4.93254,-5.51431 6.21304,-7.22515 11.57671,-12.16067 2.49431,-2.29521 8.22201,-7.08729 11.15427,-8.96927 9.32368,-5.98412 10.92257,-6.69038 18.5851,-10.68332 4.42884,-1.86735 5.93483,-2.68002 10.57379,-3.93377 7.03177,-1.90045 14.31205,-2.41242 21.53326,-1.447 4.68039,0.78921 5.96759,0.86431 10.54591,2.20924 7.18401,2.11039 13.8162,5.56683 19.98502,9.78043 4.27311,3.11622 5.75272,4.04784 9.75438,7.56822 6.75575,5.94323 12.78566,12.68951 18.12153,19.92487 1.36125,2.00525 2.76332,3.98338 4.08375,6.01573 7.61088,11.71441 14.07055,24.17988 18.42187,37.48496 0.91966,2.90871 1.91212,5.79538 2.75897,8.7261 4.66777,16.15378 7.21536,32.85823 8.12726,49.63311 0.18076,3.67548 0.40045,7.34925 0.54228,11.02644 0.7283,18.88258 0.74847,37.8047 -0.0463,56.68416 -0.23239,3.90478 -0.38918,7.8148 -0.69718,11.71434 -1.5892,20.12092 -5.05095,40.1233 -11.14735,59.38647 -1.38453,3.99784 -2.63783,8.04358 -4.1536,11.99353 -1.50253,3.91545 -3.17491,7.76542 -4.8963,11.5897 -6.84638,15.21006 -15.15924,29.75427 -24.83884,43.33973 -2.50018,3.29368 -4.90373,6.663 -7.50055,9.88104 -4.47572,5.5464 -11.22738,13.09679 -16.35482,18.06409 -4.24803,4.11536 -12.43525,11.14791 -17.40229,14.44904 -5.4029,3.5908 -11.08593,6.74115 -16.6289,10.11173 -3.04482,1.63845 -6.02729,3.39848 -9.13447,4.91537 -6.04475,2.95097 -11.39024,4.97365 -17.80091,6.9477 -5.82206,1.7928 -11.19742,3.11748 -17.24488,3.8864 -2.72872,0.34695 -5.48654,0.40363 -8.22981,0.60545 -6.6027,-0.16357 -8.85242,0.0292 -15.33081,-1.09775 -7.09861,-1.23482 -14.15552,-3.58705 -20.51266,-6.99175 -2.09829,-1.12379 -4.05074,-2.50086 -6.07611,-3.75129 -5.14375,-3.92588 -6.70582,-4.88278 -11.4073,-9.44093 -3.68293,-3.57066 -7.22754,-7.66667 -10.43487,-11.65931 -1.7054,-2.12297 -3.40387,-4.25586 -4.97115,-6.48274 -1.56017,-2.21677 -2.93554,-4.558 -4.40331,-6.83699 -1.31015,-2.453 -2.73319,-4.84895 -3.93044,-7.35899 -6.73743,-14.12505 -10.10605,-29.50003 -11.65259,-45.00182 -0.85052,-10.27904 -1.14993,-12.10282 -1.393,-22.62995 -0.41229,-17.85567 0.59574,-35.71635 1.9138,-53.5152 0.37119,-4.64947 0.69593,-9.30288 1.11356,-13.94841 1.90158,-21.15271 4.51728,-42.29174 8.98191,-63.06913 0.90996,-3.75652 1.75001,-7.53067 2.72988,-11.26957 4.67349,-17.83273 10.84062,-35.27733 18.80544,-51.91229 3.06967,-5.98511 5.45379,-10.89486 8.91301,-16.6415 4.97946,-8.27217 10.96193,-15.89181 17.50951,-22.97192 2.79312,-2.80505 4.83323,-4.94327 7.75925,-7.55474 3.54396,-3.163 7.32748,-6.08776 11.26414,-8.7426 0,0 9.28227,-3.57178 9.28227,-3.57178 z"
       inkscape:connector-curvature="0" />
    <path
       style="fill:#ffeeaa"
       d="m 919.61689,804.50551 c -15.44009,-5.28336 -22.64645,-10.01828 -24.39342,-16.02765 -1.41361,-4.86266 1.67064,-16.33371 7.5414,-28.04824 5.25655,-10.4889 11.07865,-19.38952 31.86434,-48.71303 14.69642,-20.73303 17.99778,-26.06785 21.80092,-35.22907 l 1.72981,-4.16688 2.06314,-1.08435 2.06313,-1.08435 0,-1.60727 c 0,-3.45159 1.16996,-10.4975 2.30263,-13.86729 1.59419,-4.74285 5.64572,-11.40997 8.71989,-14.34929 0.85267,-0.81527 1.23859,-0.97695 3.11962,-1.30698 3.35413,-0.58849 5.67766,-0.69542 9.06775,-0.4173 8.50885,0.69807 17.2799,2.93325 23.3253,5.9441 9.131,4.54764 25.4319,18.33931 31.9735,27.05177 3.4257,4.56254 5.5659,8.95037 6.9665,14.28327 2.2405,8.53061 1.7768,20.3601 -1.2158,31.01068 -0.7145,2.54305 -0.5884,2.86899 -1.8079,-4.67196 -1.0713,-6.62391 -2.8613,-15.81477 -4.0331,-20.70813 -2.9685,-12.39586 -8.0008,-21.32017 -14.4572,-25.63846 -4.3269,-2.89402 -11.0483,-3.70678 -15.8123,-1.91203 -3.765,1.41843 -8.866,4.2704 -15.31893,8.56493 -8.12949,5.41028 -10.13927,7.17951 -13.76333,12.11598 -0.97227,1.32437 -1.93823,2.45636 -2.14657,2.51555 -0.20835,0.0592 -1.02338,1.30129 -1.81118,2.76023 -0.7878,1.45894 -3.22463,5.71001 -5.41517,9.44682 -5.18152,8.83904 -6.73949,11.65929 -11.14722,20.17872 -6.10027,11.79085 -19.86478,39.14345 -21.79481,43.31029 -6.06945,13.10363 -12.34048,29.68874 -14.91928,39.4573 -0.61933,2.34605 -0.95219,3.21335 -1.22835,3.2006 -0.20834,-0.01 -1.68136,-0.4632 -3.27337,-1.00796 z"
       id="path3397"
       inkscape:connector-curvature="0" />
    <path
       style="fill:#ffaaaa"
       d="m 955.87696,867.77742 c -4.13056,-0.7838 -8.78606,-3.44458 -12.56404,-7.18077 -4.42709,-4.37813 -6.6641,-9.12645 -8.39422,-17.81775 -1.21004,-6.07864 -3.53552,-20.93702 -4.08599,-26.10697 l -0.17204,-1.61576 0.84989,0.17439 c 3.0349,0.62272 6.91025,1.17044 10.08528,1.42539 8.6537,0.69491 18.62708,-1.32042 29.65548,-5.9925 3.99866,-1.694 7.72016,-3.72077 14.52094,-7.90827 10.5523,-6.49745 13.46298,-8.63966 20.58184,-15.14788 10.5633,-9.65717 21.5483,-22.50899 30.9228,-36.17796 1.59,-2.31847 2.9147,-4.19053 2.9437,-4.16013 0.029,0.0304 0.2622,1.93036 0.5182,4.22214 0.6668,5.96778 0.6686,20.60057 0,25.50635 -2.0802,15.33612 -8.2041,31.51904 -17.4002,45.98191 -10.1337,15.93745 -24.62574,31.18296 -36.14001,38.01901 -0.67222,0.39909 -1.63818,0.98067 -2.14658,1.29238 -1.41973,0.87049 -5.88082,2.53808 -9.38439,3.50797 -7.10819,1.96775 -15.45404,2.80194 -19.79377,1.97845 z"
       id="path3399"
       inkscape:connector-curvature="0" />
    <path
       style="fill:#ffccaa"
       d="m 948.52288,810.94333 c -2.98912,-0.28891 -5.96611,-0.732 -9.47018,-1.40954 -3.88907,-0.75199 -7.81738,-1.63095 -7.96964,-1.78322 -0.16785,-0.16785 1.12967,-6.54275 2.01626,-9.90619 2.25362,-8.54953 7.23006,-22.10652 12.47126,-33.97459 2.45545,-5.56007 9.3676,-19.55939 16.9599,-34.34926 10.26792,-20.00197 11.961,-23.10898 19.1971,-35.22907 2.32192,-3.88909 4.69825,-7.89497 5.28073,-8.90197 0.58249,-1.00699 1.15905,-1.8309 1.28124,-1.8309 0.12219,0 1.12337,-1.16483 2.22486,-2.58851 2.57959,-3.33415 5.25482,-5.86342 8.96223,-8.47323 3.42716,-2.41254 4.65926,-3.00061 6.97546,-3.32923 2.0564,-0.29177 5.9641,0.0706 8.1964,0.76011 4.7551,1.4687 9.3942,6.44905 13.0497,14.00967 3.9655,8.20157 7.0879,22.85221 11.2265,52.67529 0.097,0.70113 -0.093,1.35529 -0.846,2.90419 -2.3232,4.7805 -8.0583,13.77401 -13.6815,21.45456 -10.2849,14.04796 -23.5792,28.15795 -33.70096,35.76884 -2.72468,2.04878 -3.21328,2.51775 -3.10194,2.97732 0.10381,0.42851 -5.63432,3.53262 -9.85369,5.33047 -9.08222,3.86988 -16.79033,5.74435 -24.29323,5.90768 -2.15289,0.0469 -4.36891,0.0413 -4.9245,-0.0124 z"
       id="path3401"
       inkscape:connector-curvature="0" />
    <path
       style="fill:#e6e6e6"
       d="m 954.07872,947.45135 c -19.2908,-1.30446 -41.10901,-14.86581 -58.10273,-36.11442 -7.06301,-8.83144 -12.61834,-18.65113 -18.52997,-32.75392 -7.96116,-18.99216 -13.87499,-44.56932 -15.92648,-68.88162 -0.44768,-5.30546 -0.60363,-21.74267 -0.27314,-28.78935 1.32696,-28.29342 5.11453,-50.61539 13.19292,-77.75213 1.31525,-4.41818 4.62139,-14.32131 5.046,-15.11472 0.13317,-0.24882 1.48265,-1.07455 2.99885,-1.83495 2.68689,-1.34753 2.76382,-1.40982 3.03711,-2.45904 0.91571,-3.51566 2.69746,-9.21309 3.7517,-11.99673 5.88039,-15.52659 18.43974,-41.31913 25.35213,-52.06446 6.58893,-10.24251 14.02162,-18.16012 21.64967,-23.06214 1.18062,-0.7587 2.31537,-1.58297 2.52168,-1.8317 1.49195,-1.79877 12.17813,-6.64278 20.01629,-9.07333 11.41033,-3.53824 21.21628,-5.23702 32.38908,-5.61106 24.02197,-0.80421 55.96137,7.91997 74.49877,20.34917 10.5384,7.06595 16.9586,13.83272 23.7488,25.03074 4.4255,7.29828 7.0802,13.93919 10.5784,26.46202 5.5215,19.76562 6.8938,28.53293 7.147,45.65851 0.2204,14.91231 -0.787,25.65234 -3.8813,41.37849 -2.5719,13.07169 -5.5967,24.53438 -11.8343,44.84735 -6.4172,20.89805 -10.7588,32.59393 -17.7809,47.90025 -12.1663,26.51967 -19.6619,40.48751 -31.2019,58.14394 -8.188,12.52791 -14.6713,20.60072 -24.2474,30.19197 -5.3626,5.37118 -9.3427,8.91363 -13.2638,11.80558 -4.3499,3.20809 -5.04651,3.76703 -4.93,3.95563 0.2569,0.41555 -8.03477,4.48449 -12.87398,6.31762 -11.75279,4.45204 -21.80037,6.06122 -33.0825,5.2983 z m 6.81853,-74.10484 c 5.47558,-0.85573 11.72018,-2.66635 16.66588,-4.8323 6.74731,-2.95494 19.16333,-10.52813 25.16147,-15.34727 3.2236,-2.58993 7.7363,-6.8283 11.3814,-10.68946 15.6366,-16.56322 26.1642,-34.27761 32.1025,-54.01789 2.8688,-9.53653 3.9544,-17.21851 3.9574,-28.00314 0,-6.27517 -0.3232,-10.59877 -1.5416,-20.5128 l -0.7828,-6.37067 1.262,-2.84697 c 3.7693,-8.50282 6.9058,-18.94242 8.1771,-27.21691 0.4669,-3.03885 0.5638,-4.73585 0.5697,-9.97525 0.01,-5.91197 -0.036,-6.51514 -0.6719,-9.48492 -2.1332,-9.96635 -6.5579,-17.36428 -15.6242,-26.12296 -8.0977,-7.82294 -19.3545,-16.41925 -25.2737,-19.30053 -8.8638,-4.31454 -23.76495,-6.99598 -31.8972,-5.73985 -8.74779,1.3512 -18.24824,7.35616 -23.28198,14.71586 -2.09245,3.05931 -4.27972,7.24202 -5.24433,10.0287 l -0.78867,2.27841 -1.88376,1.05082 c -1.19169,0.66477 -1.85008,1.18198 -1.79208,1.40782 0.32577,1.26863 0.29756,4.91046 -0.0536,6.92299 -1.05621,6.05266 -5.26628,15.81076 -10.53227,24.41168 -2.75129,4.49367 -4.99898,7.75922 -16.31067,23.69683 -20.12096,28.34946 -24.92258,35.66489 -30.01562,45.72984 -4.31954,8.53634 -7.76745,18.51858 -8.41779,24.37077 -0.67443,6.06904 1.71801,10.53811 7.78588,14.54399 5.10288,3.36881 14.32109,7.1383 24.59152,10.0559 l 3.25204,0.92383 0.0628,4.02129 c 0.0676,4.32803 0.36619,6.71717 2.41201,19.29984 2.04879,12.6009 3.21543,17.61525 5.02894,21.61484 2.58675,5.70497 7.42292,10.58294 13.51879,13.63565 3.98282,1.99452 6.10202,2.41174 11.49048,2.26216 2.29178,-0.0636 5.3033,-0.29325 6.69226,-0.5103 z"
       id="path3403"
       inkscape:connector-curvature="0" />
    <path
       style="fill:#e6e6e6"
       d="m 576.40058,976.50945 c -9.02215,-0.7133 -19.23403,-3.66731 -26.64752,-7.7084 -7.03262,-3.83348 -15.35859,-10.55062 -21.50801,-17.35202 -11.41423,-12.62436 -18.18036,-23.36132 -23.12703,-36.69955 -8.13245,-21.92834 -11.05167,-53.07726 -8.7562,-93.43134 1.62407,-28.55096 4.53933,-56.04182 8.19478,-77.27667 5.27984,-30.67104 14.03672,-58.16702 26.13912,-82.07489 5.10347,-10.08173 8.97317,-16.61035 13.5997,-22.94425 3.06864,-4.20107 6.93453,-8.90062 7.04618,-8.56565 0.0516,0.15481 -0.20439,0.86997 -0.56888,1.58926 -0.36449,0.71928 -0.61471,1.35578 -0.55604,1.41445 0.0587,0.0587 1.93753,-0.7197 4.17524,-1.7297 l 4.06858,-1.83637 1.30205,-2.90423 c 2.20423,-4.91654 5.27122,-10.58534 6.16899,-11.40229 1.69297,-1.54057 5.61643,-4.56095 7.88667,-6.07137 1.28412,-0.85434 2.29059,-1.59752 2.2366,-1.65152 -0.054,-0.054 -1.70126,0.52013 -3.6606,1.27584 -1.95933,0.7557 -3.56242,1.31677 -3.56242,1.24683 0,-0.28095 2.48036,-3.57483 5.2419,-6.9612 7.5079,-9.20662 15.79203,-17.25499 22.48763,-21.84767 1.20793,-0.82855 2.51774,-1.80568 2.91068,-2.17139 1.80281,-1.67788 9.54296,-4.92793 15.0692,-6.32748 5.21105,-1.31973 6.8326,-1.50304 13.25825,-1.49882 5.11411,0.003 6.57242,0.0921 9.33529,0.56807 11.02667,1.8996 19.67853,5.63346 29.80812,12.86421 14.64955,10.4572 27.26976,25.56277 37.97614,45.45497 4.2791,7.95045 7.33232,15.11324 10.52004,24.67978 5.91107,17.73941 9.26683,35.71689 10.46507,56.06347 1.24351,21.11513 1.42164,52.56467 0.40123,70.83694 -2.41371,43.22188 -11.58153,76.83562 -29.89274,109.60156 -11.41474,20.42543 -24.08177,37.31521 -38.73854,51.65261 -5.45846,5.33951 -7.25867,6.88211 -13.83844,11.85813 -2.70847,2.04831 -5.26542,4.0353 -5.68211,4.41552 -0.9293,0.84805 -7.7502,4.63789 -11.72223,6.51316 -10.30227,4.86391 -24.25204,9.04632 -33.8609,10.15221 -3.21088,0.36954 -12.8614,0.52938 -16.1698,0.2678 z M 603.9061,811.23106 c 4.4481,-2.25402 5.66283,-7.79424 2.56751,-11.71011 -1.4731,-1.86361 -3.31929,-2.70014 -5.94828,-2.69523 -2.40545,0.005 -3.85014,0.56337 -5.36044,2.07367 -1.61457,1.61457 -2.21803,3.12115 -2.20252,5.4987 0.0151,2.31116 0.53683,3.62009 2.09703,5.26098 2.29843,2.41729 5.91159,3.05932 8.8467,1.57199 z m -3.53553,-84.85281 c 4.4481,-2.25403 5.66282,-7.79424 2.56751,-11.71011 -1.47311,-1.86362 -3.3193,-2.70015 -5.94828,-2.69523 -2.40545,0.004 -3.85015,0.56337 -5.36044,2.07366 -1.61457,1.61458 -2.21804,3.12116 -2.20252,5.49871 0.0151,2.31115 0.53682,3.62009 2.09703,5.26098 2.29843,2.41729 5.91159,3.05932 8.8467,1.57199 z"
       id="path3405"
       inkscape:connector-curvature="0" />
    <path
       style="fill:#000000"
       id="path3415"
       d="m 612.21623,708.35978 c 2.49414,-2.97963 5.44062,-5.55149 8.26602,-8.20963 5.44644,-5.16633 11.56175,-9.55197 17.67504,-13.88232 3.93892,-2.73939 8.00216,-5.2899 12.14634,-7.70562 3.97233,-2.31555 9.04977,-5.30653 13.36611,-7.56403 1.48679,-0.77761 2.99808,-1.50741 4.49713,-2.26112 9.65767,-4.60173 19.70571,-8.31004 29.81005,-11.79344 8.87187,-2.94971 18.01253,-5.00362 27.20411,-6.66733 1.86415,-0.33742 3.73568,-0.63264 5.60352,-0.94896 9.3898,-1.54448 18.84297,-2.70295 28.32618,-3.49194 1.91964,-0.15971 3.84223,-0.28168 5.76335,-0.42253 9.5331,-0.60022 19.09059,-0.90733 28.64342,-0.82131 1.86341,0.0168 3.72627,0.0717 5.58941,0.10757 7.04365,0.22414 14.08049,0.74535 21.07438,1.61636 3.72508,0.46392 5.76586,0.80693 9.45372,1.37745 5.67582,0.98903 11.33761,2.15037 16.85613,3.82462 2.57844,0.78226 4.97012,1.66205 7.50815,2.56115 5.75398,2.14038 11.54663,4.23845 17.11163,6.84557 1.00877,0.4726 1.9975,0.98684 2.99624,1.48027 5.28617,2.83048 10.50099,5.79564 15.66811,8.83773 2.834,1.71511 5.69104,3.41278 8.34022,5.40942 0.77803,0.58638 2.26646,1.81919 3.04033,2.45386 2.60156,2.17032 5.18457,4.36259 7.76862,6.55365 2.05303,1.77375 4.02156,3.64235 6.08024,5.40924 1.28226,1.1627 2.62172,2.25848 3.93778,3.3818 0.94468,0.85071 1.95831,1.62279 2.8742,2.50524 0.53613,0.54568 1.04215,1.11966 1.57136,1.67196 0.0539,0.0413 0.0947,0.11309 0.16173,0.12397 0.0348,0.006 0.0895,-0.10453 0.0582,-0.0883 -1.78292,0.92544 -3.52052,1.93892 -5.3248,2.82197 -0.0835,0.0409 0.0812,-0.17029 0.0947,-0.26225 0.0457,-0.31179 -0.0315,-0.80583 -0.0605,-1.08662 -0.48629,-3.42376 -1.16438,-6.8153 -1.81209,-10.21101 -0.90782,-4.80325 -1.74118,-9.61988 -2.63302,-14.42611 -0.63813,-3.76764 -1.26257,-7.53715 -1.98578,-11.28965 -0.43536,-2.1401 -0.94569,-4.26284 -1.29091,-6.42024 -0.0956,-0.68161 -0.15568,-1.36592 -0.30809,-2.03798 0,0 5.52963,-2.96282 5.52963,-2.96282 l 0,0 c 0.13534,0.69873 0.20611,1.40206 0.25688,2.11178 0.26685,2.17517 0.74236,4.31196 1.15404,6.46278 0.6761,3.7755 1.28615,7.56158 1.87289,11.35186 0.86478,4.80845 1.72097,9.61882 2.62623,14.41973 0.69281,3.36996 1.41607,6.73341 2.07795,10.10953 0.0177,0.10265 0.28005,1.58854 0.18604,1.65215 -3.75916,2.54362 -4.13956,4.81242 -5.95403,2.98506 -0.50658,-0.55685 -1.01077,-1.11616 -1.52904,-1.66214 -0.89686,-0.87909 -1.89014,-1.65091 -2.82133,-2.49252 -1.30733,-1.12595 -2.61974,-2.24607 -3.88383,-3.42106 -2.02562,-1.79028 -3.97091,-3.66938 -6.00957,-5.4455 -2.56858,-2.19942 -5.15775,-4.37444 -7.73199,-6.56725 -0.82684,-0.69424 -2.12935,-1.80166 -2.97219,-2.45087 -2.605,-2.00655 -5.42465,-3.7078 -8.23023,-5.41332 -5.14048,-3.03484 -10.30364,-6.03926 -15.57018,-8.85065 -0.99037,-0.49005 -1.97185,-0.99849 -2.97112,-1.47014 -5.5337,-2.61185 -11.28713,-4.72088 -17.01608,-6.85432 -2.82365,-0.99785 -4.60839,-1.66354 -7.47782,-2.5367 -5.4796,-1.66743 -11.08732,-2.86397 -16.729,-3.83149 -4.15871,-0.65617 -5.1838,-0.84974 -9.40449,-1.38439 -6.95518,-0.88103 -13.94967,-1.43627 -20.95823,-1.63562 -4.82106,-0.0859 -6.33337,-0.14281 -11.15244,-0.10899 -7.68082,0.0539 -15.36009,0.34891 -23.02474,0.84432 -1.92449,0.14744 -3.85029,0.2787 -5.77347,0.44234 -9.47381,0.80607 -18.92019,1.95061 -28.29825,3.52224 -1.87034,0.32294 -3.74383,0.62816 -5.61103,0.96881 -9.17762,1.67435 -18.29882,3.75599 -27.1519,6.72448 -1.77047,0.61526 -3.5472,1.2128 -5.31141,1.84578 -8.31894,2.98476 -16.55105,6.25257 -24.52803,10.06416 -7.12446,3.61581 -1.88302,0.8971 -8.86269,4.67165 -0.14608,0.079 0.56884,-0.3431 0.42587,-0.25859 -4.1042,2.42602 -8.18728,4.88805 -12.08825,7.63555 -6.03005,4.26504 -12.06251,8.591 -17.42398,13.69299 -1.65302,1.57816 -3.31372,3.14793 -4.95661,4.73662 -0.92129,0.8909 -1.53785,1.44985 -2.36621,2.39599 -0.24298,0.27753 -0.45955,0.57711 -0.68932,0.86566 0,0 -5.70329,2.45144 -5.70329,2.45144 z"
       inkscape:connector-curvature="0" />
    <path
       style="fill:#000000"
       id="path3417"
       d="m 920.04722,702.15771 c -2.19987,-0.114 -4.39005,0.1135 -6.57364,0.34907 -3.89779,0.39831 -7.81833,0.44549 -11.72726,0.6762 -8.03002,0.90174 -15.99265,2.31467 -23.93457,3.78668 -4.65974,0.86723 -9.28074,1.93621 -13.94716,2.76656 -1.36421,0.23266 -2.73715,0.41023 -4.11648,0.52138 0,0 5.0257,-3.70829 5.0257,-3.70829 l 0,0 c 1.31822,-0.0878 2.63017,-0.24912 3.93419,-0.46107 4.57397,-0.77625 9.11131,-1.75455 13.67845,-2.56948 8.00539,-1.42248 16.03165,-2.74835 24.09178,-3.82128 3.95876,-0.28475 7.93204,-0.36478 11.87762,-0.81909 2.24024,-0.24418 4.48345,-0.41643 6.73916,-0.38812 0,0 -5.04779,3.66744 -5.04779,3.66744 z"
       inkscape:connector-curvature="0" />
    <path
       style="fill:#000000"
       id="path3419"
       d="m 628.3165,819.93471 c 2.32802,3.35656 5.25584,6.21913 8.18771,9.03825 0.73847,0.69024 1.47674,1.38068 2.21541,2.07071 0.65347,0.61044 4.25446,3.97799 4.88127,4.53847 2.94297,2.63159 6.03029,5.08171 9.12905,7.52467 6.21581,4.73514 12.67607,9.15516 19.3886,13.15786 1.463,0.87239 2.94946,1.70482 4.4242,2.55724 1.49508,0.8115 2.97634,1.64901 4.48525,2.4345 2.56644,1.33599 6.73583,3.33866 9.34621,4.55609 3.16568,1.4764 6.68705,3.07257 9.92479,4.38274 1.74309,0.70535 3.51135,1.34685 5.26702,2.02028 6.68109,2.42483 13.46628,4.57854 20.40374,6.14539 3.9195,0.88523 6.30525,1.25252 10.26627,1.94566 9.97872,1.64049 20.06167,2.49589 30.14719,3.12948 5.77349,0.30227 11.55613,0.51582 17.33865,0.43098 3.0863,-0.0453 4.95448,-0.15152 8.03032,-0.28885 7.3275,-0.43939 14.62694,-1.25068 21.9192,-2.07578 4.4326,-0.53832 8.87539,-1.04456 13.27275,-1.83269 2.6803,-0.48039 3.37158,-0.67335 6.01723,-1.28228 5.7361,-1.32654 11.32921,-3.17415 16.88109,-5.11517 4.99948,-1.72584 10.07221,-3.21862 15.06421,-4.96666 4.23291,-1.50157 8.34315,-3.31221 12.40318,-5.22503 2.40189,-1.21123 4.80899,-2.407 7.29588,-3.43466 1.62209,-0.64565 3.27883,-1.19607 4.89761,-1.85018 0.92039,-0.34911 1.87435,-0.61165 2.85465,-0.71113 0.34218,-0.0266 0.18133,-0.0163 0.48245,-0.0324 0,0 -5.05337,3.72934 -5.05337,3.72934 l 0,0 c -0.27624,0.0271 -0.12826,0.0107 -0.44374,0.051 -0.93111,0.16139 -1.83681,0.43795 -2.7132,0.79111 -1.60951,0.61781 -3.2467,1.16186 -4.84024,1.82141 -2.43941,1.03302 -4.80332,2.22465 -7.18636,3.37968 -4.04039,1.87295 -8.13958,3.62172 -12.34293,5.10002 -4.99257,1.72546 -10.05922,3.21877 -15.04865,4.95379 -5.55254,1.90918 -11.14465,3.72741 -16.87612,5.02973 -2.72251,0.60855 -3.26939,0.76562 -6.02548,1.24154 -4.39015,0.75809 -8.82302,1.24004 -13.24356,1.77712 -7.27936,0.80805 -14.56567,1.61058 -21.88185,1.9994 -3.18224,0.13022 -4.82953,0.22183 -8.02407,0.25444 -5.7626,0.0588 -11.52256,-0.18511 -17.27388,-0.52236 -10.07732,-0.67382 -20.14807,-1.56858 -30.11862,-3.22312 -4.05314,-0.71373 -6.28702,-1.05317 -10.29464,-1.97311 -6.93535,-1.592 -13.7096,-3.77612 -20.37999,-6.24049 -1.76854,-0.67315 -3.55051,-1.31198 -5.30561,-2.01944 -2.9441,-1.18673 -7.08071,-3.04704 -9.96355,-4.38327 -2.77265,-1.28516 -6.66622,-3.1485 -9.38377,-4.56704 -1.51122,-0.78885 -2.99385,-1.63132 -4.49078,-2.44698 -1.48406,-0.85229 -2.97948,-1.68511 -4.4522,-2.55686 -6.75729,-3.9999 -13.25078,-8.42427 -19.52198,-13.14745 -2.70099,-2.09013 -3.88386,-2.96899 -6.483,-5.11925 -3.44172,-2.84733 -6.65731,-5.9466 -9.97447,-8.935 -3.01374,-2.81949 -5.95742,-5.71666 -8.54634,-8.9401 0,0 5.34447,-3.17167 5.34447,-3.17167 z"
       inkscape:connector-curvature="0" />
    <path
       style="fill:#000000"
       id="path3421"
       d="m 862.1454,840.80067 c 2.27248,1.63885 4.92664,2.57698 7.51885,3.57392 4.42902,1.683 8.72471,3.69124 13.05938,5.59908 3.48761,1.54367 7.00754,3.01267 10.56964,4.37566 1.61852,0.59551 3.22822,1.22316 4.7736,1.99126 0.67792,0.36104 1.13601,0.86728 1.36743,1.59418 0.22091,0.91551 -0.0837,1.79856 -0.38923,2.654 -0.54416,1.3191 -0.92787,2.6933 -1.40048,4.03782 -1.17471,2.95109 -2.51866,5.83587 -3.88641,8.70202 -1.54379,3.10852 -3.29421,6.10485 -4.82235,9.22101 -0.93505,2.00046 -1.91131,3.98017 -2.93146,5.93843 -0.58342,1.15685 -1.17797,2.31082 -1.67909,3.50638 -0.17757,0.4793 -0.34141,0.96351 -0.51233,1.44522 0,0 -5.70133,2.64361 -5.70133,2.64361 l 0,0 c 0.20458,-0.48455 0.40249,-0.97323 0.55622,-1.47667 0.48789,-1.23154 1.11689,-2.40001 1.70369,-3.58615 1.05887,-1.96442 2.09071,-3.94302 3.03612,-5.96523 0.45213,-0.91735 0.91972,-1.88423 1.40155,-2.78527 1.15356,-2.15725 2.42593,-4.25144 3.48635,-6.4588 1.35242,-2.8108 2.6357,-5.65944 3.75645,-8.57127 0.47801,-1.33298 0.8185,-2.70724 1.35083,-4.02034 0.27129,-0.7293 0.63723,-1.4908 0.52647,-2.28751 -0.13026,-0.57925 -0.55659,-0.89709 -1.06739,-1.16837 -1.49903,-0.76259 -3.04526,-1.42392 -4.614,-2.02983 -3.51632,-1.41925 -6.98895,-2.94167 -10.45311,-4.48328 -4.33207,-1.91944 -8.63826,-3.91486 -13.09402,-5.53609 -1.68122,-0.62015 -3.3797,-1.21658 -5.00178,-1.98399 -0.96511,-0.4566 -1.19459,-0.62653 -2.07717,-1.13769 -0.2383,-0.13802 -0.47844,-0.27285 -0.71766,-0.40927 0,0 5.24123,-3.38283 5.24123,-3.38283 z"
       inkscape:connector-curvature="0" />
    <path
       style="fill:#666666"
       id="path3454"
       d="m 598.21457,730.85905 c 0.3091,0.64632 0.50832,1.33577 0.67757,2.02951 0.19736,1.02667 0.29536,2.06917 0.43894,3.10418 0.11765,0.84563 0.27172,1.68549 0.40365,2.52885 0.0662,0.40536 0.1138,0.81321 0.13469,1.22336 0.01,0.17881 0.0151,0.35787 0.0263,0.5366 10e-4,0.0131 0.002,0.0263 0.003,0.0394 0,0 -5.04364,2.56411 -5.04364,2.56411 l 0,0 c 10e-4,-0.0142 0.003,-0.0284 0.004,-0.0426 0.0138,-0.18286 0.0216,-0.36612 0.0278,-0.54938 0.009,-0.40887 0.0144,-0.81815 -0.0111,-1.22663 -0.0604,-0.8603 -0.18841,-1.71177 -0.31077,-2.56506 -0.1306,-1.01224 -0.1982,-2.0371 -0.44119,-3.03108 -0.16351,-0.60918 -0.32976,-1.2592 -0.74824,-1.7494 0,0 4.83869,-2.8619 4.83869,-2.8619 z"
       inkscape:connector-curvature="0" />
    <path
       style="fill:#666666"
       id="path3456"
       d="m 600.63026,747.69903 c 0.10635,0.68527 0.21246,1.3706 0.31531,2.05644 0.13145,0.97533 0.26077,1.95144 0.36324,2.93032 0.0869,0.83558 0.11483,1.67544 0.14484,2.5145 0.0186,0.52279 0.0297,1.04577 0.0432,1.5687 0.0119,0.28613 0.0151,0.57244 0.0219,0.8587 9.7e-4,0.18306 0.007,0.36603 0.0109,0.54904 0.002,0.13081 0.003,0.26165 0.003,0.39248 -0.002,0.0724 0.003,0.14483 0.01,0.21683 0,0 -5.04977,2.57299 -5.04977,2.57299 l 0,0 c 0.007,-0.0754 0.0115,-0.1512 0.01,-0.22701 2.3e-4,-0.13186 6.3e-4,-0.26373 0.003,-0.39557 0.004,-0.18693 0.01,-0.37381 0.0111,-0.56078 0.007,-0.2945 0.0115,-0.58904 0.0248,-0.88338 0.0158,-0.53414 0.0299,-1.06838 0.0398,-1.60267 0.0108,-0.83676 0.004,-1.67424 -0.0564,-2.50933 -0.0818,-0.96653 -0.20929,-1.92787 -0.37557,-2.88362 -0.1116,-0.64306 -0.21223,-1.29877 -0.45172,-1.90909 0,0 4.93226,-2.68855 4.93226,-2.68855 z"
       inkscape:connector-curvature="0" />
    <path
       style="fill:#666666"
       id="path3458"
       d="m 602.52571,766.10231 c -0.009,0.0844 -0.0223,0.16845 -0.027,0.25321 -0.0127,0.23112 -0.002,0.45688 0.009,0.68792 0.0225,0.46103 0.0592,0.92097 0.097,1.38093 0.0143,0.1772 0.0288,0.35439 0.0429,0.53161 0.0289,0.36186 0.059,0.71029 0.0751,1.0731 0.0263,0.59311 0.0291,1.18788 0.0435,1.78137 0.027,0.89941 0.0254,1.79876 -0.0298,2.69695 -0.0248,0.44714 -0.0836,0.89141 -0.11523,1.33796 -0.0112,0.17724 -0.0156,0.35479 -0.0171,0.53234 0.002,0.0695 6.9e-4,0.0368 0.005,0.0981 0,0 -5.03836,2.56818 -5.03836,2.56818 l 0,0 c 0.004,-0.0693 0.002,-0.0325 0.005,-0.11036 0.002,-0.20099 0.0132,-0.40175 0.0403,-0.60109 0.06,-0.46363 0.14936,-0.92211 0.21355,-1.38509 0.12206,-0.89724 0.19588,-1.79994 0.18991,-2.70628 -0.0169,-1.10886 -0.0681,-2.21852 -0.18903,-3.32131 -0.057,-0.45216 -0.1181,-0.90381 -0.17399,-1.35611 -0.0195,-0.15806 -0.0589,-0.51254 -0.0838,-0.67891 -0.0119,-0.0794 -0.0281,-0.15811 -0.0421,-0.23716 0,0 4.9955,-2.54534 4.9955,-2.54534 z"
       inkscape:connector-curvature="0" />
    <path
       style="fill:#666666"
       id="path3460"
       d="m 602.96427,782.74306 c -0.15954,0.71446 -0.16609,1.4515 -0.17073,2.18015 -0.007,0.8619 0.0114,1.72355 0.021,2.58531 0.003,0.79698 -0.10906,1.58741 -0.18093,2.37953 -0.0436,0.48137 -0.0525,0.96434 -0.0479,1.44728 0.005,0.15479 -0.0138,0.30856 -0.019,0.46288 -0.0114,0.054 -0.0163,0.1079 -0.0153,0.16295 0,0 -5.04791,2.56717 -5.04791,2.56717 l 0,0 c 0.002,-0.0705 -0.004,-0.14054 -0.003,-0.21103 0.0247,-0.16179 0.05,-0.32288 0.0856,-0.48279 0.0846,-0.50025 0.074,-1.01413 0.15372,-1.51567 0.0889,-0.78066 0.19728,-1.56011 0.22799,-2.34607 0.0243,-0.85938 -0.009,-1.71775 -0.0308,-2.5769 -3.9e-4,-0.72168 0.0474,-1.4436 0.008,-2.1651 0,0 5.01895,-2.48771 5.01895,-2.48771 z"
       inkscape:connector-curvature="0" />
    <path
       style="fill:#999999;fill-opacity:1"
       id="path3360"
       d="m 199.79298,624.00738 c -0.60836,0.27601 -1.21705,0.55129 -1.82507,0.82804 -0.9463,0.43073 -1.90597,0.83341 -2.8379,1.29441 -1.20817,0.59764 -4.77105,2.51126 -3.57996,1.88028 1.87217,-0.99178 4.28747,-4.60722 5.62319,-2.96269 1.31059,1.61357 -3.35395,2.45937 -4.97116,3.76545 -1.80721,1.45953 -3.53177,3.01852 -5.29765,4.52779 -10.94044,10.1287 -19.61157,22.38918 -27.01285,35.27014 -1.85513,3.22862 -3.56114,6.54065 -5.3417,9.81098 -8.41568,16.19805 -15.71267,32.97237 -21.96886,50.1192 -4.1465,11.36464 -6.89206,20.23011 -10.62684,31.77768 -5.34281,17.01354 -10.63227,34.04368 -15.53937,51.18904 -3.23983,11.31993 -5.80147,20.49686 -8.490502,31.92278 -1.11165,4.72349 -2.059054,9.48413 -3.088581,14.22619 -2.880066,15.28098 -4.823627,30.91538 -3.372127,46.47738 0.746901,8.00777 1.42807,9.6609 3.275185,17.24155 2.833153,9.09883 6.885715,17.82948 13.215135,25.04941 4.05814,4.62909 5.2657,5.16214 10.14291,8.87781 1.97084,1.13564 3.88042,2.38497 5.91254,3.40693 8.62234,4.33622 18.32399,6.43829 27.93153,6.8427 2.70427,0.11383 5.4132,-0.0379 8.11981,-0.0569 2.78828,-0.28644 5.59015,-0.46223 8.36484,-0.85932 5.52165,-0.7902 12.65764,-2.37217 18.04324,-3.70595 6.39468,-1.5837 13.00265,-3.43512 19.25102,-5.52373 3.28707,-1.09875 6.52197,-2.34782 9.78295,-3.52173 10.00877,-4.08438 19.97381,-8.33021 29.62467,-13.21417 3.22876,-1.63396 6.40111,-3.37762 9.57686,-5.11238 0.13647,-0.0746 0.2172,-0.22703 0.34896,-0.30964 3.007,-1.8851 6.04111,-3.72662 9.06167,-5.58993 11.84841,-7.71409 23.32878,-16.06724 33.71854,-25.68269 6.57564,-6.08559 7.95573,-7.84419 13.99273,-14.39906 10.68719,-12.21307 20.15804,-25.44189 28.40663,-39.41391 1.65935,-2.81071 3.21273,-5.68265 4.81909,-8.52398 6.41992,-11.5725 11.98339,-23.60155 16.31845,-36.11189 2.64204,-7.62456 3.76777,-11.99977 5.98126,-19.7765 4.46596,-17.38984 8.18234,-35.00463 10.38077,-52.83551 0.43134,-3.49845 0.73505,-7.01146 1.10258,-10.5172 0.20229,-3.4531 0.50775,-6.90171 0.60686,-10.35932 0.35717,-12.46015 -0.53471,-25.4622 -2.94125,-37.70453 -0.54177,-2.75605 -1.2852,-5.46861 -1.9278,-8.20292 -2.92522,-10.11914 -7.35269,-19.81071 -14.05184,-28.01402 -3.9756,-4.86825 -6.10222,-6.43036 -10.76633,-10.5806 -8.02318,-6.413 -17.04164,-11.48283 -26.60818,-15.20726 -6.47322,-2.52013 -8.63661,-2.93341 -15.31897,-4.7767 -10.1653,-2.50539 -20.64763,-3.15531 -31.07099,-2.36213 -5.8865,0.44793 -9.16009,1.10905 -14.95163,2.05617 -11.14659,2.27701 -22.25068,4.89527 -33.13295,8.23319 -1.98036,0.60744 -3.94116,1.2769 -5.91174,1.91535 -7.16417,2.43616 -14.12039,5.47271 -20.74502,9.13311 -1.46792,0.81109 -5.95019,3.01926 -4.34293,2.5403 2.06009,-0.61391 3.82156,-1.96957 5.73234,-2.95435 -4.28787,3.16668 -8.10264,6.93695 -11.42963,11.09869 -3.27218,4.09317 -6.00376,8.54739 -8.70874,13.02074 0,0 -10.62864,4.69841 -10.62864,4.69841 l 0,0 c 2.79202,-4.49086 5.55964,-9.06273 8.79147,-13.25746 3.25574,-4.22578 7.0145,-8.07671 11.22832,-11.34865 2.47742,-1.5093 13.18356,-8.2225 18.32422,-10.98872 6.63569,-3.5707 13.59198,-6.52173 20.74378,-8.88989 1.96809,-0.62227 3.92725,-1.27353 5.90427,-1.86682 10.87113,-3.26234 21.94741,-5.86139 33.08504,-8.02414 5.91417,-0.9113 8.9685,-1.5101 14.98138,-1.91051 10.49457,-0.69886 21.03191,0.0453 31.23679,2.66272 6.67107,1.88388 8.9497,2.34833 15.41751,4.89301 9.65944,3.80037 18.78077,8.93304 26.85252,15.47301 4.75195,4.27918 6.81062,5.79667 10.86238,10.80372 6.755,8.34761 11.2526,18.17015 14.16714,28.4508 0.63214,2.76912 1.36423,5.51731 1.89643,8.30736 2.37725,12.46281 3.21218,25.34914 2.83529,38.02044 -0.10343,3.47728 -0.40887,6.94561 -0.61331,10.41841 -1.01845,9.49866 -1.16557,11.88795 -2.63066,21.39845 -2.1836,14.1747 -5.24364,28.202 -8.7482,42.10394 -2.07311,7.40562 -3.40186,12.55277 -5.87983,19.82363 -4.28036,12.55939 -9.82484,24.63346 -16.21926,36.25113 -1.5899,2.84988 -3.1198,5.73407 -4.76971,8.54964 -8.23111,14.04639 -17.71759,27.32864 -28.38614,39.62788 -6.13485,6.71422 -7.33385,8.29302 -14.0243,14.53383 -10.37225,9.67517 -21.83635,18.09065 -33.68142,25.862 -11.63619,7.20271 -13.0159,8.17238 -27.55356,16.36231 -12.61234,7.10527 -25.96094,12.80631 -39.35178,18.2502 -3.28489,1.17147 -6.54377,2.41865 -9.85469,3.51441 -5.95939,1.97227 -13.28867,4.02522 -19.38625,5.52766 -5.34906,1.31801 -12.76662,2.93879 -18.25393,3.6934 -2.80722,0.38605 -5.642,0.53479 -8.463,0.80219 -2.74507,10e-4 -5.49333,0.13587 -8.23521,0.004 -7.457,-0.3595 -15.02275,-1.72116 -22.02784,-4.346 -5.58453,-2.09255 -7.16694,-3.32287 -12.28982,-6.33548 -4.9905,-3.85275 -6.15101,-4.34988 -10.293547,-9.1303 -6.400311,-7.38586 -10.487241,-16.26967 -13.230493,-25.58044 -1.762325,-7.69595 -2.438331,-9.45426 -3.112506,-17.55752 -1.313072,-15.78249 0.863606,-31.58794 3.902812,-47.04635 3.075381,-13.39775 3.638623,-16.4429 7.34284,-30.03843 1.494628,-5.48571 3.11308,-10.93696 4.693163,-16.39867 4.949151,-17.10723 10.116791,-34.1478 15.406521,-51.15272 3.57774,-11.29679 6.40444,-20.56046 10.34734,-31.703 6.04295,-17.07724 13.0814,-33.79808 21.28502,-49.95289 1.72625,-3.26508 3.37506,-6.57228 5.17873,-9.79523 7.20818,-12.88014 15.69579,-25.13642 26.38852,-35.38026 2.02954,-1.78519 7.49968,-6.75032 9.93715,-8.33182 7.33441,-4.75879 14.87123,-9.33965 22.95891,-12.71363 0,0 -9.60664,7.49042 -9.60664,7.49042 z"
       inkscape:connector-curvature="0" />
    <circle
       style="fill:#000000"
       id="path3338-3-7"
       cx="249.09393"
       cy="702.93878"
       r="7.5761442" />
    <circle
       style="fill:#000000"
       id="path3338-3-7-5"
       cx="200.14169"
       cy="834.89923"
       r="7.5761442" />
    <path
       style="fill:#ff7f2a;fill-opacity:1"
       id="path3422"
       d="m 203.29992,822.85062 c 0.49522,-2.03706 1.18082,-4.02069 1.84634,-6.0065 0.72466,-2.22141 1.44175,-4.44577 2.11808,-6.68245 0.14305,-0.46865 0.27095,-0.94159 0.39466,-1.4156 0,0 4.9209,-2.31499 4.9209,-2.31499 l 0,0 c -0.19243,0.4979 -0.38271,0.99663 -0.56342,1.49893 -0.40143,1.10449 -0.18902,0.52853 -0.63874,1.72733 -0.61357,1.67769 -1.17283,3.37481 -1.73584,5.06989 -0.32346,1.04745 -0.51482,1.6366 -0.80164,2.67876 -0.23791,0.86442 -0.4484,1.7344 -0.56007,2.62517 -0.0156,0.1242 -0.0201,0.24953 -0.0301,0.37429 0,0 -4.95015,2.44517 -4.95015,2.44517 z"
       inkscape:connector-curvature="0" />
    <path
       style="fill:#ff7f2a;fill-opacity:1"
       id="path3424"
       d="m 216.85734,794.41153 c -0.25317,0.38067 -0.45496,0.79693 -0.60239,1.2296 1.03495,1.50997 0.19715,0.27517 -4.96095,2.20049 -0.12891,0.0481 0.10578,-0.25416 0.15274,-0.3835 0.28198,-0.77661 0.508,-1.57232 0.73877,-2.36502 0.7711,-2.8164 1.51479,-5.64037 2.26712,-8.46188 0.45722,-1.70285 0.91529,-3.40581 1.44652,-5.08733 0.032,-0.0989 0.0639,-0.19781 0.0959,-0.29672 0,0 4.95219,-2.28582 4.95219,-2.28582 l 0,0 c -0.0508,0.1037 -0.10169,0.20741 -0.15253,0.31112 -0.76281,1.68478 -1.32097,3.45016 -1.84837,5.2205 -0.32162,1.11221 -0.5284,1.80184 -0.82381,2.92948 -0.47175,1.8008 -0.88488,3.61641 -1.26759,5.43799 -0.1693,0.75743 -0.34744,1.51316 -0.50017,2.27415 -0.0238,0.11838 0.0369,0.29687 -0.0685,0.35569 -1.65038,0.92068 -3.38411,1.68334 -5.08029,2.51663 -0.015,0.007 0.0222,-0.0248 0.0334,-0.0372 0.18358,-0.43889 0.37153,-0.87592 0.56427,-1.31084 0,0 5.05373,-2.24735 5.05373,-2.24735 z"
       inkscape:connector-curvature="0" />
    <path
       style="fill:#ff7f2a;fill-opacity:1"
       id="path3426"
       d="m 218.74908,773.14044 c -0.17864,-1.18646 -0.14499,-2.38938 -0.0985,-3.58399 0.15559,-1.9604 0.58959,-3.88506 1.07329,-5.78674 0.42565,-1.64569 1.00599,-3.24319 1.59602,-4.83516 0.29737,-0.83357 0.64742,-1.64663 0.96866,-2.47086 0.0763,-0.20331 0.0421,-0.11011 0.10331,-0.27937 0,0 5.03251,-2.30951 5.03251,-2.30951 l 0,0 c -0.0924,0.18452 -0.042,0.0832 -0.15109,0.30397 -0.40492,0.83168 -0.80974,1.6646 -1.14657,2.52688 -0.64424,1.5863 -1.28564,3.17899 -1.73653,4.83346 -0.48824,1.85347 -0.92832,3.72974 -1.0535,5.64845 -0.0274,1.11141 -0.0398,2.24824 0.2675,3.32735 0,0 -4.85507,2.62552 -4.85507,2.62552 z"
       inkscape:connector-curvature="0" />
    <path
       style="fill:#ff7f2a;fill-opacity:1"
       id="path3436"
       d="m 225.78017,749.29083 c 0.0592,-0.1749 0.11132,-0.35236 0.1776,-0.5247 0.4105,-1.06729 0.93311,-2.09194 1.43959,-3.11526 0.83277,-1.68257 0.64769,-1.3046 1.55089,-3.035 1.07634,-2.0674 2.19235,-4.11458 3.23656,-6.19862 0.47956,-0.9571 0.68386,-1.39697 1.1297,-2.33312 0.40799,-0.87469 0.82039,-1.74797 1.17613,-2.64556 0,0 4.97906,-2.26804 4.97906,-2.26804 l 0,0 c -0.50298,0.94304 -1.01386,1.88178 -1.52378,2.82108 -0.68692,1.28264 -1.36218,2.57143 -2.05011,3.85354 -0.85048,1.58506 -1.7164,3.16222 -2.52039,4.77177 -0.25569,0.51471 -0.51814,1.02612 -0.76706,1.54413 -0.46394,0.96547 -0.77162,1.66134 -1.17488,2.63718 -0.28,0.67754 -0.41253,0.99801 -0.60915,1.66329 -0.0412,0.1395 -0.07,0.28239 -0.10502,0.42358 0,0 -4.93914,2.40573 -4.93914,2.40573 z"
       inkscape:connector-curvature="0" />
    <path
       style="fill:#ff7f2a;fill-opacity:1"
       id="path3438"
       d="m 237.21485,725.20016 c 0.0583,-0.11947 0.11308,-0.24077 0.175,-0.35843 0.37466,-0.71185 0.79928,-1.39687 1.20996,-2.08792 0.59061,-0.99382 0.54356,-0.92044 1.13779,-1.95171 0.9521,-1.64219 1.81804,-3.33203 2.61433,-5.05469 0.0583,-0.13062 0.11664,-0.26123 0.17497,-0.39185 0,0 4.92187,-2.22448 4.92187,-2.22448 l 0,0 c -0.0785,0.14026 -0.15689,0.28053 -0.23534,0.42079 -0.94807,1.71706 -1.85531,3.45624 -2.81412,5.16743 -0.18271,0.33595 -0.36334,0.67304 -0.54812,1.00786 -0.57074,1.03417 -1.1799,2.05304 -1.63406,3.14631 0,0 -5.00228,2.32669 -5.00228,2.32669 z"
       inkscape:connector-curvature="0" />
    <path
       style="fill:#ff7f2a;fill-opacity:1"
       id="path3463"
       d="m 263.63453,684.66435 c 2.51319,-3.39916 5.04278,-6.78603 7.53438,-10.20121 2.78145,-3.79732 5.66336,-7.53595 8.85323,-11.00298 2.37474,-2.58109 3.04411,-3.13039 5.61221,-5.56405 2.57248,-2.29978 3.40854,-3.12802 6.14695,-5.24955 1.65988,-1.28596 5.0299,-3.71258 6.82745,-4.78292 13.34263,-7.94481 11.35458,-6.83462 19.6719,-11.1947 4.90864,-2.57556 9.99079,-4.80088 15.16781,-6.77695 2.58567,-0.98695 5.19511,-1.91044 7.79256,-2.86595 8.09861,-2.81431 16.10063,-5.89265 24.1201,-8.92261 5.21073,-1.95625 10.47072,-3.79877 15.85777,-5.21147 3.73347,-0.97906 4.26995,-1.04211 8.01576,-1.82384 1.3385,-0.21544 2.67364,-0.45289 4.0155,-0.6463 2.98947,-0.43089 4.98116,-0.64735 7.99903,-0.82118 4.01331,-0.23117 8.02913,-0.2144 12.04629,-0.16837 7.80514,0.23414 15.54231,1.32403 23.23304,2.60804 7.79337,1.45002 15.59465,2.87061 23.33741,4.57361 6.32142,1.49472 12.58835,3.24521 18.75012,5.30495 1.16616,0.38982 2.32125,0.81202 3.48187,1.21802 4.65209,1.67852 9.18305,3.67277 13.58967,5.91567 2.78493,1.41749 3.94049,2.09267 6.66163,3.6062 6.40418,3.78583 12.22373,8.45785 17.97761,13.14813 1.01257,0.83023 2.02499,1.66064 3.03771,2.49069 2.58589,2.11947 3.2264,2.61464 5.73925,4.7841 2.72144,2.34956 5.40897,4.74097 8.11105,7.11281 4.80179,4.13238 9.4023,8.48552 13.90816,12.9362 0.62952,0.66526 1.26892,1.32131 1.88857,1.99577 2.85196,3.10421 5.18742,6.43944 7.68196,9.818 2.62745,3.50176 5.27704,6.98671 7.87094,10.5135 2.01441,2.70871 4.35107,5.15902 6.78458,7.49126 1.22606,1.09363 2.39635,2.27037 3.74954,3.21005 0.32669,0.20494 0.17471,0.11646 0.45307,0.27029 0,0 -13.48778,8.54656 -13.48778,8.54656 l 0,0 c -0.25547,-0.239 -0.11594,-0.10789 -0.41823,-0.39371 -1.1958,-1.15213 -2.32477,-2.37076 -3.48757,-3.55575 -2.35834,-2.49157 -4.68368,-5.03163 -6.67118,-7.83498 -2.54824,-3.55381 -5.15429,-7.06538 -7.75827,-10.57844 -2.90627,-4.05194 -5.76661,-8.15419 -9.26622,-11.73145 -4.374,-4.50481 -8.93152,-8.82342 -13.61916,-13.00106 -5.49354,-4.89217 -10.9696,-9.81203 -16.71232,-14.41315 -5.78921,-4.54378 -11.57117,-9.14194 -17.91358,-12.90524 -1.07578,-0.60261 -2.14009,-1.22617 -3.22735,-1.80782 -5.43959,-2.91003 -11.10535,-5.40812 -16.90979,-7.49281 -2.46753,-0.8734 -4.45922,-1.60263 -6.96063,-2.3893 -4.96837,-1.5625 -10.02304,-2.85359 -15.09185,-4.04199 -7.7334,-1.69038 -15.51068,-3.16184 -23.31286,-4.49874 -2.3126,-0.37711 -5.2244,-0.86893 -7.54804,-1.18006 -5.15331,-0.69001 -10.34605,-1.11093 -15.54286,-1.25909 -2.90053,-0.0305 -4.88355,-0.0841 -7.79121,0.0186 -5.38273,0.19003 -10.74974,0.78921 -16.03399,1.83599 -3.4294,0.73698 -4.4713,0.91071 -7.88166,1.84938 -5.34981,1.4725 -10.57221,3.36757 -15.77316,5.28891 -8.05355,3.00271 -16.06509,6.11806 -24.17911,8.95658 -2.26439,0.83221 -5.51976,2.01501 -7.76025,2.89368 -5.13494,2.01381 -10.16543,4.28716 -15.04042,6.86993 -1.23877,0.66583 -4.91241,2.73723 -3.7163,1.9975 2.77882,-1.71853 5.59029,-3.38934 8.46818,-4.93625 1.22172,-0.6567 -2.3452,1.48264 -3.49268,2.26184 -3.34303,2.27011 -6.53192,4.76278 -9.49656,7.51089 -2.43498,2.26269 -3.30516,2.99214 -5.56366,5.3992 -3.13835,3.34479 -5.94889,6.97946 -8.5891,10.7249 -2.25526,3.21897 -4.56699,6.40638 -6.63122,9.75287 0,0 -14.50829,6.34785 -14.50829,6.34785 z"
       inkscape:connector-curvature="0" />
    <path
       style="fill:#ff7f2a;fill-opacity:1"
       id="path3465"
       d="m 575.45224,664.87046 c -0.16474,1.98922 -0.1504,3.9894 -0.0728,5.98227 0.15599,2.64862 0.59595,5.26896 0.94258,7.89672 0.31009,2.37213 0.59013,4.74709 0.95767,7.11126 0.41348,2.43293 0.53693,4.89961 0.70473,7.35773 0.13496,1.92096 0.27767,3.84107 0.46585,5.75766 0.13601,1.11075 0.30053,2.21799 0.41444,3.33135 0.003,0.22605 0.0535,0.44452 0.1088,0.66201 0,0 -14.066,7.5709 -14.066,7.5709 l 0,0 c -0.0652,-0.30829 -0.12594,-0.61749 -0.17121,-0.92947 -0.0158,-1.12765 -0.0915,-2.25261 -0.2013,-3.37498 -0.18533,-1.94912 -0.28813,-3.90621 -0.38275,-5.86153 -0.13466,-2.4162 -0.18632,-4.8432 -0.6173,-7.2322 -0.39597,-2.3868 -0.70278,-4.78323 -0.93359,-7.19175 -0.29408,-2.65844 -0.78449,-5.289 -1.04282,-7.95191 -0.15643,-1.96918 -0.12686,-3.94094 -0.27268,-5.90991 0,0 14.16642,-7.21815 14.16642,-7.21815 z"
       inkscape:connector-curvature="0" />
    <path
       style="fill:#ff7f2a;fill-opacity:1"
       id="path3467"
       d="m 533.66907,694.80642 c 2.64938,0.36427 5.27763,0.86744 7.91137,1.33015 4.50848,0.78634 8.99064,1.71152 13.46838,2.65469 4.15363,0.87221 8.29912,1.78432 12.4579,2.63197 2.73294,0.53371 5.47114,1.0389 8.16781,1.73723 1.19585,0.31432 2.41523,0.52603 3.65083,0.57706 0.0903,3.8e-4 0.18066,7.7e-4 0.27099,10e-4 0,0 -12.99617,9.24593 -12.99617,9.24593 l 0,0 c -0.0862,-0.0173 -0.17244,-0.0345 -0.25865,-0.0518 -1.19944,-0.24546 -2.38165,-0.56257 -3.55348,-0.91695 -2.58301,-0.7204 -5.19694,-1.3131 -7.81652,-1.88479 -4.09588,-0.92719 -8.19139,-1.85494 -12.29769,-2.7354 -4.49211,-0.94514 -8.99506,-1.86058 -13.54117,-2.50918 -2.75405,-0.38551 -5.53673,-0.86277 -8.32644,-0.73468 0,0 12.86284,-9.3454 12.86284,-9.3454 z"
       inkscape:connector-curvature="0" />
    <path
       style="fill:#ff7f2a;fill-opacity:1"
       id="path3473"
       d="m 236.94602,851.10883 c 1.8773,3.3666 4.35807,6.3698 6.84262,9.30112 3.49244,3.9961 7.3047,7.73478 11.40393,11.1091 0.95977,0.79004 1.95064,1.54152 2.92596,2.31227 5.65935,4.23112 11.66906,8.02082 17.91738,11.32359 1.34352,0.71016 2.71274,1.3706 4.06911,2.05589 8.45809,4.18465 17.43794,7.12021 26.42749,9.91293 7.82706,2.35215 15.84774,3.98646 23.92435,5.20223 1.67281,0.2518 3.35185,0.46033 5.02778,0.69049 8.50333,1.03625 17.06258,1.66201 25.6275,1.85137 1.71457,0.0379 3.42977,0.0379 5.14465,0.0569 8.76523,0.0287 17.53335,-0.34347 26.26911,-1.0605 1.78401,-0.14643 3.56495,-0.32807 5.34742,-0.49211 7.09635,-0.7691 14.17527,-1.75303 21.20971,-2.968 2.13869,-0.36939 8.6855,-1.62184 10.72661,-2.00933 6.78017,-1.32292 13.49831,-2.94883 20.13771,-4.85536 3.79707,-1.09035 5.75028,-1.73345 9.51003,-2.91989 6.13806,-2.01746 12.2936,-3.99095 18.35365,-6.23595 0.22011,-0.0815 8.23469,-3.14196 8.53455,-3.25645 6.50642,-2.5148 13.03329,-5.00113 19.42506,-7.79973 1.14258,-0.50027 2.27373,-1.02626 3.41059,-1.5394 1.07653,-0.52339 2.15441,-1.04401 3.22959,-1.57018 2.98466,-1.46063 5.94479,-2.9637 8.8613,-4.55696 3.49644,-1.95485 1.75184,-0.99225 5.23346,-2.88841 4.47855,-2.56588 15.15431,-8.43972 -5.30739,3.08186 -0.74132,0.41742 1.4541,-0.8837 2.175,-1.33547 1.55514,-0.97457 2.58415,-1.6619 4.11424,-2.66683 3.69529,-2.38974 7.24691,-4.9819 10.69276,-7.71608 3.25716,-2.63304 6.40053,-5.39712 9.50241,-8.20966 2.79133,-2.59076 5.68523,-5.06482 8.61826,-7.49262 2.38809,-1.85943 4.62558,-3.89165 6.84392,-5.94654 1.95737,-1.73968 3.82136,-3.57962 5.72268,-5.37942 1.12889,-1.08553 2.3208,-2.10117 3.49306,-3.13855 0.31504,-0.28292 0.17068,-0.15235 0.43348,-0.39125 0,0 14.77995,-5.99912 14.77995,-5.99912 l 0,0 c -0.31963,0.26609 -0.1458,0.1213 -0.52142,0.43444 -1.27033,1.06286 -2.56778,2.09459 -3.79782,3.20424 -1.96785,1.76401 -3.81997,3.64886 -5.78381,5.41657 -2.30526,2.05036 -4.49111,4.23916 -6.97464,6.0838 -2.97941,2.41565 -5.93814,4.85829 -8.74987,7.46973 -1.56243,1.395 -3.08529,2.83482 -4.66641,4.20871 -0.44738,0.38874 -2.76354,2.33465 -3.2212,2.72266 -0.53423,0.45293 -1.06594,0.90882 -1.5989,1.36322 -3.4586,2.81402 -7.02995,5.47811 -10.77574,7.9019 -0.99601,0.65864 -3.15979,2.09548 -4.1562,2.73006 -7.26441,4.62643 -14.83624,8.75476 -22.35478,12.95068 -5.62915,3.07347 -11.28812,6.09693 -17.1457,8.71984 -7.45175,3.24954 -15.0228,6.21774 -22.6319,9.0777 -2.29842,0.86493 -6.15547,2.3245 -8.44885,3.15431 -6.06263,2.19365 -12.20058,4.1688 -18.33486,6.15028 -4.77593,1.47499 -9.55561,2.97226 -14.40039,4.21002 -2.79435,0.7139 -6.82568,1.5614 -9.61186,2.13871 -1.8206,0.37724 -3.64458,0.73801 -5.46687,1.10702 -1.89196,0.38006 -3.78015,0.77944 -5.6759,1.14019 -8.75623,1.66626 -17.59941,2.85617 -26.45918,3.80858 -4.33664,0.37889 -6.40808,0.58507 -10.75928,0.86378 -6.99621,0.44812 -14.00843,0.67562 -21.01911,0.62972 -4.24168,-0.0734 -6.09909,-0.0741 -10.34546,-0.27439 -6.86757,-0.32388 -13.72673,-0.89282 -20.54728,-1.75959 -4.13413,-0.58333 -5.97409,-0.80946 -10.08861,-1.52399 -6.44369,-1.11903 -12.82646,-2.58532 -19.08491,-4.49046 -4.57406,-1.41288 -9.13735,-2.85131 -13.62897,-4.5132 -3.36604,-1.24543 -5.4317,-2.10455 -8.7068,-3.56199 -1.44372,-0.64247 -2.87212,-1.3188 -4.30818,-1.9782 -1.36938,-0.69587 -2.74964,-1.37074 -4.10814,-2.08762 -2.80507,-1.48024 -5.15809,-2.82993 -7.87476,-4.45916 -2.17234,-1.30277 -5.12132,-3.13303 -7.22279,-4.5677 -1.09095,-0.74478 -2.147,-1.53944 -3.2205,-2.30917 -1.00754,-0.77301 -2.02953,-1.52755 -3.02261,-2.31905 -4.23612,-3.37625 -8.18454,-7.12075 -11.85989,-11.09638 -2.62971,-2.95379 -5.18826,-5.96889 -7.71763,-9.0089 0,0 13.66329,-8.00627 13.66329,-8.00627 z"
       inkscape:connector-curvature="0" />
    <path
       style="fill:#ff7f2a;fill-opacity:1"
       id="path3475"
       d="m 545.38079,821.72108 c 3.38195,-0.26702 6.72242,-0.94608 10.04033,-1.63181 5.19537,-1.05437 10.39822,-2.06899 15.62886,-2.93288 3.64077,-0.62863 7.30948,-1.07297 10.99135,-1.36957 0.92295,0.02 1.98261,-0.34102 2.87655,0.0499 0.32628,0.14267 0.46183,0.3208 0.70617,0.56297 0.92843,1.21007 0.97285,2.80776 1.15066,4.26341 0.35972,3.41589 0.75412,6.8276 1.07502,10.24744 0.26828,3.20296 0.37961,6.41567 0.5748,9.6233 0.15773,1.85589 0.29407,3.71598 0.62125,5.55116 0.15868,0.98553 0.49843,1.92044 0.8533,2.84789 0.17076,0.39009 0.0865,0.20672 0.25088,0.55102 0,0 -13.90883,7.7932 -13.90883,7.7932 l 0,0 c -0.14147,-0.38979 -0.066,-0.18361 -0.22695,-0.61838 -0.39652,-1.03775 -0.69278,-2.11349 -0.88449,-3.20803 -0.26438,-1.93168 -0.43222,-3.86681 -0.48931,-5.81737 -0.0872,-3.22435 -0.0752,-6.45317 -0.33023,-9.67078 -0.28679,-3.35509 -0.72479,-6.69484 -1.3133,-10.01093 -0.14894,-0.78648 -0.20845,-1.15331 -0.38319,-1.90019 -0.0783,-0.33467 -0.15835,-0.90281 -0.47493,-1.1226 -0.86513,0.12564 -1.75517,-0.004 -2.62587,0.0877 -3.50235,0.17738 -6.98804,0.56863 -10.44716,1.14937 -5.23881,0.85967 -10.45156,1.86192 -15.6341,3.01545 -3.56757,0.74566 -7.14083,1.47765 -10.75338,1.97385 0,0 12.70257,-9.43408 12.70257,-9.43408 z"
       inkscape:connector-curvature="0" />
    <path
       style="fill:#d5ffe6;fill-opacity:1"
       d="m 148.84172,412.90285 c -0.40774,-0.0475 -1.79777,-0.20467 -3.08896,-0.34921 -15.05566,-1.68521 -29.11022,-8.60394 -37.66651,-18.54237 -6.76048,-7.85251 -11.52944,-17.70613 -14.459935,-29.87711 -1.963119,-8.15325 -2.630555,-15.43552 -2.411536,-26.3118 0.502553,-24.95634 6.938382,-52.96825 27.026771,-117.63383 12.76987,-41.10687 19.43022,-59.0269 30.72252,-82.66063 9.01528,-18.86814 17.3653,-32.7928 26.30713,-43.870297 2.78102,-3.445235 6.31809,-7.360715 6.49213,-7.186675 0.0664,0.06636 -0.38339,0.775698 -0.99944,1.576305 -2.06515,2.683808 -8.26832,12.330067 -8.04362,12.508247 0.0505,0.04 2.46473,-0.993612 5.36497,-2.296996 l 5.27316,-2.36979 2.53269,-4.045377 c 4.85742,-7.75859 9.64722,-13.482131 15.09231,-18.034484 1.22323,-1.022675 2.20153,-1.933989 2.17399,-2.025141 -0.0814,-0.269402 9.39657,-4.772323 13.14727,-6.246189 15.57434,-6.120069 42.02877,-12.675054 58.07248,-14.389434 5.44446,-0.581776 15.72724,-0.594957 20.83317,-0.0267 17.63717,1.962888 35.95464,8.83286 49.90407,18.716535 1.52903,1.083378 2.78006,2.056165 2.78006,2.161749 0,0.105584 -1.19543,0.61465 -2.65651,1.131257 -18.58516,6.571326 -26.15381,10.080703 -41.82454,19.392891 -6.57585,3.907638 -10.62051,6.697236 -14.64705,10.102054 -3.80716,3.21931 -9.70333,9.21691 -12.56935,12.78557 -2.96466,3.69149 -12.62529,16.70643 -12.4964,16.83532 0.0522,0.0522 3.32785,-1.32359 7.27912,-3.0574 l 7.18414,-3.15238 2.07409,-3.08896 c 5.15119,-7.67173 9.34814,-13.22245 12.79286,-16.91934 3.92432,-4.2116 10.47523,-9.976021 14.19113,-12.487377 3.44206,-2.326288 12.36273,-6.205888 23.37432,-10.1655 2.24259,-0.806402 7.98848,-2.923018 12.76866,-4.703592 l 8.69125,-3.237411 0.6992,0.53769 c 1.52221,1.170568 5.93584,5.716549 7.82011,8.054609 6.54178,8.117192 11.57859,18.634291 14.49764,30.271831 2.88109,11.48604 4.20944,23.27388 4.23279,37.56178 0.0136,8.25472 -0.23607,12.93054 -1.16061,21.74629 -2.34499,22.36027 -8.24194,50.46672 -15.21712,72.52883 -9.28062,29.35422 -28.74188,63.28888 -50.73564,88.46788 -3.59502,4.11565 -8.30415,9.01977 -8.66117,9.01977 -0.66691,0 -10.22359,-3.28639 -14.57431,-5.01188 -2.44646,-0.97026 -6.72776,-2.89293 -9.51401,-4.27263 -16.12395,-7.98428 -28.23402,-17.25134 -37.50316,-28.69876 -1.88602,-2.32925 -4.60124,-6.16354 -4.81165,-6.79477 -0.0974,-0.29212 -13.78074,7.62311 -13.78074,7.97157 0,0.26738 5.48223,6.68565 8.62516,10.09779 5.75623,6.24932 13.40686,12.46957 21.52311,17.4991 11.89591,7.37172 20.99403,11.62366 34.34555,16.05116 3.46378,1.14862 6.33099,2.12159 6.37156,2.1622 0.20179,0.20177 -8.27709,7.08677 -13.90492,11.29102 -13.86187,10.35548 -28.05805,19.03305 -41.42531,25.32168 -20.31866,9.5589 -34.57771,14.77937 -52.50466,19.22278 -13.83284,3.42863 -22.14935,4.6305 -31.57829,4.56359 -2.86914,-0.0203 -5.55022,-0.0759 -5.95797,-0.12346 z m 54.43257,-123.39717 c 1.743,-0.74982 3.62196,-2.80128 4.12873,-4.50778 0.78846,-2.65503 0.23022,-5.53999 -1.45237,-7.50571 -2.73511,-3.19536 -8.07209,-3.44063 -11.08794,-0.50956 -1.66342,1.61666 -2.28203,3.1049 -2.27759,5.47938 0.003,1.52803 0.13188,2.2575 0.56821,3.21252 1.76823,3.87023 6.16301,5.53381 10.12096,3.83115 z m 2.63425,-20.18972 2.33694,-1.16087 0.41401,-1.86631 c 0.33618,-1.51539 3.21524,-10.25889 3.92979,-11.93447 0.17288,-0.40537 0.12785,-0.40732 -0.76878,-0.0332 -0.52383,0.21857 -1.69427,0.77073 -2.60097,1.22702 -1.59139,0.80084 -1.66204,0.87599 -2.03732,2.1669 -0.21382,0.73552 -1.16781,3.75191 -2.11998,6.70309 -1.63274,5.06057 -1.89813,6.0587 -1.61092,6.0587 0.0662,0 1.17191,-0.52239 2.45723,-1.16087 z m 8.70875,-24.67544 c 2.00249,-0.43032 2.01756,-0.43932 2.00626,-1.19896 -0.0301,-2.02316 1.72434,-9.43226 3.27025,-13.81036 0.53805,-1.52378 0.97923,-2.84612 0.9804,-2.93853 0.001,-0.0924 -1.11259,0.3451 -2.475,0.97225 l -2.47713,1.14028 -0.59382,1.99315 c -0.32661,1.09623 -1.33508,4.71761 -2.24106,8.04751 -0.90598,3.3299 -1.70837,6.26003 -1.78308,6.51139 -0.12722,0.42801 -0.0904,0.43353 0.57984,0.0869 0.39363,-0.20355 1.62363,-0.5652 2.73334,-0.80366 z m 6.66219,-25.09997 2.348,-1.26577 -0.16208,-1.5143 c -0.31324,-2.92659 1.10028,-8.843 3.19687,-13.3808 0.4999,-1.08197 0.73263,-1.84159 0.56123,-1.83186 -0.16105,0.009 -1.34924,0.53736 -2.64043,1.17381 l -2.34761,1.15718 -0.94054,2.47117 c -1.28791,3.38384 -2.3415,7.47002 -2.61989,10.16086 -0.2091,2.02112 -0.13001,4.29548 0.14938,4.29548 0.0589,0 1.16367,-0.5696 2.45507,-1.26577 z m 9.63411,-25.36869 c 0.52138,-1.68779 2.35837,-5.52766 5.20804,-10.88634 1.83108,-3.44328 3.28045,-6.30929 3.22082,-6.36892 -0.2093,-0.2093 -5.12181,2.20532 -5.12181,2.5175 0,0.17364 -1.89045,4.0406 -4.20099,8.59324 -2.31055,4.55265 -4.20099,8.45365 -4.20099,8.6689 0,0.51901 4.90563,-1.91158 5.09493,-2.52438 z m 9.1143,-22.5307 2.22405,-1.03249 2.62639,-4.86411 c 1.44451,-2.67525 2.59423,-4.90055 2.55491,-4.94511 -0.0393,-0.0446 -1.14992,0.39934 -2.46802,0.98641 l -2.39654,1.06742 -0.83664,1.66134 c -0.46016,0.91375 -1.67125,3.11384 -2.69132,4.88911 -1.02007,1.77527 -1.85468,3.29234 -1.85468,3.37127 0,0.17832 0.10932,0.1347 2.84185,-1.13384 z m 12.43978,-14.20027 c 1.52959,-0.7751 2.80967,-2.0617 3.55367,-3.57181 0.80508,-1.63405 0.80592,-5.11822 0.002,-6.63497 -0.82222,-1.55052 -1.84287,-2.60342 -3.3133,-3.41797 -1.18211,-0.65477 -1.53852,-0.72811 -3.53856,-0.72811 -1.81591,0 -2.43389,0.10339 -3.36753,0.56338 -5.15792,2.54124 -5.87215,9.57858 -1.32421,13.04747 2.23051,1.70129 5.49649,2.00466 7.9882,0.74201 z"
       id="path3481"
       inkscape:connector-curvature="0"
       transform="translate(0,552.36215)" />
  </g>
</svg>
