<?xml version="1.0" encoding="UTF-8" standalone="no"?>
<!-- Created with Inkscape (http://www.inkscape.org/) -->

<svg
   xmlns:dc="http://purl.org/dc/elements/1.1/"
   xmlns:cc="http://creativecommons.org/ns#"
   xmlns:rdf="http://www.w3.org/1999/02/22-rdf-syntax-ns#"
   xmlns:svg="http://www.w3.org/2000/svg"
   xmlns="http://www.w3.org/2000/svg"
   xmlns:sodipodi="http://sodipodi.sourceforge.net/DTD/sodipodi-0.dtd"
   xmlns:inkscape="http://www.inkscape.org/namespaces/inkscape"
   width="210mm"
   height="297mm"
   viewBox="0 0 744.09448819 1052.3622047"
   id="svg3375"
   version="1.1"
   inkscape:version="0.91 r13725"
   sodipodi:docname="down-arrow.svg">
  <defs
     id="defs3377" />
  <sodipodi:namedview
     id="base"
     pagecolor="#ffffff"
     bordercolor="#666666"
     borderopacity="1.0"
     inkscape:pageopacity="0.0"
     inkscape:pageshadow="2"
     inkscape:zoom="0.98994949"
     inkscape:cx="1044.5487"
     inkscape:cy="363.34101"
     inkscape:document-units="px"
     inkscape:current-layer="layer1"
     showgrid="false"
     inkscape:window-width="3730"
     inkscape:window-height="2112"
     inkscape:window-x="110"
     inkscape:window-y="48"
     inkscape:window-maximized="1" />
  <metadata
     id="metadata3380">
    <rdf:RDF>
      <cc:Work
         rdf:about="">
        <dc:format>image/svg+xml</dc:format>
        <dc:type
           rdf:resource="http://purl.org/dc/dcmitype/StillImage" />
        <dc:title></dc:title>
      </cc:Work>
    </rdf:RDF>
  </metadata>
  <g
     inkscape:label="Layer 1"
     inkscape:groupmode="layer"
     id="layer1">
    <path
       style="fill:#4d4d4d"
       id="path3360"
       d="m 433.35139,917.21462 c 10.48378,-11.68872 21.72896,-22.77857 32.64949,-34.12189 2.7517,-2.83691 5.49951,-5.67709 8.25523,-8.51076 5.7959,-5.9597 11.71687,-11.81829 17.42851,-17.84571 9.1484,-9.65428 17.77233,-19.71607 26.45357,-29.71976 3.07729,-3.58499 6.1709,-7.15833 9.23196,-10.75495 9.36819,-11.00756 18.6414,-22.07662 28.21153,-32.93963 6.23008,-7.07157 12.55298,-14.07413 18.82499,-21.11461 14.49361,-16.12546 28.69446,-32.4485 41.87437,-49.4952 8.40134,-11.40019 16.65281,-22.88547 25.24179,-34.17015 8.30517,-11.35456 17.5378,-22.06773 27.41971,-32.29849 6.92626,-6.91459 14.25227,-13.47964 20.74528,-20.74735 2.82562,-3.35579 5.02942,-7.09547 6.90307,-10.95666 0.98035,-2.22439 2.02353,-4.39091 3.49929,-6.37837 1.30874,-1.47289 2.12799,-3.11973 2.53807,-4.96619 0.28541,-1.69884 0.26786,-3.42336 0.2696,-5.13743 -0.0135,-2.37531 -1.87112,-3.35185 -4.07236,-4.11257 -7.30821,-1.40822 -14.87679,-1.27144 -22.31197,-1.38443 -13.90352,-0.14936 -27.80838,-0.0985 -41.71244,-0.0962 -15.69589,-0.0931 -31.37197,-0.82207 -47.04574,-1.5168 -14.38098,-0.62936 -28.74294,-1.4157 -43.0334,-3.04568 -7.76115,-0.93107 -15.44477,-2.40098 -22.77199,-4.94201 -3.30603,-1.27452 -6.42938,-2.94877 -8.70791,-5.51688 -1.38,-1.78615 -1.62616,-3.86343 -1.72273,-5.9816 8.1e-4,-6.08729 0.13126,-12.17464 0.20197,-18.2617 0.56986,-17.90122 0.86317,-35.80669 1.06111,-53.71412 0.0335,-24.05472 0.5751,-48.09583 2.14995,-72.1078 1.90018,-25.53548 5.33854,-50.9458 9.15523,-76.29198 3.315,-20.68224 6.66161,-41.36375 8.85522,-62.17452 1.5051,-15.70284 1.7396,-31.47151 1.89469,-47.2237 -0.16339,-15.24884 -0.58406,-30.4937 -0.77009,-45.7426 -0.0374,-14.39931 -0.50277,-28.79226 -0.81308,-43.18771 -0.10978,-12.14247 -0.66133,-24.27463 -1.00312,-36.41217 -0.25486,-10.15246 -0.36764,-20.307374 -0.46058,-30.461957 -0.0603,-7.221398 -0.0402,-14.442991 -0.0455,-21.664494 0,-5.771096 -0.0228,-11.54217 -0.0468,-17.313223 -0.18443,-2.916107 0.30858,-5.903112 -0.36776,-8.777645 -0.15027,-0.235957 -0.25152,-0.504565 -0.45094,-0.707861 -1.90969,-1.947691 -9.21683,-2.261916 -11.69853,-2.495787 -14.3925,-0.757175 -28.81741,-1.007523 -43.22959,-1.313543 -23.33155,-0.621974 -46.6595,0.380636 -69.97579,1.039206 -24.37393,0.743436 -48.765,0.467677 -73.12365,-0.507424 -20.73548,-0.751055 -41.44017,-2.045436 -62.15596,-3.135543 -16.53577,-0.741698 -32.99384,-2.401715 -49.49357,-3.575677 -11.66077,-0.890723 -23.36531,-0.881768 -35.04896,-1.275131 -7.2663,-0.304575 -14.53488,-0.541815 -21.80759,-0.658005 -5.35862,-0.07424 -10.7179,-0.0687 -16.07692,-0.05771 -3.56718,0.0066 -7.13437,0.01728 -10.70156,0.02565 -2.81879,0.0054 -5.63758,-0.0022 -8.45625,0.0066 -2.00076,0.142071 -4.09071,-0.25675 -6.04942,0.186645 -3.4575,3.737137 0.67741,-0.861573 11.04671,-5.435121 0.36762,-0.162146 -0.34621,0.690775 -0.3892,1.062108 -0.0844,0.734925 -0.0482,1.47997 0.0134,2.21707 0.16889,2.129498 0.88861,6.38431 1.18942,8.295958 3.07258,17.210412 7.4408,34.195117 11.56472,51.211913 5.49162,24.106178 12.77505,47.814918 19.38536,71.671238 4.97905,18.3875 9.95343,36.78675 14.01188,55.36733 3.01311,13.79471 3.45134,16.85305 6.0016,30.76758 5.27036,32.07121 7.99085,64.42407 10.92254,96.72554 2.18987,26.79196 5.06652,53.53454 9.3699,80.11345 3.29465,20.14589 7.1897,40.20165 10.83269,60.29544 2.56727,15.13917 5.13215,30.28636 6.95624,45.5179 1.2138,10.52526 1.47938,21.11092 1.66366,31.68461 0.0885,6.33156 0.0964,12.66378 0.10712,18.99578 -3.9e-4,3.18866 0.0201,6.37729 0.0336,9.56592 -0.063,0.82004 0.12723,1.67222 -0.0455,2.48776 -0.0991,0.46933 -0.38371,1.30225 -0.88514,1.57551 -4.38228,2.38831 -8.89378,4.57216 -13.34075,6.85824 -7.21768,0.73881 -14.52389,0.51977 -21.77572,0.51897 -16.94342,-0.0103 -33.88432,0.0238 -50.82092,-0.45004 -16.85423,-0.65165 -33.72469,-0.8249 -50.573569,-1.58143 -14.064638,-0.57039 -28.099551,-1.54725 -42.122407,-2.66749 -7.938741,-0.66399 -15.896507,-1.10421 -23.865123,-1.29811 -0.646071,0.035 -1.301926,-0.002 -1.938479,0.10499 -0.470497,0.0796 -0.898934,0.30042 -1.348402,0.45062 3.759105,-1.90106 7.432364,-3.95154 11.277188,-5.70322 0.360271,-0.16416 -0.595179,0.53908 -0.714377,0.89086 -0.436204,1.2866 0.03478,3.07224 0.210411,4.27083 2.277988,8.9028 7.132759,16.98765 12.209058,24.77646 5.151154,7.2725 10.147357,14.65119 15.856201,21.576 2.421833,2.93761 7.065133,8.17158 9.570527,11.02069 11.402006,12.63676 22.206573,25.70542 33.032942,38.7553 12.87348,15.72864 26.26634,31.09753 38.87786,47.00346 2.13414,2.73894 4.27954,5.47066 6.40258,8.2168 4.35322,5.63093 8.10523,10.51119 12.25019,16.26217 5.86753,8.14095 11.33129,16.51378 16.88262,24.83577 10.35925,15.85751 21.53559,31.25086 32.9554,46.48085 11.39089,15.20044 23.50433,29.93439 35.44848,44.77181 10.88503,13.18324 20.89245,26.95273 31.71012,40.17632 6.7713,7.92503 14.13308,15.40355 20.87705,23.34852 4.30701,5.07392 4.39246,5.31238 8.37241,10.48809 6.44236,8.80489 12.10085,18.07051 17.20822,27.57345 3.55848,6.9193 6.57923,14.04979 9.72547,21.12931 1.3768,2.7176 2.30626,5.78894 4.5181,8.08214 1.27753,1.3247 1.85034,1.5537 3.42266,2.5397 3.16514,1.6557 6.3647,2.499 9.98117,1.9863 0.48818,-0.1373 0.9837,-0.255 1.46464,-0.4123 1.05536,-0.3454 3.99737,-1.8545 3.0221,-1.349 -3.49352,1.8109 -6.92919,3.7185 -10.48031,5.4331 -0.65155,0.3145 1.19893,-0.7863 1.76008,-1.2229 0.63054,-0.4906 1.20697,-1.0367 1.81045,-1.5551 7.43063,-6.3922 13.08509,-14.2006 19.05589,-21.70066 14.3321,-17.13035 29.62902,-33.56212 44.86245,-50.02106 15.41733,-16.71393 30.2866,-33.84434 44.91295,-51.1407 9.93227,-11.99308 19.53922,-24.20941 29.02806,-36.49843 3.58741,-4.76138 7.11603,-9.55937 10.89455,-14.19656 0.2092,-0.2524 0.41826,-0.50479 0.62733,-0.75717 0,0 13.09968,-5.13328 13.09968,-5.13328 l 0,0 c -0.22473,0.25308 -0.44959,0.50617 -0.67447,0.75925 -3.98369,4.62494 -7.62736,9.4782 -11.30463,14.3084 -9.64995,12.33037 -19.40478,24.59493 -29.39303,36.69802 -14.70468,17.33268 -29.67602,34.48032 -45.11062,51.27495 -15.13325,16.35142 -30.29987,32.69928 -44.47057,49.76562 -5.8417,7.44682 -11.23901,15.2978 -18.48415,21.70522 -5.2899,5.0531 -8.7841,5.9995 -17.20553,10.3902 -1.47723,0.7703 -3.16085,1.157 -4.82544,1.3851 -3.77158,0.1192 -7.32094,-0.9052 -10.498,-2.7813 -1.67102,-1.134 -2.29406,-1.4242 -3.66335,-2.8933 -2.2512,-2.4151 -3.23665,-5.551 -4.6062,-8.4036 -3.05531,-7.08551 -6.0079,-14.2127 -9.53289,-21.11923 -5.04537,-9.45673 -10.5584,-18.72464 -16.94974,-27.4836 -3.84603,-5.0441 -4.10853,-5.51059 -8.26794,-10.45902 -6.70702,-7.9792 -14.03865,-15.49168 -20.80794,-23.42564 -10.82639,-13.21869 -20.78959,-27.01763 -31.62804,-40.23333 -11.92821,-14.86447 -24.05156,-29.6075 -35.45664,-44.8147 -11.42022,-15.25535 -22.6496,-30.64442 -32.95204,-46.55915 C 152.1847,770.93359 140.80263,754.29455 127.91268,738.50689 115.2922,722.61405 101.90725,707.24546 88.953284,691.5801 78.08604,678.56348 67.225102,665.53921 55.776366,652.94284 c -2.60827,-2.95747 -7.113887,-8.01774 -9.629332,-11.06221 -5.74166,-6.94937 -10.791829,-14.34192 -16.024017,-21.61168 -5.225626,-7.89441 -10.14563,-16.07946 -12.731246,-25.06682 -0.141167,-0.6907 -1.318261,-5.78378 -0.305762,-6.41865 7.611289,-4.77186 9.801959,-7.25402 16.702501,-7.17735 7.891999,0.31358 15.772359,0.82252 23.633839,1.53576 13.96392,1.18268 27.950608,2.11193 41.960072,2.71117 16.807369,0.75565 33.636029,0.95986 50.447679,1.63503 17.0104,0.45277 34.02361,0.36577 51.03949,0.25097 3.75857,-0.0369 7.35658,-0.0569 11.10429,-0.14781 3.00214,-0.0727 6.15897,-0.0588 9.12495,-0.59412 0.54187,-0.0978 1.0642,-0.27055 1.59643,-0.40583 -3.69777,2.01606 -7.42125,3.99295 -11.09316,6.04816 -0.24563,0.13752 0.55473,-0.15738 0.80411,-0.28918 1.04598,-0.55283 0.59945,-1.82554 0.68208,-2.72351 0.0215,-3.20741 0.0589,-6.41469 0.0804,-9.6221 0.0549,-6.35572 0.11523,-12.71156 0.0912,-19.06756 -0.0791,-10.56603 -0.31889,-21.14101 -1.4199,-31.66641 -1.69916,-15.25094 -4.16654,-30.41875 -6.67796,-45.57303 -3.53022,-20.142 -7.41656,-40.23174 -10.62053,-60.42128 -4.18527,-26.66825 -6.9075,-53.49481 -9.02211,-80.36413 -2.87049,-32.27377 -5.554,-64.59995 -10.88691,-96.6317 -0.94834,-5.15737 -1.82839,-10.32563 -2.84518,-15.47209 -4.68308,-23.70441 -10.90111,-47.12189 -17.3317,-70.47085 -6.70325,-23.82604 -14.01535,-47.5176 -19.63044,-71.589817 -4.22638,-16.969452 -8.65271,-33.906217 -12.15828,-51.016841 -0.17613,-0.969513 -1.27541,-6.935742 -1.47363,-8.307631 -0.11786,-0.811271 -0.22633,-1.626063 -0.25313,-2.444007 -0.0161,-0.498848 -0.30749,-1.18783 0.12456,-1.492883 10.09259,-7.131387 7.83629,-6.619376 13.43049,-7.643464 2.04227,-0.0701 4.08723,-0.0087 6.13058,-0.02283 2.81384,0.0087 5.62754,2.29e-4 8.44125,0.0022 3.54803,0.0054 7.09607,0.0087 10.64397,0.01445 5.34536,0.01565 10.69099,0.02946 16.0354,0.116408 7.23401,0.150656 14.46119,0.454133 21.68892,0.763294 11.63182,0.399277 23.28012,0.528869 34.88463,1.449646 16.43438,1.241872 32.83379,2.889053 49.30808,3.664662 20.67039,1.135888 41.33169,2.45118 62.02512,3.196878 24.3012,0.911809 48.63186,1.410212 72.94606,0.5155 23.41955,-0.672353 46.84688,-1.697864 70.28382,-1.165387 14.55952,0.254208 29.13389,0.414559 43.67438,1.149735 3.53785,0.342247 8.50915,0.448004 11.57611,2.418562 1.05857,0.680091 1.13826,1.039011 1.73357,1.999906 0.82312,2.974887 0.29613,6.06003 0.40473,9.09899 -0.0253,5.78728 -0.0482,11.574549 -0.0576,17.361862 -0.0135,7.229514 0,14.459047 -0.0188,21.688568 0,10.168634 0.0361,20.337904 0.30415,30.504114 0.34018,12.158 0.83945,24.31205 0.8866,36.47553 0.30402,14.40812 0.7737,28.81342 0.75455,43.22569 0.21134,15.25332 0.59411,30.50367 0.79863,45.75699 -0.1192,15.80801 -0.44465,31.627 -1.97197,47.38323 -2.26876,20.87275 -5.77514,41.60133 -9.11692,62.34851 -3.91031,25.32003 -7.38696,50.71376 -9.268,76.23702 -0.7141,11.21586 -0.98196,14.05172 -1.35026,25.19176 -0.51535,15.58715 -0.52887,31.18884 -0.65719,46.78093 -0.10036,17.82406 -0.2787,35.64744 -0.55473,53.46997 0.0495,6.01263 0.0964,12.02537 0.16139,18.03786 0.0589,1.82718 0.0964,3.67701 1.27218,5.24187 2.13911,2.36699 5.13898,3.83071 8.1947,5.0098 7.19677,2.46236 14.73026,3.91496 22.33754,4.8519 14.21263,1.64883 28.49999,2.47122 42.80825,3.07458 15.67874,0.69392 31.36258,1.38603 47.06356,1.42932 13.95776,-0.0177 27.91552,-0.0309 41.87315,0.0132 7.62375,0.0861 15.47933,-0.17988 22.90286,1.6181 2.58951,1.12109 4.74107,2.57334 4.97155,5.38656 0.0135,1.77822 0.0309,3.56168 -0.16338,5.33338 -0.29826,2.0034 -0.89318,3.90304 -2.28509,5.52265 -1.59336,1.87259 -2.73911,3.91321 -3.66375,6.1311 -1.8383,4.00043 -4.13169,7.83793 -6.92117,11.35181 -6.52312,7.37954 -13.94503,13.99783 -21.02784,20.91875 -9.94608,10.13684 -19.18942,20.79995 -27.44745,32.14714 -8.63679,11.33237 -17.02969,22.80949 -25.46223,34.26802 -13.28973,17.1558 -27.63856,33.55426 -42.29196,49.74944 -6.28687,7.04028 -12.62424,14.04316 -18.86732,21.11601 -9.57803,10.85092 -18.85929,21.90367 -28.1996,32.92464 -3.04404,3.59189 -6.12012,7.16097 -9.18026,10.74146 -8.64106,10.00517 -17.21517,20.08817 -26.32231,29.74649 -5.68005,6.02393 -11.59514,11.85913 -17.36224,17.81336 -2.73107,2.8196 -5.45008,5.64891 -8.17512,8.47336 -10.68214,11.20984 -21.80397,22.0968 -31.84915,33.79751 0,0 -13.03231,5.04656 -13.03231,5.04656 z"
       inkscape:connector-curvature="0" />
    <path
       style="fill:#999999"
       d="m 203.45566,26.123498 c 9.47076,0.352018 24.75295,1.27349 33.96053,2.047654 53.9416,4.535224 127.11601,7.055173 168.8456,5.814757 55.51257,-1.650202 114.77422,-0.730133 120.71825,1.874281 l 2.68739,1.177472 0.58487,45.50253 c 0.32169,25.026348 1.12996,69.331228 1.79625,98.455358 1.32361,57.86442 0.87442,93.27448 -1.43237,112.90795 -0.82016,6.98016 -3.1895,23.71942 -5.26526,37.19835 -11.89446,77.23438 -12.93053,90.10597 -14.43347,179.30662 -1.2288,72.92976 -1.9563,66.32205 7.79142,70.77433 14.8966,6.8041 39.78642,8.96411 118.57967,10.2906 27.09668,0.45618 51.81695,1.04162 54.93414,1.30097 11.02487,0.9173 11.61428,4.22936 3.42789,19.26158 -5.15718,9.47003 -6.90856,11.7022 -17.45852,22.25137 -22.67195,22.67048 -26.72839,27.51021 -55.82878,66.60993 -15.78254,21.20576 -26.08473,33.61652 -54.28138,65.39136 -10.76972,12.1364 -27.23249,31.04192 -36.58378,42.01225 -28.83883,33.83172 -48.86838,55.97436 -49.83375,55.09117 -0.20651,-0.18891 5.62594,-7.97691 12.96081,-17.30667 7.33486,-9.32974 13.01558,-17.07346 12.62356,-17.20824 -0.39187,-0.13479 -3.47209,0.88981 -6.84468,2.27692 -6.0154,2.474 -6.3217,2.77013 -16.09902,15.56203 -24.35624,31.86612 -47.21209,58.72262 -87.07432,102.31608 -12.76553,13.96031 -28.07316,31.29039 -34.0169,38.51123 -5.94375,7.22085 -12.28849,14.68342 -14.09934,16.58342 l -3.29236,3.4548 -4.31398,-1.5075 c -2.37267,-0.829 -5.21021,-2.3836 -6.30575,-3.4546 -1.09554,-1.0709 -4.84567,-8.24912 -8.3337,-15.95137 -11.06639,-24.43719 -20.64347,-38.87484 -40.65829,-61.29371 -6.86371,-7.68805 -16.64519,-19.29543 -21.73662,-25.7942 -5.09142,-6.49877 -18.08316,-22.84031 -28.87043,-36.31453 -25.02924,-31.2636 -39.92517,-51.09984 -54.6916,-72.83059 -21.30067,-31.34668 -25.70156,-37.61957 -34.05549,-48.54033 -11.03423,-14.42466 -54.96079,-67.40003 -75.5594,-91.12454 -17.389417,-20.02817 -28.432498,-34.6137 -35.294726,-46.61657 -4.145228,-7.25044 -6.890629,-14.05105 -6.001073,-14.86497 0.264503,-0.24192 11.633703,0.33911 25.264955,1.29116 33.327442,2.32769 72.572124,3.59706 117.577474,3.80309 l 37.30861,0.17079 6.21817,-3.3576 c 3.42,-1.8467 6.81818,-3.81287 7.55169,-4.36928 1.11121,-0.84297 1.24072,-5.68299 0.77638,-29.02684 -0.69428,-34.90313 -1.4712,-41.25445 -12.63401,-103.28714 C 202.92048,403.70035 200.33447,384.8523 196.27295,339.41678 187.50089,241.2854 183.42611,218.85054 157.96147,128.48024 148.40835,94.577398 138.3455,53.139567 133.67782,28.482313 l -0.6213,-3.282222 26.58992,0.141625 c 14.62446,0.07793 34.3386,0.429666 43.80922,0.781782 z"
       id="path3366"
       inkscape:connector-curvature="0" />
    <path
       style="fill:#000000"
       id="path3393"
       d="m 343.09024,1015.7791 c 0.81884,-1.0046 1.60526,-2.0319 2.45652,-3.0138 2.51035,-2.8956 6.07621,-6.614 8.65125,-9.3054 7.30874,-7.63887 14.74994,-15.1686 22.0749,-22.79478 13.98215,-15.02819 27.99053,-30.04221 41.75825,-45.236 9.81629,-10.83307 15.39121,-17.2533 25.11214,-28.3011 18.84228,-21.70786 37.24445,-43.73221 56.00892,-65.49575 9.05705,-10.50453 20.73763,-23.77975 29.88013,-34.20529 26.25696,-29.42669 51.20035,-59.79678 76.51927,-89.89483 16.5103,-19.70631 32.85388,-39.52645 48.68665,-59.69356 7.28035,-9.41397 14.49187,-18.87435 21.3778,-28.53454 1.83469,-2.73667 3.93563,-5.32996 5.57223,-8.17507 0,0 28.75848,-11.90836 28.75848,-11.90836 l 0,0 c -1.66487,3.19993 -4.07263,5.96756 -6.27455,8.86525 -7.49357,9.89701 -15.27831,19.60492 -23.05674,29.31508 -16.57071,20.46694 -33.7512,40.50374 -50.82629,60.61861 -25.8912,30.25489 -51.30802,60.8559 -78.01431,90.51971 -4.74562,5.42332 -25.07879,28.63799 -29.82133,34.14895 -18.56451,21.5728 -36.55754,43.5531 -55.07584,65.15913 -12.59478,14.56722 -12.00121,13.97369 -24.5471,28.1272 -17.71579,19.98601 -5.02794,5.59428 -21.87334,24.35093 -18.78643,20.9179 -0.75402,1.10595 -18.32799,20.33292 -2.66746,2.89733 -5.31495,5.80999 -8.00222,8.69195 -7.63314,8.18648 -15.55729,16.19089 -22.49049,24.89625 0,0 -28.54634,11.5325 -28.54634,11.5325 z"
       inkscape:connector-curvature="0" />
    <path
       style="fill:#000000"
       id="path3405"
       d="m 508.70066,561.55513 c 0.30469,-7.0269 -0.11384,-14.05994 -0.5692,-21.07337 -0.41973,-6.95792 -0.95705,-13.91447 -1.09246,-20.88412 -0.0937,-4.8006 0,-7.13237 0.0777,-11.96477 0.34915,-12.1192 0.50424,-24.24274 0.0335,-36.35981 -0.72831,-10.76708 -1.1479,-21.54823 -1.7597,-32.32044 -0.69763,-9.21341 -1.367,-18.42665 -1.94946,-27.64697 -0.91567,-9.44431 -1.13798,-18.90827 -0.97232,-28.38239 0.11786,-9.56976 0.73072,-19.12251 1.25263,-28.6782 0.3726,-9.55665 0.94514,-19.10456 1.42755,-28.65674 0.48442,-9.57692 1.20415,-19.1388 2.05192,-28.69378 1.02294,-9.48917 1.86951,-18.99032 2.64777,-28.49836 0.97272,-9.36512 1.71014,-18.74421 2.31388,-28.13429 0.85955,-9.32077 1.58491,-18.64411 2.13723,-27.98436 0.71786,-9.55651 1.67411,-19.09439 2.42853,-28.6489 0.70982,-8.80019 1.32642,-17.6009 1.62791,-26.42122 0.21829,-8.07878 0.28084,-16.15984 0.0884,-24.23913 -0.41491,-7.63184 -0.85809,-15.25977 -1.04357,-22.89974 -0.1259,-7.24951 -0.97031,-14.46659 -1.73652,-21.677086 -0.61768,-5.702802 -1.73129,-11.342425 -3.1188,-16.926407 -1.03138,-3.782097 -2.3487,-7.484107 -3.21817,-11.302893 -0.45213,-2.12139 -0.59678,-4.278854 -0.67459,-6.434276 -0.0388,-1.363856 -0.0295,-2.728298 -0.0242,-4.092448 0.0174,-0.925298 0.0322,-1.849119 0.0135,-2.774558 0,0 28.14444,-13.115768 28.14444,-13.115768 l 0,0 c -0.0215,0.927744 -0.0135,1.854031 -0.001,2.781732 -0.0134,1.359638 -0.0309,2.719136 -0.0589,4.078558 -0.0267,2.034665 -0.0174,4.074808 0.26774,6.096735 0.60535,3.855643 1.80829,7.579673 2.81235,11.358634 1.36313,5.723381 2.52737,11.491805 3.11491,17.330707 0.7117,7.294833 1.39259,14.599954 1.6859,21.920007 0.20878,7.650203 0.54295,15.295203 0.96147,22.938223 0.22568,8.13626 0.26907,16.27121 -0.071,24.40688 -0.33026,8.87122 -0.85206,17.73242 -1.67879,26.57758 -0.8226,9.534 -1.71148,19.063 -2.45398,28.60232 -0.60562,9.33925 -1.13718,18.68135 -2.11607,27.99666 -0.707,9.39521 -1.25358,18.80253 -2.28375,28.17511 -0.91566,9.49676 -1.62883,19.0084 -2.62286,28.49883 -0.93335,9.53062 -1.77549,19.06144 -2.1553,28.62755 -0.53157,9.54826 -1.10157,19.09249 -1.38616,28.65042 -0.5775,9.53569 -1.26456,19.06547 -1.34719,28.62002 -0.0764,2.93372 -0.19809,6.64796 -0.16956,9.58101 0.0603,6.20546 0.67594,12.38825 1.11255,18.57675 0.5637,9.24804 1.18339,18.49025 1.86375,27.7313 0.39616,10.82842 0.79446,21.65497 1.5154,32.47085 0.35732,12.16454 0.30308,24.33813 -0.0468,36.5027 -0.1259,10.82762 0.2708,21.65473 1.30406,32.44485 0.66121,6.92104 1.0125,13.85938 1.69822,20.77515 0,0 -28.03085,13.06745 -28.03085,13.06745 z"
       inkscape:connector-curvature="0" />
    <path
       style="fill:#000000"
       id="path3409"
       d="m 661.21876,640.70948 c 4.30982,-6.45085 9.4212,-12.39871 14.27517,-18.50419 5.72423,-7.11912 10.66138,-14.70829 15.3233,-22.43544 0.96362,-1.56647 1.87273,-3.15902 2.72531,-4.77805 0.18884,-0.3585 0.49459,-1.02149 0.58085,-0.96554 0.12455,0.0806 0.0656,0.27229 0.0991,0.40844 -0.15548,0.11323 -0.272,0.30252 -0.46647,0.33958 -0.4291,0.0817 -0.87669,0.007 -1.31491,-3.8e-4 -0.62049,-0.0111 -1.24044,-0.0414 -1.8608,-0.0574 -2.83031,-0.073 -5.66076,-0.0979 -8.492,-0.11971 -9.68545,0.0712 -19.35308,-0.38278 -29.00358,-1.09081 -12.33562,-1.08823 -24.5542,-2.99379 -36.7603,-4.91146 -13.6579,-2.09078 -27.43566,-3.25566 -41.23432,-4.19148 -11.43684,-0.7228 -22.85036,-1.71646 -34.25718,-2.75505 -7.05898,-0.52288 -13.98992,-1.78638 -20.90625,-3.11244 -3.08117,-0.84255 -6.44357,-1.25569 -9.28379,-2.69777 -3.23719,-1.95997 -2.86233,-5.56846 -2.69009,-8.68931 0.81402,-7.80744 2.30571,-15.53686 3.45643,-23.30621 0,0 26.54303,-11.95979 26.54303,-11.95979 l 0,0 c -1.13143,7.45829 -2.20541,14.943 -2.42451,22.48017 0,0.57289 -0.19486,4.32217 0.45254,5.05974 0.18403,0.20953 0.76246,0.44154 0.96603,0.53761 2.75544,0.9849 5.60892,1.75357 8.48063,2.39419 6.64687,1.43977 13.36687,2.56175 20.16776,3.19609 11.24156,1.1563 22.49302,2.23555 33.77852,2.9709 13.82303,1.01502 27.60588,2.40056 41.29807,4.4408 12.28098,1.79077 24.5799,3.54735 36.98383,4.46472 9.77827,0.61338 19.56281,0.91759 29.3645,0.60105 2.96827,-0.0165 5.95554,-0.0994 8.92206,0.0454 0.96079,0.047 2.93907,0.1621 3.88526,0.54711 0.55755,0.22688 1.0014,0.63823 1.50201,0.95735 0.67621,0.97264 1.19786,1.32004 1.12005,2.47974 -0.0549,0.82502 -0.662,1.71139 -1.06125,2.39343 -1.155,1.97312 -1.0563,1.76186 -2.4284,3.86879 -5.15303,7.68387 -10.01717,15.53844 -15.75293,22.88496 -4.87862,6.40575 -1.1988,1.64105 -5.96278,7.64521 -0.61888,0.77999 -3.97446,5.03528 -4.67115,6.02103 -0.95023,1.34456 -1.7191,2.79126 -2.66545,4.13843 0,0 -28.68803,11.70019 -28.68803,11.70019 z"
       inkscape:connector-curvature="0" />
    <path
       style="fill:#000000"
       id="path3411"
       d="m 154.99509,35.612472 c 5.70858,-0.559521 11.43188,-0.89968 17.16803,-1.113736 11.02193,-0.368029 22.04398,-0.102174 33.05318,0.412895 10.17494,0.552325 20.32579,1.41892 30.50048,1.97369 7.86535,0.428862 9.98692,0.464992 17.89299,0.743165 19.38334,0.946015 38.792,0.974959 58.19396,0.719534 17.25548,-0.484968 34.51125,-0.460676 51.76498,0.01794 13.64746,0.353702 27.28848,0.875887 40.93741,1.187309 1.90138,0.02967 3.80277,0.06369 5.70428,0.08913 3.95934,0.05293 6.6817,0.100871 10.62776,0.01229 4.95148,-0.111865 9.87698,-0.480578 14.81023,-0.858475 9.39,-0.807782 18.71276,-2.12677 28.03768,-3.39575 7.99151,-1.242513 16.06378,-1.938908 24.14946,-2.391694 4.97384,-0.267608 9.95678,-0.259901 14.93704,-0.281183 3.26277,-0.01641 6.52554,-0.01783 9.78818,-0.04608 1.52396,0.124963 2.95218,-0.168351 4.41093,-0.517848 0,0 -25.24393,17.38121 -25.24393,17.38121 l 0,0 c -1.53228,0.114083 -3.06053,0.05619 -4.59642,0.03239 -3.19005,-0.04229 -6.38022,-0.06511 -9.57041,-0.08771 -4.85703,-0.01456 -9.71597,0.02674 -14.56834,0.23812 -7.93393,0.408221 -15.83369,1.172005 -23.67387,2.376542 -9.32759,1.255186 -18.66696,2.47818 -28.06767,3.181508 -10.34947,0.709699 -20.71353,0.841781 -31.08322,0.345052 -13.51178,-0.434581 -27.01419,-1.080075 -40.52824,-1.461581 -17.068,-0.502348 -34.13974,-0.63405 -51.21362,-0.235045 -3.83932,0.04641 -15.71302,0.2051 -19.54754,0.191156 -12.97192,-0.04717 -25.93325,-0.702254 -38.90155,-0.913473 -16.35763,-0.581596 -32.68995,-1.501796 -49.03432,-2.3151 -11.15759,-0.393287 -22.32255,-0.458882 -33.47236,0.204579 -5.95004,0.366105 -11.87437,0.932983 -17.79334,1.595815 0,0 25.31824,-17.083712 25.31824,-17.083712 z"
       inkscape:connector-curvature="0" />
    <path
       style="fill:#000000"
       id="path3419"
       d="m 149.9642,35.089342 c 2.25589,9.118391 4.16197,18.298323 6.06508,27.482635 3.39268,16.51675 7.33139,32.932148 11.15974,49.367263 4.55705,20.32872 8.48865,40.76894 12.62277,61.172 3.75201,20.23007 7.55129,40.45273 11.70669,60.617 3.92531,19.13342 7.90767,38.25699 11.85709,57.38641 3.74384,17.82269 7.37236,35.66596 11.33024,53.45028 3.89503,17.92873 8.44231,35.72846 12.66829,53.59242 4.25236,17.45267 7.77924,34.99549 10.96527,52.63253 2.82964,14.53087 4.89334,29.17021 7.03339,43.7952 1.48861,9.09147 2.65312,18.21877 3.25459,27.3953 0.31662,5.12509 0.43781,10.25604 0.51656,15.3878 0.0576,3.02092 0.0576,6.04208 0.0562,9.06329 0.0468,2.78829 -0.26706,5.56633 -0.4492,8.34668 -0.23733,2.48238 -0.45912,4.97157 -0.84254,7.43953 -0.32157,1.72062 -0.39363,3.47114 -0.67675,5.19469 -0.27441,1.22532 -0.46633,2.45987 -0.56397,3.70696 -0.0683,1.12582 -0.0857,2.25387 -0.0509,3.38086 0,0.10943 0.0134,0.21892 0.0147,0.32837 0,0 -28.22771,13.16666 -28.22771,13.16666 l 0,0 c 0,-0.11555 0.0134,-0.23103 0.0134,-0.34655 0.0336,-1.17552 0.0134,-2.35124 0.0347,-3.52696 0.0361,-1.36491 0.0991,-2.73516 0.40647,-4.07571 0.11246,-0.46036 0.28313,-0.90966 0.36187,-1.37582 0.21095,-1.24712 0.16059,-2.53893 0.48563,-3.77561 0.39911,-2.40616 0.71156,-4.81579 1.02027,-7.23441 0.16099,-2.73964 0.50491,-5.4711 0.54241,-8.21368 0.0134,-3.04625 0.0388,-6.09217 0.11246,-9.13784 0.0871,-5.16231 0.15656,-10.3271 0.0201,-15.48915 -0.33616,-9.22457 -1.09995,-18.42668 -2.36129,-27.58658 -1.78339,-14.70609 -3.71745,-29.39879 -6.36885,-43.99908 -3.04017,-17.62369 -6.43352,-35.1887 -10.70664,-52.60259 -4.18875,-17.87332 -8.79134,-35.66406 -12.78,-53.57768 -3.88567,-17.83048 -7.57781,-35.69376 -11.1588,-53.57752 -3.8503,-19.15529 -7.86187,-38.28179 -11.78557,-57.42461 -4.0204,-20.21374 -7.73571,-40.47472 -11.47914,-60.73255 -4.0456,-20.35318 -8.14582,-40.70416 -12.93884,-60.92303 -3.93711,-16.34641 -8.10015,-32.646376 -11.97724,-49.004954 -2.12812,-8.950803 -4.14669,-17.961617 -7.41629,-26.637136 0,0 27.53598,-13.664418 27.53598,-13.664418 z"
       inkscape:connector-curvature="0" />
    <path
       style="fill:#000000"
       id="path3423"
       d="m 69.763492,575.91132 c 7.817018,-0.35377 15.614199,-0.95055 23.434692,-1.26045 14.557366,-0.65985 29.123036,-0.18807 43.667396,0.46757 17.04001,0.86292 34.04479,2.20344 51.07232,3.23566 14.50353,1.01657 29.03813,1.49945 43.57927,1.70244 9.25032,0.0813 18.5013,0.0427 27.7508,-0.0848 3.15495,-0.047 6.31005,-0.0975 9.46367,-0.19887 0,0 -25.47897,16.94739 -25.47897,16.94739 l 0,0 c -2.97563,-0.0878 -5.95259,-0.12331 -8.92929,-0.16683 -9.01687,-0.12876 -18.03508,-0.21019 -27.04941,-0.458 -14.41045,-0.39624 -28.81286,-1.00048 -43.18043,-2.12396 -17.02393,-1.15944 -34.04479,-2.39057 -51.09831,-3.13617 -14.687272,-0.55553 -29.396506,-0.81278 -44.074273,0.15001 -8.170442,0.53675 -16.334462,1.17708 -24.475708,2.00965 0,0 25.318243,-17.08371 25.318243,-17.08371 z"
       inkscape:connector-curvature="0" />
    <path
       style="fill:#000000"
       id="path3427"
       d="m 46.500376,594.42623 c 3.561434,7.38182 8.332225,14.21309 13.103305,20.97565 8.631422,12.23044 18.583931,23.59778 28.190755,35.18173 12.368834,15.0211 24.294774,30.34505 36.198744,45.67628 13.67571,17.48554 27.01646,35.187 40.08214,53.05799 13.63151,18.93601 27.1749,37.92478 40.70624,56.9208 12.01914,17.06564 24.08437,34.1088 36.86959,50.70433 11.80795,15.08968 24.52178,29.55983 37.6595,43.69116 8.16227,8.90887 16.69728,17.55117 24.39495,26.80991 4.52196,5.43911 5.65044,7.15337 9.7788,12.77943 1.43773,2.05288 2.86165,4.11393 4.31316,6.15865 3.45844,4.87185 4.94987,6.95151 8.65928,11.62669 4.10814,5.17784 8.44233,10.20281 12.77384,15.22407 5.60144,6.71757 11.89567,12.89186 18.25246,19.00457 2.93906,2.63894 5.29821,5.69193 7.51339,8.84481 1.17617,1.8859 2.52803,3.6609 4.06647,5.312 1.29884,1.2707 2.61133,2.5165 3.71169,3.9397 0.83317,1.1443 1.56403,2.3393 2.46443,3.443 0,0 -27.25434,14.6693 -27.25434,14.6693 l 0,0 c -0.8041,-1.1441 -1.57552,-2.306 -2.38378,-3.4461 -1.05817,-1.3585 -2.37281,-2.5117 -3.54067,-3.7883 -1.56831,-1.7897 -2.94349,-3.6997 -4.15874,-5.7075 -2.00666,-3.0503 -4.19533,-5.9854 -6.82259,-8.6268 -6.03175,-6.4058 -11.98327,-12.87244 -17.48009,-19.67578 -8.99799,-10.79649 -17.88308,-21.69654 -25.43491,-33.40754 -4.10518,-5.70694 -5.01736,-7.15084 -9.51414,-12.68158 -7.55359,-9.29004 -15.85943,-18.04406 -24.03656,-26.87051 -2.20246,-2.33812 -4.44536,-4.64494 -6.60752,-7.01435 -10.88812,-11.93196 -21.08543,-24.39573 -31.06484,-36.96749 -12.68921,-16.68861 -24.69442,-33.79182 -36.57242,-50.9712 -13.429,-19.03805 -26.7612,-38.13499 -40.63285,-56.90799 C 126.55657,744.60307 113.2209,726.92193 99.460414,709.51483 87.420631,694.28299 75.286319,679.10836 62.70908,664.24266 52.873499,652.71273 42.856318,641.30223 33.789753,629.24346 c -5.061159,-6.71147 -9.954638,-13.52813 -14.565135,-20.50773 0,0 27.275758,-14.3095 27.275758,-14.3095 z"
       inkscape:connector-curvature="0" />
    <path
       style="fill:#b3b3b3"
       id="path4337"
       d="m 267.60154,105.8886 c 8.30278,3.8818 16.25384,8.37415 24.07233,13.01234 11.12517,7.17332 21.96306,14.71288 33.09227,21.88124 9.54856,6.15029 11.91227,7.48663 21.78306,13.46549 23.06505,13.70004 46.48688,26.87948 70.07116,39.81466 3.43929,1.79297 6.87843,3.58593 10.31772,5.3789 0,0 -23.78036,14.09065 -23.78036,14.09065 l 0,0 c -3.30815,-1.87525 -6.61646,-3.75049 -9.92477,-5.62572 -23.58549,-12.97938 -46.84017,-26.44004 -70.08615,-39.9203 -9.99588,-5.89255 -12.50008,-7.30072 -22.23575,-13.30167 -11.37923,-7.01401 -22.57875,-14.27323 -34.08455,-21.11585 -2.17634,-1.17081 -4.32642,-2.3834 -6.52901,-3.51243 -4.49264,-2.30302 -6.25728,-3.01004 -10.72943,-4.97072 -2.63839,-1.15674 -5.26084,-2.38771 -8.08097,-3.14338 0,0 26.11445,-16.05321 26.11445,-16.05321 z"
       inkscape:connector-curvature="0" />
    <path
       style="fill:#b3b3b3"
       id="path4339"
       d="m 240.05405,166.51597 c 9.93294,7.6388 19.94465,15.19067 29.88628,22.82119 21.37341,16.59774 42.12817,33.85146 62.81544,51.15741 3.95344,3.34785 7.88625,6.71611 11.86019,10.04356 3.96294,3.31833 7.98427,6.57807 11.95017,9.89348 16.55879,13.84273 6.67996,5.74544 22.90313,19.41567 3.91579,3.29963 17.25962,14.36796 21.3462,17.76122 3.30642,2.76689 6.58553,5.56147 9.91941,8.30067 7.3058,6.00259 11.55053,9.38657 19.16584,14.93746 7.8205,5.70051 15.91969,10.98927 24.18737,16.12432 1.89133,1.11313 3.78267,2.22626 5.67402,3.33938 0,0 -25.16237,14.66878 -25.16237,14.66878 l 0,0 c -1.74522,-1.21325 -3.49044,-2.4265 -5.23566,-3.63972 -2.65126,-1.85406 -12.6296,-8.81874 -14.7801,-10.38293 -12.96937,-9.4336 -25.33096,-19.55148 -37.29066,-30.03658 -7.0137,-5.98787 -14.05311,-11.95061 -21.04232,-17.96235 -11.01293,-9.47282 -11.43656,-10.03675 -22.68026,-19.48951 -3.96053,-3.32969 -7.98027,-6.60002 -11.95459,-9.91587 -3.97888,-3.31961 -7.93662,-6.66035 -11.90491,-9.99054 -13.55076,-11.08065 -9.9584,-8.19166 -23.39036,-18.98662 -3.69696,-2.97105 -7.36151,-5.97624 -11.10228,-8.901 -3.57254,-2.79341 -7.23454,-5.48982 -10.83587,-8.25218 -15.21577,-11.67085 -3.65774,-3.03198 -18.69497,-14.13409 -10.57258,-7.25848 -20.90249,-14.89447 -32.12128,-21.31464 0,0 26.48758,-15.45711 26.48758,-15.45711 z"
       inkscape:connector-curvature="0" />
    <path
       style="fill:#b3b3b3"
       id="path4341"
       d="m 262.51776,273.9019 c 1.92147,2.51903 3.63402,5.16983 5.58682,7.66894 2.18626,2.79763 10.98684,13.27449 12.69188,15.30156 10.37089,12.32994 7.13785,8.50086 18.50437,21.49886 3.73553,4.06031 7.43919,8.14536 11.20674,12.18091 9.68758,10.37689 15.21321,16.21196 25.55369,26.14337 5.11233,4.91012 22.61251,20.99961 27.99175,25.79426 4.52812,4.03612 9.15963,7.97405 13.73945,11.96107 4.483,3.73063 8.9439,7.48343 13.44884,11.19186 4.31264,3.55013 8.62606,7.10004 13.00325,10.58346 8.82229,7.02102 15.75563,12.14528 24.66308,19.00592 8.85188,6.81785 13.57741,10.5711 22.29818,17.43221 8.81208,7.06752 17.99945,13.72108 27.21307,20.33905 0,0 -24.62103,14.06796 -24.62103,14.06796 l 0,0 c -8.57638,-7.11839 -17.17486,-14.2159 -26.00222,-21.07488 -6.65491,-5.35038 -15.28272,-12.30342 -21.94928,-17.59546 -17.04843,-13.53322 -34.15192,-27.01146 -50.38192,-41.37772 -19.65535,-17.51118 -7.71454,-6.73104 -27.44101,-24.88921 -4.73466,-4.35818 -9.55126,-8.64265 -14.22134,-13.05871 -12.99348,-12.28673 -25.39406,-25.09071 -37.6749,-37.9706 -27.93054,-29.31262 4.87391,5.25389 -19.60193,-20.92637 -12.46714,-13.33528 -3.19727,-3.22182 -14.16642,-14.62298 -8.01576,-8.33144 -0.70809,-1.11678 -6.77276,-7.03052 0,0 26.93169,-14.62298 26.93169,-14.62298 z"
       inkscape:connector-curvature="0" />
    <path
       style="fill:#b3b3b3"
       id="path4343"
       d="m 291.38659,441.0559 c 2.35151,3.39653 1.37705,2.04843 4.60473,6.33177 1.38751,1.84136 2.72115,3.71849 4.18004,5.51308 6.48267,7.97451 13.82049,15.31682 21.03843,22.7266 9.79032,9.603 19.76506,19.04353 30.00161,28.24918 3.70795,3.33447 7.48834,6.60093 11.20151,9.93047 25.86669,23.19425 -3.23276,-2.58426 22.48941,20.12444 10.80724,9.17402 21.50705,18.46781 32.53193,27.42512 9.92115,8.06057 20.17258,15.78904 30.30789,23.62133 17.17473,13.21152 34.07544,26.73071 51.51549,39.6502 1.94303,1.39988 3.88593,2.79975 5.82896,4.19961 0,0 -25.13973,14.36017 -25.13973,14.36017 l 0,0 c -1.78981,-1.48879 -3.57977,-2.97758 -5.36959,-4.46636 -16.69312,-13.57574 -33.7583,-26.76741 -50.62017,-40.16688 -21.24858,-16.68056 -42.1804,-33.69701 -62.23499,-51.58268 -7.50215,-6.69741 -14.9491,-13.44669 -22.47428,-20.12247 -14.12691,-12.5324 -28.47844,-24.8585 -42.10232,-37.85816 -7.57888,-7.32782 -15.28044,-14.58028 -22.45459,-22.24781 -1.59655,-1.70644 -3.08585,-3.49496 -4.66138,-5.21771 -1.73116,-1.89277 -4.09232,-4.32252 -5.9475,-6.2456 0,0 27.30455,-14.2243 27.30455,-14.2243 z"
       inkscape:connector-curvature="0" />
    <path
       style="fill:#b3b3b3"
       id="path4345"
       d="m 218.37946,679.70125 c 0.52647,0.95521 1.01317,1.92963 1.57928,2.86566 3.90375,6.45429 8.37562,12.63548 12.69482,18.85625 9.51375,13.70223 4.17335,6.17938 14.68044,20.65934 9.14291,12.94501 17.58335,26.2859 26.31724,39.46001 9.02477,13.61283 18.17302,27.15848 27.43766,40.63531 7.64934,10.83517 16.00808,21.24 25.06393,31.12499 4.74871,5.18339 6.83477,7.12189 11.61321,11.80642 0,0 -25.36244,13.96172 -25.36244,13.96172 l 0,0 c -12.15081,-14.41576 -24.04139,-29.03588 -34.4645,-44.56543 -2.99894,-4.41753 -6.03711,-8.81295 -8.99666,-13.25263 -15.66858,-23.50457 -2.09276,-3.73185 -18.21509,-27.52711 -3.15575,-4.65765 -6.37298,-9.28018 -9.55714,-13.92159 -11.78665,-17.18076 -5.61924,-8.46182 -17.59097,-24.93779 -10.66969,-13.58856 -21.12255,-27.32714 -32.27772,-40.58958 0,0 27.07794,-14.57557 27.07794,-14.57557 z"
       inkscape:connector-curvature="0" />
    <path
       style="fill:#b3b3b3"
       id="path4347"
       d="m 312.29845,672.36403 c 4.42943,14.90637 12.71492,28.49539 20.65581,42.01877 7.37879,11.56844 15.0308,23.01843 23.2753,34.09187 8.41702,11.30518 17.55255,22.16202 26.53059,33.09348 6.70246,8.28138 13.80923,16.27402 20.95553,24.23428 0,0 -25.07853,13.6317 -25.07853,13.6317 l 0,0 c -6.40888,-8.41364 -12.84923,-16.80846 -19.57366,-25.01539 -8.85065,-11.06664 -17.84825,-22.05002 -26.35941,-33.33982 -8.35875,-11.08743 -16.36513,-22.4078 -23.99357,-33.92672 -8.47353,-13.26147 -4.51326,-6.838 -12.05518,-19.4597 -3.50303,-5.86228 -5.25602,-8.57601 -8.25882,-14.33302 -0.746,-1.43004 -1.36407,-2.91361 -2.09774,-4.34894 -0.41652,-0.81463 -0.9008,-1.59876 -1.35107,-2.39814 0,0 27.35075,-14.24837 27.35075,-14.24837 z"
       inkscape:connector-curvature="0" />
    <path
       style="fill:#b3b3b3"
       id="path4349"
       d="m 430.93411,693.72897 c 10.43022,11.01024 22.01383,21.05733 33.5282,31.1034 9.54925,8.44497 19.79036,16.20951 30.47049,23.42525 3.28004,2.21602 6.66403,4.30023 9.99589,6.45035 0,0 -23.82575,13.8232 -23.82575,13.8232 l 0,0 c -13.89282,-9.65566 -27.93884,-19.16543 -40.70612,-30.08412 -6.90829,-5.64615 -10.08186,-8.20017 -16.75968,-13.80301 -6.41049,-5.37849 -12.7216,-10.86121 -19.43785,-15.92558 0,0 26.73482,-14.98949 26.73482,-14.98949 z"
       inkscape:connector-curvature="0" />
    <path
       style="fill:#b3b3b3"
       id="path4351"
       d="m 562.13654,639.5839 c 5.18263,11.16286 13.15513,20.9617 21.03334,30.62195 5.00331,5.9595 10.72727,11.34225 16.46263,16.69982 0,0 -25.41347,14.12057 -25.41347,14.12057 l 0,0 c -5.41447,-5.70129 -10.82933,-11.4024 -16.18165,-17.15274 -1.78742,-2.10843 -3.61032,-4.19212 -5.36237,-6.32528 -6.30522,-7.6767 -12.16593,-15.65888 -17.70442,-23.81228 0,0 27.16594,-14.15204 27.16594,-14.15204 z"
       inkscape:connector-curvature="0" />
  </g>
</svg>
