<?xml version="1.0" encoding="UTF-8" standalone="no"?>
<!-- Created with Inkscape (http://www.inkscape.org/) -->

<svg
   xmlns:dc="http://purl.org/dc/elements/1.1/"
   xmlns:cc="http://creativecommons.org/ns#"
   xmlns:rdf="http://www.w3.org/1999/02/22-rdf-syntax-ns#"
   xmlns:svg="http://www.w3.org/2000/svg"
   xmlns="http://www.w3.org/2000/svg"
   xmlns:sodipodi="http://sodipodi.sourceforge.net/DTD/sodipodi-0.dtd"
   xmlns:inkscape="http://www.inkscape.org/namespaces/inkscape"
   width="300"
   height="150"
   viewBox="0 0 300 150"
   id="svg3400"
   version="1.1"
   inkscape:version="0.91 r13725"
   sodipodi:docname="horizontal-line.svg">
  <defs
     id="defs3402" />
  <sodipodi:namedview
     id="base"
     pagecolor="#ffffff"
     bordercolor="#666666"
     borderopacity="1.0"
     inkscape:pageopacity="0.0"
     inkscape:pageshadow="2"
     inkscape:zoom="7.9195959"
     inkscape:cx="127.43045"
     inkscape:cy="52.090819"
     inkscape:document-units="px"
     inkscape:current-layer="layer1"
     showgrid="false"
     units="px"
     inkscape:window-width="3730"
     inkscape:window-height="2112"
     inkscape:window-x="110"
     inkscape:window-y="48"
     inkscape:window-maximized="1" />
  <metadata
     id="metadata3405">
    <rdf:RDF>
      <cc:Work
         rdf:about="">
        <dc:format>image/svg+xml</dc:format>
        <dc:type
           rdf:resource="http://purl.org/dc/dcmitype/StillImage" />
        <dc:title></dc:title>
      </cc:Work>
    </rdf:RDF>
  </metadata>
  <g
     inkscape:label="Layer 1"
     inkscape:groupmode="layer"
     id="layer1"
     transform="translate(0,-902.36216)">
    <rect
       style="fill:#999999"
       id="rect3408"
       width="294.96454"
       height="42.0476"
       x="1.5152289"
       y="951.09436" />
    <path
       style="fill:#000000"
       id="path3414"
       d="m 3.7543166,950.2448 c 3.1204415,-0.20184 6.2439304,-0.35426 9.3671684,-0.50979 5.973352,-0.33497 11.954604,-0.51097 17.934906,-0.66746 6.122671,-0.14245 12.24668,-0.22142 18.370716,-0.27444 4.39076,-0.0295 8.781536,-0.0562 13.172324,-0.0811 3.261375,-0.0134 6.522771,-0.0247 9.784176,-0.0264 3.042081,-0.043 6.082401,0.0623 9.118005,0.25344 3.057023,0.17004 6.076825,0.69311 9.093877,1.18523 3.873089,0.58054 7.775663,0.91436 11.683131,1.14786 4.53279,0.23114 9.07249,0.24727 13.60998,0.26408 4.16091,0.006 8.32173,-0.0228 12.48261,-0.0293 3.38936,-0.01 6.77866,-0.0308 10.16798,-0.0487 2.65982,-0.0165 5.31972,-0.0145 7.97958,-0.0188 2.32176,0.0183 4.64235,-0.0285 6.96323,-0.0834 1.88659,-0.053 3.77364,-0.0708 5.66089,-0.0714 2.1275,0.003 4.25497,0.0122 6.38248,0.0146 2.37921,0.005 4.75842,0.008 7.13763,0.008 2.38652,0.002 4.77304,-0.004 7.15956,-0.003 2.3662,-10e-5 4.7324,0.002 7.0986,5.4e-4 2.52203,-0.004 5.04395,0.005 7.56589,0.0249 3.5189,0.0354 7.03798,0.0404 10.55703,0.0363 3.23841,-0.004 6.47678,-0.0218 9.71514,-0.0395 2.62535,-0.0115 5.25071,-0.0114 7.87608,-0.0112 2.97847,0.0642 5.95518,-0.064 8.93212,-0.13911 2.61264,-0.0691 5.22604,-0.10155 7.8394,-0.1273 1.8898,-0.0191 3.77969,-0.0235 5.66956,-0.0294 1.14237,-0.0121 2.28525,0.0241 3.42732,-0.0157 0.0718,-0.002 1.68615,-0.084 1.75686,-0.0876 1.75498,-0.16679 3.51224,-0.31344 5.27228,-0.41465 2.2169,-0.16909 4.43941,-0.25174 6.65649,-0.41513 2.15095,-0.16616 4.3036,-0.30623 6.45733,-0.43065 1.67308,-0.0947 3.34307,-0.26122 5.00945,-0.43935 1.43794,-0.20759 2.86563,-0.47896 4.30634,-0.66717 1.45619,-0.15887 2.92314,-0.17213 4.38635,-0.18734 0.75273,-0.0254 1.50777,0.0219 2.26031,-0.01 0.57269,-0.0242 1.1474,-0.10214 1.71773,-0.15804 0.78655,-0.13792 1.58162,-0.20177 2.37837,-0.23735 0.64264,-0.0226 1.28589,-0.0192 1.92885,-0.021 0.46045,-10e-4 0.92087,-0.006 1.38131,-0.008 0.31032,-0.003 0.62064,-0.003 0.93096,-0.003 0.32701,-0.002 0.65399,4.8e-4 0.98096,0.005 0.43438,-0.002 0.86873,0.002 1.30309,0.004 0.42856,0.002 0.8571,-0.004 1.28563,-0.008 0.27463,-0.003 0.54926,-0.003 0.8239,-0.004 0.25119,-2.1e-4 0.50237,-1.4e-4 0.75356,-1.1e-4 0.21814,-0.003 0.43632,-0.002 0.65448,-0.001 0.28515,0.002 0.57031,0.004 0.85548,0.005 0.31084,-0.002 0.62167,0 0.9325,-6.3e-4 0.3287,0.051 0.61535,0.21217 0.91876,0.3344 0.13188,0.0292 0.24845,0.0558 0.373,0.10906 0,0 -6.44566,4.36691 -6.44566,4.36691 l 0,0 c -0.13671,-0.0326 -0.26531,-0.0814 -0.39262,-0.14168 -0.23791,-0.0927 -0.49212,-0.13671 -0.7467,-0.0964 -0.31026,-6.3e-4 -0.62051,0.001 -0.93076,-6.4e-4 -0.28928,5.1e-4 -0.57855,0.003 -0.86782,0.005 -0.21718,6.5e-4 -0.43438,0.002 -0.65154,-0.001 -0.25108,3e-5 -0.50216,10e-5 -0.75325,-1.1e-4 -0.27126,-3.5e-4 -0.54253,-0.001 -0.81378,-0.004 -0.42137,-0.004 -0.84275,-0.0104 -1.26415,-0.008 -0.43817,0.002 -0.87633,0.006 -1.31452,0.004 -0.33147,0.004 -0.66294,0.007 -0.99444,0.005 -0.30775,1.9e-4 -0.61547,3.4e-4 -0.9232,-0.004 -0.45019,-0.004 -0.90035,-0.0107 -1.35057,-0.011 -0.63047,7.1e-4 -1.26115,0.006 -1.89064,0.0451 -0.77742,0.0533 -1.54898,0.16012 -2.32546,0.22304 -1.31383,0.0872 -2.6283,0.0642 -3.94437,0.0796 -1.4527,0.0283 -2.90887,0.0677 -4.34921,0.27613 -1.43495,0.21126 -2.86394,0.46641 -4.30543,0.62965 -1.65199,0.15182 -3.30442,0.31068 -4.96324,0.36545 -2.1393,0.11918 -4.27737,0.25469 -6.4144,0.40942 -2.24379,0.13961 -4.48848,0.26444 -6.72825,0.46254 -1.76159,0.11751 -3.51925,0.28349 -5.28031,0.40709 -1.73741,0.0782 -3.47529,0.0979 -5.21441,0.0805 -1.86519,-0.007 -3.73038,-0.0136 -5.59556,-0.02 -2.577,-0.003 -5.15411,0.008 -7.73056,0.0668 -2.99938,0.0745 -5.99846,0.17443 -8.99921,0.16513 -2.61506,1.2e-4 -5.23011,3.2e-4 -7.84515,-0.0112 -3.20208,-0.0177 -6.40417,-0.0354 -9.6063,-0.0395 -3.55234,-0.004 -7.10472,0.001 -10.65692,0.0363 -2.54481,0.0195 -5.0896,0.0285 -7.63449,0.0249 -2.3667,-0.001 -4.7334,6.4e-4 -7.10009,5.4e-4 -2.38354,7.3e-4 -4.76708,-0.005 -7.15061,-0.003 -2.38569,-5.7e-4 -4.77138,0.002 -7.15707,0.006 -2.14367,0.002 -4.28731,0.009 -6.43093,0.0246 -1.87433,0.0152 -3.74871,0.0294 -5.62288,0.0584 -2.30544,0.0375 -4.61066,0.049 -6.91641,0.0309 -2.64284,-0.004 -5.28571,-0.002 -7.92852,-0.0182 -3.34808,-0.0169 -6.69616,-0.0359 -10.04428,-0.0407 -4.13337,-8.5e-4 -8.26672,-0.0182 -12.40005,-0.0352 -4.55398,-0.0243 -9.10998,-0.0548 -13.659518,-0.27583 -3.960444,-0.2285 -7.918694,-0.53929 -11.845907,-1.11502 -3.026785,-0.43629 -6.050781,-0.93478 -9.109226,-1.0914 -3.024167,-0.17248 -6.051176,-0.27367 -9.080816,-0.22612 -3.234497,-0.003 -6.468982,-0.0154 -9.703433,-0.0326 -4.319457,-0.0293 -8.638924,-0.0626 -12.958484,-0.0709 -6.060665,-0.011 -12.122168,-0.0133 -18.181056,0.1575 -6.067474,0.18777 -12.134949,0.43304 -18.1895332,0.88082 -3.2784998,0.22724 -6.56916202,0.4155 -9.8193756,0.92104 0,0 6.1577354,-4.60875 6.1577354,-4.60875 z"
       inkscape:connector-curvature="0" />
    <path
       style="fill:#000000"
       id="path3418"
       d="m 5.82355,990.15406 c 3.7403184,-0.33397 7.491945,-0.45128 11.244513,-0.54214 7.779862,-0.14502 15.561574,-0.13113 23.342463,-0.13673 8.907428,0.003 17.81485,0.0146 26.722267,0.028 6.361971,0.0621 12.722892,-0.0635 19.083667,-0.16187 7.916992,-0.12248 1.952018,-0.0136 9.895324,-0.16962 9.231716,-0.1949 18.464456,-0.33303 27.697576,-0.43838 6.761,-0.0646 13.52219,-0.11851 20.28343,-0.14939 5.38973,-0.0234 10.77953,-0.0201 16.16929,-0.0158 5.31079,0.007 10.6216,0.009 15.93233,-0.0179 3.92583,-0.0311 7.85164,-0.0661 11.7776,-0.0715 3.75066,0.0143 7.50127,0.0263 11.25194,0.0125 3.42375,-0.0177 6.84748,-0.0233 10.27125,-0.0107 4.29357,0.0297 8.58712,0.0591 12.88082,0.0544 3.904,-0.0146 7.80796,-0.039 11.71192,-0.0619 2.84227,-0.0227 5.6846,-0.0266 8.52694,-0.0325 2.73418,-0.0154 5.46803,5e-5 8.20205,0.0291 4.32836,0.0491 8.65697,0.0654 12.98556,0.078 4.91324,0.0273 9.82644,0.007 14.73957,-0.0254 3.30922,-0.0764 6.61738,0.01 9.9257,0.0776 1.85666,0.0355 3.71377,0.0397 5.57072,0.0342 1.16565,-0.003 2.33129,-0.009 3.4969,-0.018 0.80055,-0.009 1.60113,-0.0101 2.4017,-0.0141 0.62641,-9.2e-4 1.25281,-0.003 1.87919,-0.009 0.39069,-0.002 0.78136,-0.007 1.17204,-0.0101 0.0476,-2.9e-4 0.0951,-5.8e-4 0.14271,-8.7e-4 0,0 -6.29676,4.57486 -6.29676,4.57486 l 0,0 c -0.0468,-2.9e-4 -0.0935,-5.8e-4 -0.14032,-8.7e-4 -0.38136,-0.003 -0.76269,-0.008 -1.14406,-0.0102 -0.61799,-0.007 -1.236,-0.008 -1.85402,-0.009 -0.7886,-0.004 -1.57722,-0.004 -2.3658,-0.0117 -1.14806,-0.007 -2.29616,-0.0121 -3.44415,-0.0274 -1.809,-0.0313 -3.61718,-0.0869 -5.42501,-0.15994 -3.22708,-0.12096 -6.45401,-0.24561 -9.68423,-0.22659 -4.88979,-0.0333 -9.77963,-0.0526 -14.66952,-0.0254 -4.40014,0.0127 -8.80028,0.0294 -13.2002,0.078 -2.76075,0.0285 -5.52133,0.0447 -8.28224,0.0291 -2.81254,-0.006 -5.62508,-0.01 -8.43756,-0.0325 -3.84715,-0.0229 -7.69431,-0.0474 -11.5415,-0.0619 -4.34361,-0.005 -8.68708,0.0251 -13.03057,0.0544 -3.41392,0.0124 -6.82781,0.007 -10.24171,-0.0107 -3.76214,-0.014 -7.52422,-0.001 -11.28635,0.0125 -3.86038,-0.005 -7.72059,-0.0399 -11.58083,-0.0715 -5.29368,-0.027 -10.58742,-0.0246 -15.88115,-0.0194 -5.37215,0.003 -10.74432,0.003 -16.11642,-0.0225 -6.65513,-0.0305 -13.31017,-0.0818 -19.96543,-0.0767 -9.15634,0.008 -18.31271,0.0698 -27.466946,0.28115 -9.693209,0.19465 -19.387472,0.40769 -29.083141,0.39165 -8.936033,0.009 -17.872089,0.009 -26.80809,0.0365 -7.878968,0.0325 -15.760715,0.0619 -23.634468,0.37947 -3.9825487,0.2082 -7.9785497,0.4204 -11.91129639,1.12341 0,0 6.18430139,-4.6225 6.18430139,-4.6225 z"
       inkscape:connector-curvature="0" />
    <path
       style="fill:#000000"
       id="path3420"
       d="m 5.6110412,952.43727 c 0.095363,0.93672 0.3356194,1.84982 0.5394159,2.76641 0.2472241,1.11192 0.2628304,1.24097 0.4883608,2.41174 0.3928289,2.32293 0.8584548,4.63284 1.263912,6.95346 0.330512,1.89168 0.3846344,2.31658 0.6777853,4.2364 0.4676886,3.13409 0.6335853,6.30054 0.8290067,9.45979 0.2258704,3.6515 0.087943,1.27327 0.2917362,4.94066 0.2349324,4.58775 0.3279119,9.18078 0.4344539,13.77277 0.05194,2.09655 0.137646,4.192 0.226368,6.2872 0.0058,0.1308 0.01155,0.2616 0.01732,0.3924 0,0 -6.8614558,3.4937 -6.8614558,3.4937 l 0,0 c 0.00651,-0.1368 0.013022,-0.2736 0.019533,-0.4105 0.095921,-2.1627 0.1722817,-4.3265 0.1924378,-6.4915 0.021438,-4.60679 -0.028266,-9.21544 -0.2761978,-13.8166 -0.1789321,-3.16562 -0.093619,-1.77532 -0.298815,-4.93131 -0.2033489,-3.12759 -0.3857642,-6.26142 -0.8736934,-9.3612 -0.3126098,-1.90163 -0.367416,-2.3142 -0.7253754,-4.18532 -0.4378321,-2.28862 -0.96104172,-4.55972 -1.44589628,-6.83856 -0.09836729,-0.41893 -0.19115728,-0.83922 -0.29510188,-1.2568 -0.31624847,-1.2705 -0.71400651,-2.51926 -1.04210444,-3.78663 0,0 6.8383104,-3.63611 6.8383104,-3.63611 z"
       inkscape:connector-curvature="0" />
    <path
       style="fill:#000000"
       id="path3424"
       d="m 299.17528,951.09181 c -0.0624,1.12234 -0.0482,2.2475 -0.0611,3.37123 -0.0295,1.65197 -0.0236,3.30422 -0.0287,4.95636 0.002,1.63307 0.007,3.26612 0.0142,4.89917 0.014,1.35063 0.003,2.70154 0.0261,4.05205 0.0297,0.91616 0.0156,1.83263 0.0206,2.749 -9.2e-4,0.81055 0.004,1.62109 0.012,2.4316 -0.004,0.8159 -0.0103,1.63176 -0.0106,2.44767 -0.0166,0.93546 -0.1293,1.86513 -0.19026,2.79816 -0.0496,0.85578 -0.0607,1.7134 -0.0507,2.57041 0.004,0.60395 0.01,1.20782 0.006,1.81178 0.005,0.54024 10e-4,1.08043 0.01,1.62064 0.007,0.33181 0.012,0.66364 0.0146,0.9955 0.001,0.17037 0.001,0.34074 0.002,0.51111 0,0 -6.93945,3.53582 -6.93945,3.53582 l 0,0 c 1.8e-4,-0.17089 3.8e-4,-0.34178 0.002,-0.51266 0.003,-0.33673 0.008,-0.67342 0.0144,-1.0101 0.008,-0.5431 0.004,-1.08617 0.008,-1.6293 -0.004,-0.60837 -8.8e-4,-1.21669 0.008,-1.82503 0.0206,-0.87419 0.0276,-1.74876 0.0652,-2.6225 0.0469,-0.91968 0.14694,-1.83422 0.19952,-2.75287 -2.6e-4,-0.81231 -0.007,-1.62458 -0.0106,-2.43688 0.007,-0.81457 0.0129,-1.62917 0.012,-2.44379 0.005,-0.92338 -0.009,-1.84687 0.0207,-2.77005 0.0233,-1.35938 0.0123,-2.71915 0.0261,-4.07865 0.007,-1.63788 0.0127,-3.27576 0.0142,-4.91365 -0.005,-1.64241 9.4e-4,-3.28493 -0.0287,-4.92716 -0.0129,-1.10296 0.002,-2.20749 -0.0611,-3.30896 0,0 6.90624,-3.5189 6.90624,-3.5189 z"
       inkscape:connector-curvature="0" />
  </g>
</svg>
