<?xml version="1.0" encoding="UTF-8" standalone="no"?>
<!-- Created with Inkscape (http://www.inkscape.org/) -->

<svg
   xmlns:dc="http://purl.org/dc/elements/1.1/"
   xmlns:cc="http://creativecommons.org/ns#"
   xmlns:rdf="http://www.w3.org/1999/02/22-rdf-syntax-ns#"
   xmlns:svg="http://www.w3.org/2000/svg"
   xmlns="http://www.w3.org/2000/svg"
   xmlns:sodipodi="http://sodipodi.sourceforge.net/DTD/sodipodi-0.dtd"
   xmlns:inkscape="http://www.inkscape.org/namespaces/inkscape"
   width="800"
   height="500"
   viewBox="0 0 800.00001 500.00001"
   id="svg2"
   version="1.1"
   inkscape:version="0.91 r13725"
   sodipodi:docname="individualfairness.svg">
  <defs
     id="defs4" />
  <sodipodi:namedview
     id="base"
     pagecolor="#ffffff"
     bordercolor="#666666"
     borderopacity="1.0"
     inkscape:pageopacity="0.0"
     inkscape:pageshadow="2"
     inkscape:zoom="1.979899"
     inkscape:cx="186.84526"
     inkscape:cy="283.69821"
     inkscape:document-units="px"
     inkscape:current-layer="layer1"
     showgrid="false"
     units="px"
     inkscape:window-width="3090"
     inkscape:window-height="1752"
     inkscape:window-x="110"
     inkscape:window-y="48"
     inkscape:window-maximized="1" />
  <metadata
     id="metadata7">
    <rdf:RDF>
      <cc:Work
         rdf:about="">
        <dc:format>image/svg+xml</dc:format>
        <dc:type
           rdf:resource="http://purl.org/dc/dcmitype/StillImage" />
        <dc:title></dc:title>
      </cc:Work>
    </rdf:RDF>
  </metadata>
  <g
     inkscape:label="Layer 1"
     inkscape:groupmode="layer"
     id="layer1"
     transform="translate(0,-552.36215)">
    <circle
       style="fill:#000000"
       id="path3338"
       cx="148.9975"
       cy="719.51691"
       r="7.5761442" />
    <circle
       style="fill:#000000"
       id="path3338-3"
       cx="152.53302"
       cy="804.36969"
       r="7.5761442" />
    <path
       style="fill:#000000"
       id="path3379"
       d="m 512.18362,657.32365 c 1.3156,7.68706 -2.06783,15.00436 -5.01722,21.8995 -4.07162,8.83971 -9.61772,16.85682 -15.21932,24.77147 -5.86601,8.24004 -2.95391,4.13363 -8.73673,12.31894 -7.39182,10.44858 -14.79877,20.89208 -21.65368,31.70356 -3.50914,5.77319 -6.86106,11.66763 -9.52535,17.88632 -1.69715,3.96129 -1.89484,4.80792 -3.2338,8.79892 -1.06975,4.16382 -2.70842,8.61719 -1.90787,12.99622 0.4307,2.35591 0.91783,2.72928 2.14956,4.73063 0.68562,0.70224 1.31999,1.45846 2.05686,2.1067 5.06693,4.45751 11.60685,6.81148 17.80449,9.179 7.82383,2.74274 15.90365,4.8501 24.06275,6.33758 1.60195,0.29204 3.21734,0.5048 4.826,0.7572 4.13677,0.2936 6.10916,0.59227 10.30572,0.22546 6.41711,-0.56089 12.81755,-2.36081 18.81511,-4.64936 2.30063,-0.87787 4.52418,-1.94577 6.78628,-2.91865 2.25605,-1.29283 4.63003,-2.39875 6.76815,-3.8785 0.26125,-0.18081 -1.1722,0.0628 -0.94053,-0.15468 2.05215,-1.92608 4.49255,-3.39534 6.64937,-5.20344 4.28217,-3.58979 8.61212,-7.74891 12.46915,-11.79109 1.89182,-1.98264 3.68354,-4.05844 5.52532,-6.08766 6.73666,-7.51877 12.81606,-15.60611 18.42483,-23.99389 1.22203,-1.8275 2.4397,-3.65937 3.58412,-5.53645 1.07221,-1.75865 2.04211,-3.57766 3.06317,-5.36649 4.10838,-7.96885 7.30858,-16.41443 9.59263,-25.08519 0.40829,-1.54993 0.73825,-3.11944 1.10737,-4.67917 1.24539,-6.48477 1.86593,-13.16963 1.11502,-19.75837 -0.12629,-1.10812 -0.33873,-2.20471 -0.5081,-3.30706 -0.91889,-4.5051 -2.43741,-8.90368 -4.75302,-12.89135 -1.40114,-2.41288 -2.38669,-3.56841 -4.06548,-5.77624 -4.67619,-5.58511 -10.09524,-10.47112 -15.68037,-15.12145 -4.69897,-3.61972 -9.35668,-7.45346 -14.65008,-10.19708 -0.92155,-0.47765 -1.87779,-0.88518 -2.81668,-1.32777 -5.72194,-2.4021 -11.82735,-3.65074 -17.94199,-4.54446 -3.36331,-0.43861 -6.78489,-0.59626 -10.16379,-0.21785 -1.72948,0.19369 -2.71543,0.4449 -4.40235,0.80323 -0.65758,0.21785 -1.32883,0.39809 -1.97273,0.65355 -0.62757,0.24898 -1.22342,0.57146 -1.83513,0.85718 2.22823,-1.25495 4.40304,-2.60986 6.68467,-3.76487 0.62643,-0.31711 -1.15542,0.80035 -1.70114,1.24212 -1.47945,1.19763 -1.86336,1.70061 -3.16884,3.08805 -2.68792,3.06376 -4.70055,6.61771 -6.49063,10.25698 -1.95588,4.42365 -2.7444,9.20148 -3.25839,13.97438 -0.14909,1.48505 -0.2109,2.97587 -0.25979,4.46673 0,0 -8.88688,4.47538 -8.88688,4.47538 l 0,0 c 0.0936,-1.52747 0.19517,-3.05456 0.34416,-4.57787 0.54525,-4.85226 1.30524,-9.71627 3.12786,-14.27746 1.72915,-3.73207 3.73258,-7.35161 6.38082,-10.52165 1.31158,-1.49446 1.60576,-1.92395 3.08745,-3.24127 4.48121,-3.98409 9.9994,-6.97394 15.77516,-8.55523 1.83231,-0.33816 2.57909,-0.52093 4.46051,-0.68025 3.41359,-0.28907 6.85236,-0.0679 10.23596,0.42147 6.16113,0.9964 12.3239,2.29575 18.07099,4.80166 0.9533,0.46321 1.92584,0.88874 2.85989,1.38962 5.28484,2.83399 9.90465,6.77217 14.64733,10.39204 5.65252,4.6873 11.15708,9.6017 15.84163,15.28203 1.70123,2.26142 2.70658,3.46104 4.13944,5.9237 2.36901,4.0716 3.97692,8.545 4.92879,13.14843 0.17928,1.12609 0.40509,2.24574 0.53783,3.37825 0.78516,6.69872 0.0616,13.50436 -1.14759,20.10144 -0.36552,1.57613 -0.68845,3.16276 -1.09658,4.7284 -2.28514,8.76601 -5.56616,17.27953 -9.65435,25.35689 -1.03029,1.81247 -2.00504,3.65766 -3.09089,5.4374 -1.15713,1.89659 -2.3974,3.74158 -3.63501,5.58667 -5.6542,8.42954 -11.7318,16.59762 -18.51058,24.16124 -1.84785,2.04743 -3.64696,4.13991 -5.54354,6.14228 -3.7639,3.97384 -8.24929,8.33715 -12.41684,11.88546 -2.14077,1.82268 -4.2797,3.66481 -6.60227,5.24933 -4.72724,3.22503 -9.62827,6.18994 -14.51947,9.16041 -2.24258,1.36194 -4.58339,2.55513 -6.87509,3.83269 -2.28775,0.96053 -4.53853,2.01435 -6.86326,2.88158 -6.12928,2.28648 -12.62136,4.06037 -19.16627,4.56676 -4.29388,0.33222 -6.23105,0.0138 -10.45339,-0.32768 -1.61417,-0.26681 -3.23497,-0.49625 -4.84251,-0.80044 -8.19278,-1.55029 -16.31459,-3.65208 -24.17117,-6.44363 -6.34922,-2.41775 -13.04973,-4.81552 -18.21702,-9.4101 -0.78757,-0.70029 -1.46657,-1.5139 -2.19985,-2.27084 -1.32718,-2.16225 -1.87013,-2.61013 -2.36593,-5.14156 -0.88765,-4.5321 0.79284,-9.13283 1.93835,-13.43842 1.35672,-4.03799 1.56754,-4.90654 3.2592,-8.91774 2.64756,-6.2778 5.96201,-12.24446 9.53753,-18.03561 6.91739,-10.86308 14.38061,-21.35937 21.85724,-31.84241 9.41512,-13.3033 -0.79433,1.10815 8.75403,-12.32588 5.55985,-7.82241 11.08345,-15.73399 15.0874,-24.49921 2.34417,-5.49601 4.98135,-11.20252 5.13043,-17.2974 0.0376,-1.53658 -0.17118,-2.34557 -0.43251,-3.76215 0,0 8.80144,-4.73898 8.80144,-4.73898 z"
       inkscape:connector-curvature="0" />
    <path
       style="fill:#000000"
       id="path3383"
       d="m 540.02791,683.36164 c -3.01814,5.35562 -6.24962,10.58563 -9.39509,15.86689 -5.75117,9.48076 -10.62143,19.44857 -15.71961,29.28493 -5.56515,10.90167 -11.22022,21.75721 -16.38464,32.85601 -4.43066,9.81511 -8.35203,19.85065 -11.71302,30.07978 -2.00365,6.31812 -3.66114,12.74843 -4.25762,19.35967 -0.23665,4.90433 0.64724,9.76349 1.32916,14.60036 0.79699,5.47005 1.71429,10.92087 2.67566,16.36403 0.6554,3.40732 1.43551,6.82293 2.72535,10.05549 0.68791,1.72402 1.08898,2.34857 1.96976,3.96823 2.08685,3.47818 5.04463,6.35394 8.40869,8.60224 0.72602,0.48522 1.49416,0.90425 2.24125,1.35638 2.12668,1.00104 2.84259,1.47907 5.18652,1.99459 5.09084,1.11969 10.24523,0.27673 15.30292,-0.53254 4.84227,-1.01836 9.61465,-2.40888 14.14122,-4.42943 1.57905,-0.70485 3.00051,-1.76789 4.63764,-2.32468 1.30967,-0.44542 -4.4821,3.08689 -3.64363,1.98662 1.0571,-1.38717 2.89853,-1.94044 4.3478,-2.91066 7.67032,-5.38392 14.40875,-11.94602 20.54415,-19.00326 1.19978,-1.38004 2.34681,-2.80508 3.52021,-4.20761 5.58807,-6.9927 10.63773,-14.43455 14.80905,-22.3625 0.78935,-1.50022 1.50993,-3.03563 2.2649,-4.55345 3.28764,-7.16405 6.07517,-14.59196 7.97343,-22.25174 0.33289,-1.34322 0.59871,-2.70219 0.89806,-4.05328 1.40825,-7.20396 1.79774,-14.54142 1.64343,-21.86391 -0.27139,-7.38252 -1.23773,-14.71207 -2.18477,-22.03094 -0.84517,-7.11826 -1.89295,-14.20696 -3.06966,-21.27706 -0.96136,-6.03009 -2.14837,-12.01956 -3.3507,-18.00515 -1.02854,-4.54495 -2.21727,-9.05956 -3.86044,-13.42307 -1.33501,-3.23537 -3.03742,-6.30295 -5.02631,-9.17841 -1.73449,-2.51119 -3.69367,-4.37126 -6.21222,-6.06347 -2.18011,-1.45591 -4.67715,-1.98821 -7.23858,-2.25529 -1.61721,-0.11751 -3.256,-0.21319 -4.8595,0.10418 -1.09129,0.21599 -1.51708,0.42495 -2.56925,0.81697 -0.47516,0.2068 -0.95359,0.40625 -1.42548,0.62041 -0.52166,0.23674 -1.04597,0.46906 -1.55486,0.73214 -0.54422,0.28134 -2.13427,1.20422 -1.60245,0.90008 2.24024,-1.28114 4.45427,-2.60994 6.72775,-3.83113 0.60974,-0.32752 -1.15628,0.76113 -1.73083,1.14707 -0.5685,0.38188 -1.13216,0.77091 -1.69824,1.15636 -2.86012,1.99201 -5.84897,3.90966 -8.29533,6.42286 -0.65884,0.67683 -1.25375,1.41308 -1.88063,2.11962 -2.16269,2.76232 -1.14502,1.41254 -3.0633,4.04157 0,0 -8.98692,3.88649 -8.98692,3.88649 l 0,0 c 1.95866,-2.68092 0.93073,-1.30245 3.08982,-4.13091 0.59389,-0.73079 1.15091,-1.49316 1.78166,-2.19239 2.35194,-2.60727 5.34322,-4.56473 8.20133,-6.55565 5.79393,-3.94176 11.71674,-7.84802 18.26716,-10.40079 2.66491,-0.79576 4.95166,-0.95229 7.71175,-0.57981 2.67139,0.38112 5.23983,1.09968 7.48566,2.66304 2.49341,1.7562 4.66805,3.84248 6.38093,6.38583 2.0131,2.95623 3.73804,6.10092 5.09824,9.41273 1.65569,4.42597 2.81007,9.01127 3.82559,13.62294 1.185,6.00197 2.40232,11.99943 3.34545,18.04553 1.14355,7.09398 2.10947,14.21275 3.01748,21.34056 0.96153,7.34368 1.91147,14.69957 2.26897,22.10273 0.18491,7.40736 -0.24263,14.82123 -1.62982,22.1141 -0.29887,1.36866 -0.56154,2.74573 -0.8966,4.10599 -1.90314,7.7263 -4.73363,15.20985 -7.98708,22.45881 -0.75219,1.53256 -1.4679,3.08357 -2.25658,4.59767 -4.15839,7.98321 -9.20694,15.48135 -14.77612,22.54256 -7.15056,8.61138 -14.73989,16.94626 -23.93182,23.44193 -7.23397,4.95159 -5.76891,4.10305 -16.83363,10.24233 -1.51702,0.84172 -3.09477,1.57434 -4.68867,2.25942 -4.60446,1.97905 -9.44003,3.35435 -14.34832,4.3309 -5.21631,0.77818 -10.50213,1.55393 -15.71957,0.28254 -2.37035,-0.5776 -3.19878,-1.12174 -5.34483,-2.17148 -0.76261,-0.4757 -1.54575,-0.91996 -2.28783,-1.42709 -3.45874,-2.36363 -6.51501,-5.3349 -8.67576,-8.93923 -0.94238,-1.74239 -1.28963,-2.26075 -2.02199,-4.11854 -1.29639,-3.28861 -2.08171,-6.75816 -2.75937,-10.21682 -0.96559,-5.44951 -1.88946,-10.90675 -2.71498,-16.37943 -0.71295,-4.90114 -1.62934,-9.82429 -1.44109,-14.79672 0.0748,-0.84837 0.1198,-1.69989 0.22435,-2.5451 0.72387,-5.85236 2.50525,-11.51263 4.19335,-17.13863 3.42273,-10.28251 7.37815,-20.37663 11.83802,-30.25581 5.12374,-11.12484 10.81982,-21.96439 16.35538,-32.8879 5.07149,-9.80524 9.85965,-19.76924 15.52549,-29.25349 3.01838,-5.20131 6.18143,-10.32403 8.94977,-15.66526 0,0 9.12979,-4.05995 9.12979,-4.05995 z"
       inkscape:connector-curvature="0" />
    <path
       style="fill:#999999"
       id="path3387"
       d="m 450.27432,649.17397 c -4.38844,8.0962 -8.85339,16.16113 -12.80002,24.4865 -1.10002,2.32049 -2.12917,4.67394 -3.19375,7.0109 -6.48422,15.32349 -10.7055,31.3915 -14.50098,47.54927 -3.23968,14.46455 -5.15195,29.18504 -6.16886,43.96463 -0.20435,2.96997 -0.32397,5.94517 -0.48595,8.91775 -0.47601,11.29082 -0.35481,22.61813 0.76539,33.87013 0.69116,6.94248 1.17852,9.40539 2.25889,16.25759 2.21171,12.79101 5.19869,25.44057 9.4791,37.70508 0.8357,2.39451 1.7687,4.75395 2.65304,7.13092 3.70125,9.02756 7.79691,17.95597 13.02674,26.21734 3.28772,5.1935 4.47148,6.44918 8.2251,11.21176 6.6637,8.03987 14.38251,15.21739 22.98576,21.15083 1.64356,1.13351 3.35841,2.16001 5.03761,3.24001 6.63018,3.90186 13.73206,7.07311 21.29375,8.65395 5.07934,1.06188 6.49986,0.94605 11.69715,1.24316 10.63364,0.13815 21.08148,-2.3776 30.8852,-6.3992 2.04664,-0.83955 4.02829,-1.82957 6.04243,-2.74435 2.04946,-1.13324 4.16897,-2.14815 6.14838,-3.39974 0.4931,-0.31178 -2.09267,0.94963 -1.65803,0.56048 1.87308,-1.67706 4.03667,-2.99819 6.05501,-4.49728 1.99764,-1.69343 4.04426,-3.33073 5.99293,-5.0803 4.78589,-4.29691 6.97277,-6.71146 11.44552,-11.32371 11.08776,-11.89256 19.85359,-25.65719 28.21531,-39.53018 8.48227,-14.26346 15.55774,-29.29073 22.46769,-44.3588 4.70105,-10.12967 8.77556,-20.53857 12.33705,-31.12061 1.64063,-4.87469 3.53095,-11.05186 5.0595,-15.96647 4.04962,-12.95979 7.82601,-26.01902 10.72661,-39.28967 0.53653,-2.45473 1.0086,-4.92311 1.51291,-7.38466 2.21667,-11.49207 3.54832,-23.16528 3.67911,-34.87474 0.0249,-2.2272 -0.0403,-4.4545 -0.0605,-6.68176 -0.2831,-8.39234 -1.0269,-16.78231 -2.59191,-25.03894 -0.91356,-4.81972 -1.49448,-6.85028 -2.67938,-11.57729 -2.05814,-7.18186 -3.79615,-14.4899 -6.53494,-21.45794 -1.82888,-4.65306 -2.42655,-5.52695 -4.72074,-9.95645 -3.69624,-6.41337 -7.92744,-12.57645 -13.20313,-17.80809 -3.31932,-3.2916 -4.87574,-4.31204 -8.54666,-7.14191 -7.39182,-5.4686 -15.67917,-9.59063 -24.24975,-12.86435 -1.84263,-0.70383 -3.71453,-1.32848 -5.5718,-1.99273 -7.49323,-2.4643 -15.13922,-4.49284 -22.91222,-5.85777 -5.0894,-0.89368 -6.53614,-0.97277 -11.69315,-1.54886 -7.99831,-0.75845 -16.05279,-0.65532 -24.02625,0.3261 -5.03486,0.61972 -6.46017,0.99947 -11.42709,1.9893 -7.66574,1.8242 -15.27315,4.05855 -22.43725,7.38415 -4.34282,2.01596 -6.5548,3.40218 -10.70733,5.78159 0.99361,-0.50067 3.7341,-2.32088 2.98084,-1.50202 -1.24567,1.35416 -3.03871,2.07713 -4.51726,3.17226 -1.41953,1.0514 -2.82726,2.12216 -4.1741,3.2652 -2.8104,2.38515 -5.0254,4.63487 -7.44356,7.4123 -1.11267,1.27798 -2.14136,2.62673 -3.21204,3.9401 -6.55341,8.44433 -11.43888,17.97309 -16.24817,27.46993 -4.90054,9.98067 -9.56996,20.0804 -13.69163,30.40878 -1.94187,4.78679 -3.35566,9.75488 -4.65955,14.74461 0,0 -8.76409,4.17579 -8.76409,4.17579 l 0,0 c 1.4265,-5.03559 2.86031,-10.0828 4.82204,-14.94261 4.16277,-10.36434 8.95367,-20.45818 13.76917,-30.5324 4.7636,-9.53832 9.61081,-19.10688 16.09487,-27.62202 2.62273,-3.27178 3.79363,-4.89537 6.74642,-7.91323 7.33755,-7.49922 16.45612,-12.82409 25.53042,-17.92564 4.30391,-2.42254 6.28543,-3.66245 10.78666,-5.70004 7.22174,-3.26909 14.86788,-5.47655 22.57581,-7.25337 5.02878,-0.9643 6.37296,-1.32103 11.46589,-1.90165 8.01612,-0.91387 16.10863,-0.96415 24.13761,-0.16993 1.98612,0.22809 3.97761,0.41351 5.95837,0.68427 9.79231,1.33859 19.40128,3.78871 28.77364,6.89675 1.87138,0.67124 3.75788,1.30172 5.61414,2.0137 8.64101,3.31427 17.00035,7.48573 24.41492,13.06185 3.60156,2.82344 5.34967,4.02529 8.62157,7.2815 5.32455,5.299 9.58419,11.54144 13.335,18.01684 2.26799,4.37674 2.97711,5.47 4.78784,10.06644 2.75585,6.9956 4.48149,14.34504 6.53662,21.55994 1.14001,4.60142 1.79431,6.97441 2.68286,11.65899 1.57624,8.31012 2.31832,16.75326 2.59332,25.20051 0.0233,2.23962 0.0924,4.47923 0.0699,6.71885 -0.11828,11.77169 -1.4683,23.51187 -3.70205,35.06279 -1.39029,6.68601 -1.69425,8.42909 -3.33057,15.13591 -2.60071,10.65951 -5.70223,21.18887 -8.96266,31.66265 -1.27527,4.09677 -3.69301,11.93751 -5.04894,15.99596 -3.54349,10.60608 -7.60847,21.04219 -12.29845,31.19533 -6.9045,15.09202 -13.95958,30.14975 -22.42121,44.44821 -8.33853,13.91688 -17.06224,27.73909 -28.10606,39.70627 -5.54753,5.76815 -11.08826,11.46645 -17.32129,16.51262 -1.95218,1.58047 -3.90444,3.17533 -6.0077,4.54835 -4.57566,2.98703 -9.29541,5.74907 -14.00671,8.51722 -2.03761,1.19721 -4.15644,2.25047 -6.23465,3.3757 -2.03505,0.90195 -4.0385,1.87888 -6.10516,2.70585 -9.90581,3.96381 -20.45765,6.37057 -31.16012,6.13057 -5.25532,-0.35147 -6.70765,-0.24962 -11.83809,-1.37257 -7.616,-1.667 -14.74878,-4.95305 -21.42025,-8.91964 -1.68785,-1.09813 -3.41205,-2.14231 -5.06355,-3.29439 -8.62927,-6.01971 -16.3858,-13.26625 -23.03342,-21.41363 -3.74994,-4.83369 -4.92072,-6.10724 -8.23007,-11.35119 -5.24787,-8.31569 -9.38977,-17.27626 -13.07016,-26.37511 -2.46951,-6.64583 -2.96507,-7.69714 -5.06647,-14.48835 -3.09353,-9.99756 -5.2744,-20.24037 -7.09481,-30.53874 -0.97546,-6.25883 -1.64444,-9.99948 -2.28039,-16.32595 -1.13573,-11.29833 -1.21241,-22.68277 -0.73544,-34.01872 0.16453,-2.98257 0.29279,-5.96737 0.49359,-8.94772 0.99758,-14.80622 2.83233,-29.56709 6.06661,-44.06127 0.65204,-2.83369 1.26638,-5.67631 1.95611,-8.50106 3.24664,-13.29646 7.16254,-26.4741 12.34795,-39.15052 1.04374,-2.33801 2.05161,-4.69238 3.13124,-7.01404 3.80486,-8.18204 8.12339,-16.11124 12.11094,-24.20196 0,0 9.02377,-4.06391 9.02377,-4.06391 z"
       inkscape:connector-curvature="0" />
    <path
       style="fill:#999999"
       id="path3389"
       d="m 128.36791,607.72345 c -7.32661,4.43901 -13.59083,10.32255 -19.66938,16.29526 -6.67635,7.04453 -12.768646,14.66115 -17.880286,22.92363 -3.821583,6.17723 -5.745206,10.15574 -9.131398,16.63649 -8.120288,16.57904 -14.363636,34.01713 -19.09109,51.85166 -0.988503,3.72917 -1.832814,7.49508 -2.749221,11.24262 -4.585138,20.76763 -7.270248,41.9119 -9.252091,63.07154 -0.435703,4.6519 -0.790348,9.31103 -1.185522,13.96654 -1.317928,17.7475 -2.307018,35.56572 -1.791639,53.36968 0.288181,9.95533 0.684959,12.72265 1.569107,22.46294 1.666807,15.35508 5.035727,30.63408 11.780648,44.61468 1.196579,2.48023 2.617512,4.84581 3.926267,7.26871 1.463295,2.25336 2.838834,4.56621 4.389886,6.76009 1.558024,2.20375 3.234851,4.32257 4.930114,6.42257 3.190642,3.9524 6.761528,8.02269 10.433862,11.54413 4.74743,4.55237 6.181855,5.38737 11.380566,9.28647 2.014003,1.22199 3.957641,2.56831 6.042007,3.66598 6.31788,3.32712 13.29802,5.57924 20.33404,6.7509 6.4436,1.073 8.59877,0.86865 15.16299,0.99235 2.7114,-0.21521 5.43814,-0.28614 8.13421,-0.64564 6.04822,-0.80648 11.24574,-2.14122 17.06495,-3.96761 6.50085,-2.04033 11.51022,-3.95079 17.63936,-6.98622 3.07156,-1.52117 6.01886,-3.28133 9.0283,-4.92199 0.57295,-0.49293 1.12136,-1.01591 1.71885,-1.47878 8.52423,-6.60357 9.6626,-6.83704 17.52521,-14.34704 5.46503,-5.21995 11.72783,-12.13978 16.49481,-17.99785 2.60884,-3.20597 5.0273,-6.56227 7.54096,-9.8434 2.31297,-3.38829 4.71685,-6.71626 6.93891,-10.16485 9.03671,-14.02475 16.88249,-29.00779 22.90136,-44.57843 1.522,-3.93737 2.79392,-7.9669 4.19087,-11.95035 6.09976,-19.18512 9.531,-39.10407 11.11887,-59.14816 0.30824,-3.89097 0.47688,-7.79174 0.71532,-11.68761 0.77141,-18.84471 0.75914,-37.72853 10e-4,-56.57421 -0.14765,-3.67193 -0.3567,-7.34113 -0.53506,-11.0117 -0.92806,-16.70004 -3.54488,-33.30107 -8.23668,-49.36699 -0.85071,-2.91305 -1.84175,-5.78328 -2.76262,-8.67491 -3.58582,-10.75968 -8.48825,-21.01269 -14.35278,-30.70785 -3.35296,-5.54308 -4.60339,-7.18709 -8.23488,-12.44164 -5.35543,-7.14689 -11.35371,-13.83825 -18.1084,-19.69559 -3.99454,-3.46388 -5.47404,-4.38272 -9.73454,-7.44609 -6.14516,-4.12402 -12.76354,-7.47198 -19.89885,-9.49538 -4.55317,-1.29117 -5.81823,-1.34755 -10.46993,-2.07923 -7.16271,-0.87407 -14.36337,-0.26136 -21.29915,1.72175 -4.52236,1.29305 -6.14398,2.17493 -10.45442,4.05899 -1.72659,0.92545 -3.49129,1.78308 -5.17978,2.77635 -0.8246,0.48507 3.28105,-1.90449 2.58391,-1.24931 -1.70044,1.5981 -3.81559,2.69111 -5.65117,4.13197 -1.94412,1.52607 -3.84512,3.10999 -5.6817,4.76393 -5.54966,4.99779 -6.67212,6.51344 -11.78175,12.11467 -4.8784,6.00498 -6.49483,7.57326 -10.53183,14.26363 -1.59112,2.63692 -3.00739,5.37751 -4.3976,8.12567 -1.23952,2.45025 -2.32545,4.97522 -3.48818,7.46283 0,0 -8.20609,3.73608 -8.20609,3.73608 l 0,0 c 2.50441,-5.28193 4.93985,-10.70442 7.91662,-15.74585 4.0508,-6.86041 5.50511,-8.2245 10.4443,-14.37059 4.93254,-5.51431 6.21304,-7.22515 11.57671,-12.16067 2.49431,-2.29521 8.22201,-7.08729 11.15427,-8.96927 9.32368,-5.98412 10.92257,-6.69038 18.5851,-10.68332 4.42884,-1.86735 5.93483,-2.68002 10.57379,-3.93377 7.03177,-1.90045 14.31205,-2.41242 21.53326,-1.447 4.68039,0.78921 5.96759,0.86431 10.54591,2.20924 7.18401,2.11039 13.8162,5.56683 19.98502,9.78043 4.27311,3.11622 5.75272,4.04784 9.75438,7.56822 6.75575,5.94323 12.78566,12.68951 18.12153,19.92487 1.36125,2.00525 2.76332,3.98338 4.08375,6.01573 7.61088,11.71441 14.07055,24.17988 18.42187,37.48496 0.91966,2.90871 1.91212,5.79538 2.75897,8.7261 4.66777,16.15378 7.21536,32.85823 8.12726,49.63311 0.18076,3.67548 0.40045,7.34925 0.54228,11.02644 0.7283,18.88258 0.74847,37.8047 -0.0463,56.68416 -0.23239,3.90478 -0.38918,7.8148 -0.69718,11.71434 -1.5892,20.12092 -5.05095,40.1233 -11.14735,59.38647 -1.38453,3.99784 -2.63783,8.04358 -4.1536,11.99353 -1.50253,3.91545 -3.17491,7.76542 -4.8963,11.5897 -6.84638,15.21006 -15.15924,29.75427 -24.83884,43.33973 -2.50018,3.29368 -4.90373,6.663 -7.50055,9.88104 -4.47572,5.5464 -11.22738,13.09679 -16.35482,18.06409 -4.24803,4.11536 -12.43525,11.14791 -17.40229,14.44904 -5.4029,3.5908 -11.08593,6.74115 -16.6289,10.11173 -3.04482,1.63845 -6.02729,3.39848 -9.13447,4.91537 -6.04475,2.95097 -11.39024,4.97365 -17.80091,6.9477 -5.82206,1.7928 -11.19742,3.11748 -17.24488,3.8864 -2.72872,0.34695 -5.48654,0.40363 -8.22981,0.60545 -6.6027,-0.16357 -8.85242,0.0292 -15.33081,-1.09775 -7.09861,-1.23482 -14.15552,-3.58705 -20.512665,-6.99175 -2.098284,-1.12379 -4.050734,-2.50086 -6.076101,-3.75129 -5.143753,-3.92588 -6.705821,-4.88278 -11.407304,-9.44093 -3.682927,-3.57066 -7.227545,-7.66667 -10.434874,-11.65931 -1.7054,-2.12297 -3.403869,-4.25586 -4.971151,-6.48274 -1.560167,-2.21677 -2.93554,-4.558 -4.403309,-6.83699 -1.310145,-2.453 -2.733189,-4.84895 -3.930436,-7.35899 C 46.402989,914.42731 43.034368,899.05233 41.487828,883.55054 40.637313,873.2715 40.3379,871.44772 40.094827,860.92059 c -0.41229,-17.85567 0.59574,-35.71635 1.913804,-53.5152 0.371185,-4.64947 0.695932,-9.30288 1.113554,-13.94841 1.90158,-21.15271 4.517287,-42.29174 8.981914,-63.06913 0.90996,-3.75652 1.750013,-7.53067 2.72988,-11.26957 4.67349,-17.83273 10.840626,-35.27733 18.805444,-51.91229 3.069663,-5.98511 5.453786,-10.89486 8.913002,-16.6415 4.97946,-8.27217 10.961936,-15.89181 17.509515,-22.97192 2.79312,-2.80505 4.83323,-4.94327 7.75925,-7.55474 3.54396,-3.163 7.32748,-6.08776 11.26414,-8.7426 0,0 9.28227,-3.57178 9.28227,-3.57178 z"
       inkscape:connector-curvature="0" />
    <path
       style="fill:#ffeeaa"
       d="M 471.61689,252.14336 C 456.1768,246.86 448.97044,242.12508 447.22347,236.11571 c -1.41361,-4.86266 1.67064,-16.33371 7.5414,-28.04824 5.25655,-10.4889 11.07865,-19.38952 31.86434,-48.71303 14.69642,-20.73303 17.99778,-26.06785 21.80092,-35.22907 l 1.72981,-4.16688 2.06314,-1.08435 2.06313,-1.08435 0,-1.60727 c 0,-3.45159 1.16996,-10.4975 2.30263,-13.86729 1.59419,-4.742854 5.64572,-11.409971 8.71989,-14.349288 0.85267,-0.815271 1.23859,-0.976953 3.11962,-1.306985 3.35413,-0.588492 5.67766,-0.69542 9.06775,-0.417295 8.50885,0.698072 17.27993,2.93325 23.32527,5.944096 9.13099,4.547639 25.43191,18.339312 31.97354,27.051772 3.42572,4.56254 5.56584,8.95037 6.9665,14.28327 2.24052,8.53061 1.77674,20.3601 -1.2158,31.01068 -0.71453,2.54305 -0.5884,2.86899 -1.80796,-4.67196 -1.07126,-6.62391 -2.86125,-15.81477 -4.03308,-20.70813 -2.96848,-12.39586 -8.00077,-21.32017 -14.45715,-25.63846 -4.32692,-2.89402 -11.04833,-3.70678 -15.81228,-1.91203 -3.76507,1.41843 -8.86602,4.2704 -15.31897,8.56493 -8.12949,5.41028 -10.13927,7.17951 -13.76333,12.11598 -0.97227,1.32437 -1.93823,2.45636 -2.14657,2.51555 -0.20835,0.0592 -1.02338,1.30129 -1.81118,2.76023 -0.7878,1.45894 -3.22463,5.71001 -5.41517,9.44682 -5.18152,8.83904 -6.73949,11.65929 -11.14722,20.17872 -6.10027,11.79085 -19.86478,39.14345 -21.79481,43.31029 -6.06945,13.10363 -12.34048,29.68874 -14.91928,39.4573 -0.61933,2.34605 -0.95219,3.21335 -1.22835,3.2006 -0.20834,-0.01 -1.68136,-0.4632 -3.27337,-1.00796 z"
       id="path3397"
       inkscape:connector-curvature="0"
       transform="translate(0,552.36215)" />
    <path
       style="fill:#ffaaaa"
       d="m 507.87696,315.41527 c -4.13056,-0.7838 -8.78606,-3.44458 -12.56404,-7.18077 -4.42709,-4.37813 -6.6641,-9.12645 -8.39422,-17.81775 -1.21004,-6.07864 -3.53552,-20.93702 -4.08599,-26.10697 l -0.17204,-1.61576 0.84989,0.17439 c 3.0349,0.62272 6.91025,1.17044 10.08528,1.42539 8.6537,0.69491 18.62708,-1.32042 29.65548,-5.9925 3.99866,-1.694 7.72016,-3.72077 14.52094,-7.90827 10.5523,-6.49745 13.46298,-8.63966 20.58186,-15.14788 10.5633,-9.65717 21.54825,-22.50899 30.92274,-36.17796 1.59006,-2.31847 2.91473,-4.19053 2.94372,-4.16013 0.029,0.0304 0.2622,1.93036 0.51825,4.22214 0.66676,5.96778 0.66854,20.60057 0.003,25.50635 -2.08024,15.33612 -8.20408,31.51904 -17.4002,45.98191 -10.13372,15.93745 -24.62577,31.18296 -36.14004,38.01901 -0.67222,0.39909 -1.63818,0.98067 -2.14658,1.29238 -1.41973,0.87049 -5.88082,2.53808 -9.38439,3.50797 -7.10819,1.96775 -15.45404,2.80194 -19.79377,1.97845 z"
       id="path3399"
       inkscape:connector-curvature="0"
       transform="translate(0,552.36215)" />
    <path
       style="fill:#ffccaa"
       d="m 500.52288,258.58118 c -2.98912,-0.28891 -5.96611,-0.732 -9.47018,-1.40954 -3.88907,-0.75199 -7.81738,-1.63095 -7.96964,-1.78322 -0.16785,-0.16785 1.12967,-6.54275 2.01626,-9.90619 2.25362,-8.54953 7.23006,-22.10652 12.47126,-33.97459 2.45545,-5.56007 9.3676,-19.55939 16.9599,-34.34926 10.26792,-20.00197 11.961,-23.10898 19.1971,-35.22907 2.32192,-3.88909 4.69825,-7.89497 5.28073,-8.90197 0.58249,-1.00699 1.15905,-1.8309 1.28124,-1.8309 0.12219,0 1.12337,-1.16483 2.22486,-2.58851 2.57959,-3.33415 5.25482,-5.86342 8.96223,-8.47323 3.42717,-2.41254 4.65931,-3.00061 6.97546,-3.32923 2.05637,-0.29177 5.96411,0.0706 8.1964,0.76011 4.75508,1.4687 9.39419,6.44905 13.04974,14.00967 3.96546,8.20157 7.0879,22.85221 11.2265,52.67529 0.0973,0.70113 -0.0933,1.35529 -0.84599,2.90419 -2.32323,4.7805 -8.05838,13.77401 -13.68155,21.45456 -10.28494,14.04796 -23.5792,28.15795 -33.70096,35.76884 -2.72468,2.04878 -3.21328,2.51775 -3.10194,2.97732 0.10381,0.42851 -5.63432,3.53262 -9.85369,5.33047 -9.08222,3.86988 -16.79033,5.74435 -24.29323,5.90768 -2.15289,0.0469 -4.36891,0.0413 -4.9245,-0.0124 z"
       id="path3401"
       inkscape:connector-curvature="0"
       transform="translate(0,552.36215)" />
    <path
       style="fill:#e6e6e6"
       d="m 506.07872,395.0892 c -19.2908,-1.30446 -41.10901,-14.86581 -58.10273,-36.11442 -7.06301,-8.83144 -12.61834,-18.65113 -18.52997,-32.75392 -7.96116,-18.99216 -13.87499,-44.56932 -15.92648,-68.88162 -0.44768,-5.30546 -0.60363,-21.74267 -0.27314,-28.78935 1.32696,-28.29342 5.11453,-50.61539 13.19292,-77.75213 1.31525,-4.41818 4.62139,-14.32131 5.046,-15.11472 0.13317,-0.24882 1.48265,-1.07455 2.99885,-1.83495 2.68689,-1.34753 2.76382,-1.40982 3.03711,-2.45904 0.91571,-3.51566 2.69746,-9.21309 3.7517,-11.99673 5.88039,-15.52659 18.43974,-41.319135 25.35213,-52.064461 6.58893,-10.242507 14.02162,-18.160116 21.64967,-23.062142 1.18062,-0.758701 2.31537,-1.582963 2.52168,-1.831694 1.49195,-1.798769 12.17813,-6.642785 20.01629,-9.073331 11.41033,-3.538246 21.21628,-5.237023 32.38908,-5.611065 24.02198,-0.804206 55.96138,7.919974 74.49875,20.349175 10.53842,7.065949 16.95863,13.832719 23.74881,25.030737 4.42548,7.298282 7.08026,13.939194 10.57846,26.462022 5.52145,19.765619 6.8938,28.532929 7.14693,45.658509 0.22042,14.91231 -0.78698,25.65234 -3.88124,41.37849 -2.57198,13.07169 -5.59676,24.53438 -11.83433,44.84735 -6.41725,20.89805 -10.75884,32.59393 -17.78088,47.90025 -12.16636,26.51967 -19.66195,40.48751 -31.20188,58.14394 -8.18804,12.52791 -14.67137,20.60072 -24.24741,30.19197 -5.36266,5.37118 -9.34271,8.91363 -13.26388,11.80558 -4.34982,3.20809 -5.04647,3.76703 -4.92992,3.95563 0.25683,0.41555 -8.03481,4.48449 -12.87402,6.31762 -11.75279,4.45204 -21.80037,6.06122 -33.0825,5.2983 z m 6.81853,-74.10484 c 5.47558,-0.85573 11.72018,-2.66635 16.66588,-4.8323 6.74731,-2.95494 19.16333,-10.52813 25.16148,-15.34727 3.22355,-2.58993 7.73627,-6.8283 11.38143,-10.68946 15.6366,-16.56322 26.16414,-34.27761 32.10247,-54.01789 2.86881,-9.53653 3.95441,-17.21851 3.95734,-28.00314 0.002,-6.27517 -0.3232,-10.59877 -1.54151,-20.5128 l -0.78288,-6.37067 1.26206,-2.84697 c 3.76931,-8.50282 6.9058,-18.94242 8.17711,-27.21691 0.4669,-3.03885 0.56381,-4.73585 0.56963,-9.97525 0.007,-5.91197 -0.0362,-6.51514 -0.67181,-9.48492 -2.13324,-9.96635 -6.55799,-17.36428 -15.62429,-26.12296 -8.09769,-7.822937 -19.35441,-16.419247 -25.27369,-19.300527 -8.86378,-4.314544 -23.76492,-6.995984 -31.89717,-5.739856 -8.74779,1.351205 -18.24824,7.356165 -23.28198,14.715864 -2.09245,3.05931 -4.27972,7.242019 -5.24433,10.028699 l -0.78867,2.27841 -1.88376,1.05082 c -1.19169,0.66477 -1.85008,1.18198 -1.79208,1.40782 0.32577,1.26863 0.29756,4.91046 -0.0536,6.92299 -1.05621,6.05266 -5.26628,15.81076 -10.53227,24.41168 -2.75129,4.49367 -4.99898,7.75922 -16.31067,23.69683 -20.12096,28.34946 -24.92258,35.66489 -30.01562,45.72984 -4.31954,8.53634 -7.76745,18.51858 -8.41779,24.37077 -0.67443,6.06904 1.71801,10.53811 7.78588,14.54399 5.10288,3.36881 14.32109,7.1383 24.59152,10.0559 l 3.25204,0.92383 0.0628,4.02129 c 0.0676,4.32803 0.36619,6.71717 2.41201,19.29984 2.04879,12.6009 3.21543,17.61525 5.02894,21.61484 2.58675,5.70497 7.42292,10.58294 13.51879,13.63565 3.98282,1.99452 6.10202,2.41174 11.49048,2.26216 2.29178,-0.0636 5.3033,-0.29325 6.69226,-0.5103 z"
       id="path3403"
       inkscape:connector-curvature="0"
       transform="translate(0,552.36215)" />
    <path
       style="fill:#e6e6e6"
       d="m 128.40058,424.1473 c -9.02215,-0.7133 -19.23403,-3.66731 -26.64752,-7.7084 -7.03262,-3.83348 -15.358585,-10.55062 -21.508008,-17.35202 -11.41423,-12.62436 -18.180359,-23.36132 -23.127035,-36.69955 -8.132448,-21.92834 -11.051662,-53.07726 -8.756196,-93.43134 1.624068,-28.55096 4.539328,-56.04182 8.194778,-77.27667 5.279837,-30.67104 14.036725,-58.16702 26.139124,-82.07489 5.10347,-10.081734 8.973165,-16.610347 13.599701,-22.944246 3.068637,-4.201078 6.934526,-8.900626 7.046176,-8.565659 0.0516,0.154811 -0.20439,0.869976 -0.56888,1.58926 -0.36449,0.719284 -0.61471,1.355789 -0.55604,1.414456 0.0587,0.05867 1.93753,-0.719698 4.17524,-1.729702 l 4.06858,-1.836366 1.30205,-2.904232 c 2.20423,-4.916543 5.27122,-10.585343 6.16899,-11.402288 1.69297,-1.540574 5.61643,-4.560955 7.88667,-6.071373 1.28412,-0.854339 2.29059,-1.597521 2.2366,-1.651516 -0.054,-0.05399 -1.70126,0.52013 -3.6606,1.275832 -1.95933,0.755701 -3.56242,1.316775 -3.56242,1.246829 0,-0.280941 2.48036,-3.574829 5.2419,-6.961191 7.5079,-9.206621 15.79203,-17.254998 22.48763,-21.847677 1.20793,-0.828552 2.51774,-1.805678 2.91068,-2.171391 1.80281,-1.677875 9.54296,-4.927923 15.0692,-6.327476 5.21105,-1.319729 6.8326,-1.503042 13.25825,-1.498817 5.11411,0.0034 6.57242,0.0921 9.33529,0.568071 11.02667,1.899597 19.67853,5.633452 29.80812,12.864202 14.64955,10.457201 27.26976,25.562771 37.97614,45.45497 4.2791,7.950456 7.33232,15.113246 10.52004,24.679784 5.91107,17.73941 9.26683,35.71689 10.46507,56.06347 1.24351,21.11513 1.42164,52.56467 0.40123,70.83694 -2.41371,43.22188 -11.58153,76.83562 -29.89274,109.60156 -11.41474,20.42543 -24.08177,37.31521 -38.73854,51.65261 -5.45846,5.33951 -7.25867,6.88211 -13.83844,11.85813 -2.70847,2.04831 -5.26542,4.0353 -5.68211,4.41552 -0.9293,0.84805 -7.7502,4.63789 -11.72223,6.51316 -10.30227,4.86391 -24.25204,9.04632 -33.8609,10.15221 -3.21088,0.36954 -12.8614,0.52938 -16.1698,0.2678 z M 155.9061,258.86891 c 4.4481,-2.25402 5.66283,-7.79424 2.56751,-11.71011 -1.4731,-1.86361 -3.31929,-2.70014 -5.94828,-2.69523 -2.40545,0.005 -3.85014,0.56337 -5.36044,2.07367 -1.61457,1.61457 -2.21803,3.12115 -2.20252,5.4987 0.0151,2.31116 0.53683,3.62009 2.09703,5.26098 2.29843,2.41729 5.91159,3.05932 8.8467,1.57199 z m -3.53553,-84.85281 c 4.4481,-2.25403 5.66282,-7.79424 2.56751,-11.71011 -1.47311,-1.86362 -3.3193,-2.70015 -5.94828,-2.69523 -2.40545,0.004 -3.85015,0.56337 -5.36044,2.07366 -1.61457,1.61458 -2.21804,3.12116 -2.20252,5.49871 0.0151,2.31115 0.53682,3.62009 2.09703,5.26098 2.29843,2.41729 5.91159,3.05932 8.8467,1.57199 z"
       id="path3405"
       inkscape:connector-curvature="0"
       transform="translate(0,552.36215)" />
    <path
       style="fill:#000000"
       id="path3415"
       d="m 164.21623,708.35978 c 2.49414,-2.97963 5.44062,-5.55149 8.26602,-8.20963 5.44644,-5.16633 11.56175,-9.55197 17.67504,-13.88232 3.93892,-2.73939 8.00216,-5.2899 12.14634,-7.70562 3.97233,-2.31555 9.04977,-5.30653 13.36611,-7.56403 1.48679,-0.77761 2.99808,-1.50741 4.49713,-2.26112 9.65767,-4.60173 19.70571,-8.31004 29.81005,-11.79344 8.87187,-2.94971 18.01253,-5.00362 27.20411,-6.66733 1.86415,-0.33742 3.73568,-0.63264 5.60352,-0.94896 9.3898,-1.54448 18.84297,-2.70295 28.32618,-3.49194 1.91964,-0.15971 3.84223,-0.28168 5.76335,-0.42253 9.5331,-0.60022 19.09059,-0.90733 28.64342,-0.82131 1.86341,0.0168 3.72627,0.0717 5.58941,0.10757 7.04365,0.22414 14.08049,0.74535 21.07438,1.61636 3.72508,0.46392 5.76586,0.80693 9.45372,1.37745 5.67582,0.98903 11.33761,2.15037 16.85613,3.82462 2.57844,0.78226 4.97012,1.66205 7.50815,2.56115 5.75398,2.14038 11.54663,4.23845 17.11163,6.84557 1.00877,0.4726 1.9975,0.98684 2.99624,1.48027 5.28617,2.83048 10.50099,5.79564 15.66811,8.83773 2.834,1.71511 5.69104,3.41278 8.34022,5.40942 0.77803,0.58638 2.26646,1.81919 3.04033,2.45386 2.60156,2.17032 5.18457,4.36259 7.76862,6.55365 2.05303,1.77375 4.02156,3.64235 6.08024,5.40924 1.28226,1.1627 2.62172,2.25848 3.93778,3.3818 0.94468,0.85071 1.95831,1.62279 2.8742,2.50524 0.53613,0.54568 1.04215,1.11966 1.57136,1.67196 0.0539,0.0413 0.0947,0.11309 0.16173,0.12397 0.0348,0.006 0.0895,-0.10453 0.0582,-0.0883 -1.78292,0.92544 -3.52052,1.93892 -5.3248,2.82197 -0.0835,0.0409 0.0812,-0.17029 0.0947,-0.26225 0.0457,-0.31179 -0.0315,-0.80583 -0.0605,-1.08662 -0.48629,-3.42376 -1.16438,-6.8153 -1.81209,-10.21101 -0.90782,-4.80325 -1.74118,-9.61988 -2.63302,-14.42611 -0.63813,-3.76764 -1.26257,-7.53715 -1.98578,-11.28965 -0.43536,-2.1401 -0.94569,-4.26284 -1.29091,-6.42024 -0.0956,-0.68161 -0.15568,-1.36592 -0.30809,-2.03798 0,0 5.52963,-2.96282 5.52963,-2.96282 l 0,0 c 0.13534,0.69873 0.20611,1.40206 0.25688,2.11178 0.26685,2.17517 0.74236,4.31196 1.15404,6.46278 0.6761,3.7755 1.28615,7.56158 1.87289,11.35186 0.86478,4.80845 1.72097,9.61882 2.62623,14.41973 0.69281,3.36996 1.41607,6.73341 2.07795,10.10953 0.0177,0.10265 0.28005,1.58854 0.18604,1.65215 -3.75916,2.54362 -4.13956,4.81242 -5.95403,2.98506 -0.50658,-0.55685 -1.01077,-1.11616 -1.52904,-1.66214 -0.89686,-0.87909 -1.89014,-1.65091 -2.82133,-2.49252 -1.30733,-1.12595 -2.61974,-2.24607 -3.88383,-3.42106 -2.02562,-1.79028 -3.97091,-3.66938 -6.00957,-5.4455 -2.56858,-2.19942 -5.15775,-4.37444 -7.73199,-6.56725 -0.82684,-0.69424 -2.12935,-1.80166 -2.97219,-2.45087 -2.605,-2.00655 -5.42465,-3.7078 -8.23023,-5.41332 -5.14048,-3.03484 -10.30364,-6.03926 -15.57018,-8.85065 -0.99037,-0.49005 -1.97185,-0.99849 -2.97112,-1.47014 -5.5337,-2.61185 -11.28713,-4.72088 -17.01608,-6.85432 -2.82365,-0.99785 -4.60839,-1.66354 -7.47782,-2.5367 -5.4796,-1.66743 -11.08732,-2.86397 -16.729,-3.83149 -4.15871,-0.65617 -5.1838,-0.84974 -9.40449,-1.38439 -6.95518,-0.88103 -13.94967,-1.43627 -20.95823,-1.63562 -4.82106,-0.0859 -6.33337,-0.14281 -11.15244,-0.10899 -7.68082,0.0539 -15.36009,0.34891 -23.02474,0.84432 -1.92449,0.14744 -3.85029,0.2787 -5.77347,0.44234 -9.47381,0.80607 -18.92019,1.95061 -28.29825,3.52224 -1.87034,0.32294 -3.74383,0.62816 -5.61103,0.96881 -9.17762,1.67435 -18.29882,3.75599 -27.1519,6.72448 -1.77047,0.61526 -3.5472,1.2128 -5.31141,1.84578 -8.31894,2.98476 -16.55105,6.25257 -24.52803,10.06416 -7.12446,3.61581 -1.88302,0.8971 -8.86269,4.67165 -0.14608,0.079 0.56884,-0.3431 0.42587,-0.25859 -4.1042,2.42602 -8.18728,4.88805 -12.08825,7.63555 -6.03005,4.26504 -12.06251,8.591 -17.42398,13.69299 -1.65302,1.57816 -3.31372,3.14793 -4.95661,4.73662 -0.92129,0.8909 -1.53785,1.44985 -2.36621,2.39599 -0.24298,0.27753 -0.45955,0.57711 -0.68932,0.86566 0,0 -5.70329,2.45144 -5.70329,2.45144 z"
       inkscape:connector-curvature="0" />
    <path
       style="fill:#000000"
       id="path3417"
       d="m 472.04722,702.15771 c -2.19987,-0.114 -4.39005,0.1135 -6.57364,0.34907 -3.89779,0.39831 -7.81833,0.44549 -11.72726,0.6762 -8.03002,0.90174 -15.99265,2.31467 -23.93457,3.78668 -4.65974,0.86723 -9.28074,1.93621 -13.94716,2.76656 -1.36421,0.23266 -2.73715,0.41023 -4.11648,0.52138 0,0 5.0257,-3.70829 5.0257,-3.70829 l 0,0 c 1.31822,-0.0878 2.63017,-0.24912 3.93419,-0.46107 4.57397,-0.77625 9.11131,-1.75455 13.67845,-2.56948 8.00539,-1.42248 16.03165,-2.74835 24.09178,-3.82128 3.95876,-0.28475 7.93204,-0.36478 11.87762,-0.81909 2.24024,-0.24418 4.48345,-0.41643 6.73916,-0.38812 0,0 -5.04779,3.66744 -5.04779,3.66744 z"
       inkscape:connector-curvature="0" />
    <path
       style="fill:#000000"
       id="path3419"
       d="m 180.3165,819.93471 c 2.32802,3.35656 5.25584,6.21913 8.18771,9.03825 0.73847,0.69024 1.47674,1.38068 2.21541,2.07071 0.65347,0.61044 4.25446,3.97799 4.88127,4.53847 2.94297,2.63159 6.03029,5.08171 9.12905,7.52467 6.21581,4.73514 12.67607,9.15516 19.3886,13.15786 1.463,0.87239 2.94946,1.70482 4.4242,2.55724 1.49508,0.8115 2.97634,1.64901 4.48525,2.4345 2.56644,1.33599 6.73583,3.33866 9.34621,4.55609 3.16568,1.4764 6.68705,3.07257 9.92479,4.38274 1.74309,0.70535 3.51135,1.34685 5.26702,2.02028 6.68109,2.42483 13.46628,4.57854 20.40374,6.14539 3.9195,0.88523 6.30525,1.25252 10.26627,1.94566 9.97872,1.64049 20.06167,2.49589 30.14719,3.12948 5.77349,0.30227 11.55613,0.51582 17.33865,0.43098 3.0863,-0.0453 4.95448,-0.15152 8.03032,-0.28885 7.3275,-0.43939 14.62694,-1.25068 21.9192,-2.07578 4.4326,-0.53832 8.87539,-1.04456 13.27275,-1.83269 2.6803,-0.48039 3.37158,-0.67335 6.01723,-1.28228 5.7361,-1.32654 11.32921,-3.17415 16.88109,-5.11517 4.99948,-1.72584 10.07221,-3.21862 15.06421,-4.96666 4.23291,-1.50157 8.34315,-3.31221 12.40318,-5.22503 2.40189,-1.21123 4.80899,-2.407 7.29588,-3.43466 1.62209,-0.64565 3.27883,-1.19607 4.89761,-1.85018 0.92039,-0.34911 1.87435,-0.61165 2.85465,-0.71113 0.34218,-0.0266 0.18133,-0.0163 0.48245,-0.0324 0,0 -5.05337,3.72934 -5.05337,3.72934 l 0,0 c -0.27624,0.0271 -0.12826,0.0107 -0.44374,0.051 -0.93111,0.16139 -1.83681,0.43795 -2.7132,0.79111 -1.60951,0.61781 -3.2467,1.16186 -4.84024,1.82141 -2.43941,1.03302 -4.80332,2.22465 -7.18636,3.37968 -4.04039,1.87295 -8.13958,3.62172 -12.34293,5.10002 -4.99257,1.72546 -10.05922,3.21877 -15.04865,4.95379 -5.55254,1.90918 -11.14465,3.72741 -16.87612,5.02973 -2.72251,0.60855 -3.26939,0.76562 -6.02548,1.24154 -4.39015,0.75809 -8.82302,1.24004 -13.24356,1.77712 -7.27936,0.80805 -14.56567,1.61058 -21.88185,1.9994 -3.18224,0.13022 -4.82953,0.22183 -8.02407,0.25444 -5.7626,0.0588 -11.52256,-0.18511 -17.27388,-0.52236 -10.07732,-0.67382 -20.14807,-1.56858 -30.11862,-3.22312 -4.05314,-0.71373 -6.28702,-1.05317 -10.29464,-1.97311 -6.93535,-1.592 -13.7096,-3.77612 -20.37999,-6.24049 -1.76854,-0.67315 -3.55051,-1.31198 -5.30561,-2.01944 -2.9441,-1.18673 -7.08071,-3.04704 -9.96355,-4.38327 -2.77265,-1.28516 -6.66622,-3.1485 -9.38377,-4.56704 -1.51122,-0.78885 -2.99385,-1.63132 -4.49078,-2.44698 -1.48406,-0.85229 -2.97948,-1.68511 -4.4522,-2.55686 -6.75729,-3.9999 -13.25078,-8.42427 -19.52198,-13.14745 -2.70099,-2.09013 -3.88386,-2.96899 -6.483,-5.11925 -3.44172,-2.84733 -6.65731,-5.9466 -9.97447,-8.935 -3.01374,-2.81949 -5.95742,-5.71666 -8.54634,-8.9401 0,0 5.34447,-3.17167 5.34447,-3.17167 z"
       inkscape:connector-curvature="0" />
    <path
       style="fill:#000000"
       id="path3421"
       d="m 414.1454,840.80067 c 2.27248,1.63885 4.92664,2.57698 7.51885,3.57392 4.42902,1.683 8.72471,3.69124 13.05938,5.59908 3.48761,1.54367 7.00754,3.01267 10.56964,4.37566 1.61852,0.59551 3.22822,1.22316 4.7736,1.99126 0.67792,0.36104 1.13601,0.86728 1.36743,1.59418 0.22091,0.91551 -0.0837,1.79856 -0.38923,2.654 -0.54416,1.3191 -0.92787,2.6933 -1.40048,4.03782 -1.17471,2.95109 -2.51866,5.83587 -3.88641,8.70202 -1.54379,3.10852 -3.29421,6.10485 -4.82235,9.22101 -0.93505,2.00046 -1.91131,3.98017 -2.93146,5.93843 -0.58342,1.15685 -1.17797,2.31082 -1.67909,3.50638 -0.17757,0.4793 -0.34141,0.96351 -0.51233,1.44522 0,0 -5.70133,2.64361 -5.70133,2.64361 l 0,0 c 0.20458,-0.48455 0.40249,-0.97323 0.55622,-1.47667 0.48789,-1.23154 1.11689,-2.40001 1.70369,-3.58615 1.05887,-1.96442 2.09071,-3.94302 3.03612,-5.96523 0.45213,-0.91735 0.91972,-1.88423 1.40155,-2.78527 1.15356,-2.15725 2.42593,-4.25144 3.48635,-6.4588 1.35242,-2.8108 2.6357,-5.65944 3.75645,-8.57127 0.47801,-1.33298 0.8185,-2.70724 1.35083,-4.02034 0.27129,-0.7293 0.63723,-1.4908 0.52647,-2.28751 -0.13026,-0.57925 -0.55659,-0.89709 -1.06739,-1.16837 -1.49903,-0.76259 -3.04526,-1.42392 -4.614,-2.02983 -3.51632,-1.41925 -6.98895,-2.94167 -10.45311,-4.48328 -4.33207,-1.91944 -8.63826,-3.91486 -13.09402,-5.53609 -1.68122,-0.62015 -3.3797,-1.21658 -5.00178,-1.98399 -0.96511,-0.4566 -1.19459,-0.62653 -2.07717,-1.13769 -0.2383,-0.13802 -0.47844,-0.27285 -0.71766,-0.40927 0,0 5.24123,-3.38283 5.24123,-3.38283 z"
       inkscape:connector-curvature="0" />
    <path
       style="fill:#666666"
       id="path3454"
       d="m 150.21457,730.85905 c 0.3091,0.64632 0.50832,1.33577 0.67757,2.02951 0.19736,1.02667 0.29536,2.06917 0.43894,3.10418 0.11765,0.84563 0.27172,1.68549 0.40365,2.52885 0.0662,0.40536 0.1138,0.81321 0.13469,1.22336 0.01,0.17881 0.0151,0.35787 0.0263,0.5366 10e-4,0.0131 0.002,0.0263 0.003,0.0394 0,0 -5.04364,2.56411 -5.04364,2.56411 l 0,0 c 0.001,-0.0142 0.003,-0.0284 0.004,-0.0426 0.0138,-0.18286 0.0216,-0.36612 0.0278,-0.54938 0.009,-0.40887 0.0144,-0.81815 -0.0111,-1.22663 -0.0604,-0.8603 -0.18841,-1.71177 -0.31077,-2.56506 -0.1306,-1.01224 -0.1982,-2.0371 -0.44119,-3.03108 -0.16351,-0.60918 -0.32976,-1.2592 -0.74824,-1.7494 0,0 4.83869,-2.8619 4.83869,-2.8619 z"
       inkscape:connector-curvature="0" />
    <path
       style="fill:#666666"
       id="path3456"
       d="m 152.63026,747.69903 c 0.10635,0.68527 0.21246,1.3706 0.31531,2.05644 0.13145,0.97533 0.26077,1.95144 0.36324,2.93032 0.0869,0.83558 0.11483,1.67544 0.14484,2.5145 0.0186,0.52279 0.0297,1.04577 0.0432,1.5687 0.0119,0.28613 0.0151,0.57244 0.0219,0.8587 9.7e-4,0.18306 0.007,0.36603 0.0109,0.54904 0.002,0.13081 0.003,0.26165 0.003,0.39248 -0.002,0.0724 0.003,0.14483 0.01,0.21683 0,0 -5.04977,2.57299 -5.04977,2.57299 l 0,0 c 0.007,-0.0754 0.0115,-0.1512 0.01,-0.22701 2.3e-4,-0.13186 6.3e-4,-0.26373 0.003,-0.39557 0.004,-0.18693 0.01,-0.37381 0.0111,-0.56078 0.007,-0.2945 0.0115,-0.58904 0.0248,-0.88338 0.0158,-0.53414 0.0299,-1.06838 0.0398,-1.60267 0.0108,-0.83676 0.004,-1.67424 -0.0564,-2.50933 -0.0818,-0.96653 -0.20929,-1.92787 -0.37557,-2.88362 -0.1116,-0.64306 -0.21223,-1.29877 -0.45172,-1.90909 0,0 4.93226,-2.68855 4.93226,-2.68855 z"
       inkscape:connector-curvature="0" />
    <path
       style="fill:#666666"
       id="path3458"
       d="m 154.52571,766.10231 c -0.009,0.0844 -0.0223,0.16845 -0.027,0.25321 -0.0127,0.23112 -0.002,0.45688 0.009,0.68792 0.0225,0.46103 0.0592,0.92097 0.097,1.38093 0.0143,0.1772 0.0288,0.35439 0.0429,0.53161 0.0289,0.36186 0.059,0.71029 0.0751,1.0731 0.0263,0.59311 0.0291,1.18788 0.0435,1.78137 0.027,0.89941 0.0254,1.79876 -0.0298,2.69695 -0.0248,0.44714 -0.0836,0.89141 -0.11523,1.33796 -0.0112,0.17724 -0.0156,0.35479 -0.0171,0.53234 0.002,0.0695 6.9e-4,0.0368 0.005,0.0981 0,0 -5.03836,2.56818 -5.03836,2.56818 l 0,0 c 0.004,-0.0693 0.002,-0.0325 0.005,-0.11036 0.002,-0.20099 0.0132,-0.40175 0.0403,-0.60109 0.06,-0.46363 0.14936,-0.92211 0.21355,-1.38509 0.12206,-0.89724 0.19588,-1.79994 0.18991,-2.70628 -0.0169,-1.10886 -0.0681,-2.21852 -0.18903,-3.32131 -0.057,-0.45216 -0.1181,-0.90381 -0.17399,-1.35611 -0.0195,-0.15806 -0.0589,-0.51254 -0.0838,-0.67891 -0.0119,-0.0794 -0.0281,-0.15811 -0.0421,-0.23716 0,0 4.9955,-2.54534 4.9955,-2.54534 z"
       inkscape:connector-curvature="0" />
    <path
       style="fill:#666666"
       id="path3460"
       d="m 154.96427,782.74306 c -0.15954,0.71446 -0.16609,1.4515 -0.17073,2.18015 -0.007,0.8619 0.0114,1.72355 0.021,2.58531 0.003,0.79698 -0.10906,1.58741 -0.18093,2.37953 -0.0436,0.48137 -0.0525,0.96434 -0.0479,1.44728 0.005,0.15479 -0.0138,0.30856 -0.019,0.46288 -0.0114,0.054 -0.0163,0.1079 -0.0153,0.16295 0,0 -5.04791,2.56717 -5.04791,2.56717 l 0,0 c 0.002,-0.0705 -0.004,-0.14054 -0.003,-0.21103 0.0247,-0.16179 0.05,-0.32288 0.0856,-0.48279 0.0846,-0.50025 0.074,-1.01413 0.15372,-1.51567 0.0889,-0.78066 0.19728,-1.56011 0.22799,-2.34607 0.0243,-0.85938 -0.009,-1.71775 -0.0308,-2.5769 -3.9e-4,-0.72168 0.0474,-1.4436 0.008,-2.1651 0,0 5.01895,-2.48771 5.01895,-2.48771 z"
       inkscape:connector-curvature="0" />
  </g>
</svg>
