<?xml version="1.0" encoding="UTF-8" standalone="no"?>
<!-- Created with Inkscape (http://www.inkscape.org/) -->

<svg
   xmlns:dc="http://purl.org/dc/elements/1.1/"
   xmlns:cc="http://creativecommons.org/ns#"
   xmlns:rdf="http://www.w3.org/1999/02/22-rdf-syntax-ns#"
   xmlns:svg="http://www.w3.org/2000/svg"
   xmlns="http://www.w3.org/2000/svg"
   xmlns:sodipodi="http://sodipodi.sourceforge.net/DTD/sodipodi-0.dtd"
   xmlns:inkscape="http://www.inkscape.org/namespaces/inkscape"
   width="1600"
   height="900"
   viewBox="0 0 423.33333 238.12501"
   version="1.1"
   id="svg8"
   inkscape:version="0.92.2 (unknown)"
   sodipodi:docname="zemel.svg">
  <defs
     id="defs2">
    <inkscape:perspective
       sodipodi:type="inkscape:persp3d"
       inkscape:vp_x="0 : 119.06251 : 1"
       inkscape:vp_y="0 : 1000 : 0"
       inkscape:vp_z="423.33333 : 119.06251 : 1"
       inkscape:persp3d-origin="211.66666 : 79.375003 : 1"
       id="perspective4644" />
  </defs>
  <sodipodi:namedview
     id="base"
     pagecolor="#ffffff"
     bordercolor="#666666"
     borderopacity="1.0"
     inkscape:pageopacity="0.0"
     inkscape:pageshadow="2"
     inkscape:zoom="0.85719277"
     inkscape:cx="918.08693"
     inkscape:cy="375.59953"
     inkscape:document-units="mm"
     inkscape:current-layer="layer1"
     showgrid="false"
     units="px"
     inkscape:window-width="2485"
     inkscape:window-height="1416"
     inkscape:window-x="75"
     inkscape:window-y="24"
     inkscape:window-maximized="1" />
  <metadata
     id="metadata5">
    <rdf:RDF>
      <cc:Work
         rdf:about="">
        <dc:format>image/svg+xml</dc:format>
        <dc:type
           rdf:resource="http://purl.org/dc/dcmitype/StillImage" />
        <dc:title />
      </cc:Work>
    </rdf:RDF>
  </metadata>
  <g
     inkscape:label="Layer 1"
     inkscape:groupmode="layer"
     id="layer1"
     transform="translate(0,-58.874983)">
    <ellipse
       style="fill:#000000;stroke-width:0.26458332"
       id="path3703"
       cx="83.25444"
       cy="188.00157"
       rx="39.956795"
       ry="65.61467" />
    <ellipse
       style="fill:#ffeeaa;stroke-width:0.40711889"
       id="path3707"
       cx="83.259834"
       cy="188.25809"
       rx="37.01683"
       ry="62.941971" />
    <ellipse
       style="fill:#000000;stroke-width:0.25033528"
       id="path3707-3"
       cx="222.9028"
       cy="190.54063"
       rx="25.256971"
       ry="34.87867" />
    <ellipse
       style="fill:#e5ff80;stroke-width:0.23423535"
       id="path3707-3-6"
       cx="222.90279"
       cy="190.67427"
       rx="23.653355"
       ry="32.60688" />
    <ellipse
       style="fill:#000000;stroke-width:0.25116616"
       id="path3707-3-7"
       cx="353.8649"
       cy="189.73882"
       rx="16.971617"
       ry="52.251186" />
    <ellipse
       style="fill:#afdde9;stroke-width:0.23501281"
       id="path3707-3-6-5"
       cx="353.8649"
       cy="189.93901"
       rx="15.894053"
       ry="48.847858" />
    <path
       style="fill:none;stroke:#000000;stroke-width:0.26458332px;stroke-linecap:butt;stroke-linejoin:miter;stroke-opacity:1"
       d="m 91.406177,123.99069 c 23.574583,13.98461 78.228213,34.37795 126.685753,33.40869"
       id="path4570"
       inkscape:connector-curvature="0"
       sodipodi:nodetypes="cc" />
    <path
       style="fill:none;stroke:#000000;stroke-width:0.24462052px;stroke-linecap:butt;stroke-linejoin:miter;stroke-opacity:1"
       d="m 225.66748,225.19154 c -37.22885,2.09567 -99.85457,7.27154 -134.298629,26.93869"
       id="path4570-3"
       inkscape:connector-curvature="0"
       sodipodi:nodetypes="cc" />
    <path
       style="fill:none;stroke:#000000;stroke-width:0.20079204px;stroke-linecap:butt;stroke-linejoin:miter;stroke-opacity:1"
       d="m 218.09193,157.39938 c 30.33218,0.85609 95.48964,0.42204 136.89009,-17.80669"
       id="path4570-5"
       inkscape:connector-curvature="0"
       sodipodi:nodetypes="cc" />
    <path
       style="fill:none;stroke:#000000;stroke-width:0.18014342px;stroke-linecap:butt;stroke-linejoin:miter;stroke-opacity:1"
       d="m 225.66748,225.19154 c 27.78409,-0.75227 87.46789,-0.37086 125.39044,15.64712"
       id="path4570-5-6"
       inkscape:connector-curvature="0"
       sodipodi:nodetypes="cc" />
    <rect
       style="fill:#b7c8b7;stroke-width:0.26458332"
       id="rect4660"
       width="44.63401"
       height="10.958051"
       x="130.96207"
       y="185.19525" />
    <path
       sodipodi:type="star"
       style="fill:#b7c8b7;stroke:#000000;stroke-width:0.26490882;stroke-miterlimit:4;stroke-dasharray:0, 2.91399705;stroke-dashoffset:0;stroke-opacity:1"
       id="path4670"
       sodipodi:sides="3"
       sodipodi:cx="180.47778"
       sodipodi:cy="185.24976"
       sodipodi:r1="9.8203697"
       sodipodi:r2="4.9101853"
       sodipodi:arg1="2.0977396"
       sodipodi:arg2="3.1449371"
       inkscape:flatsided="true"
       inkscape:rounded="0"
       inkscape:randomized="0"
       d="m 175.53918,193.73798 0.0569,-17.00929 14.70203,8.55391 z"
       inkscape:transform-center-x="-2.4293494"
       inkscape:transform-center-y="-0.022296779"
       transform="matrix(0.99528585,0,0,1.3581909,-0.1957167,-60.968681)" />
    <rect
       style="fill:#b7c8b7;stroke-width:0.26458332"
       id="rect4660-1"
       width="44.634014"
       height="10.958051"
       x="262.5567"
       y="184.37254" />
    <path
       sodipodi:type="star"
       style="fill:#b7c8b7;stroke:#000000;stroke-width:0.26490882;stroke-miterlimit:4;stroke-dasharray:0, 2.91399705;stroke-dashoffset:0;stroke-opacity:1"
       id="path4670-2"
       sodipodi:sides="3"
       sodipodi:cx="180.47778"
       sodipodi:cy="185.24976"
       sodipodi:r1="9.8203697"
       sodipodi:r2="4.9101853"
       sodipodi:arg1="2.0977396"
       sodipodi:arg2="3.1449371"
       inkscape:flatsided="true"
       inkscape:rounded="0"
       inkscape:randomized="0"
       d="m 175.53918,193.73798 0.0569,-17.00929 14.70203,8.55391 z"
       inkscape:transform-center-x="-2.4293494"
       inkscape:transform-center-y="-0.022296779"
       transform="matrix(0.99528585,0,0,1.3581909,131.39893,-61.791396)" />
    <path
       style="fill:#e3f4d7;stroke:#000000;stroke-width:0.25407225;stroke-miterlimit:4;stroke-dasharray:0, 2.79479481;stroke-dashoffset:0;stroke-opacity:1"
       d="m 103.63909,244.523 c 10.94354,-10.74887 17.80808,-28.10327 19.40308,-49.05335 0.3662,-4.81012 0.14839,-14.76438 -0.42889,-19.60001 -2.19356,-18.37475 -8.54056,-33.6321 -18.12175,-43.56232 -1.06684,-1.1057 -1.68503,-1.88898 -1.43639,-1.81997 0.24009,0.0666 2.10619,0.90063 4.14689,1.85331 16.38439,7.64885 38.69491,15.0676 58.49299,19.45024 15.08955,3.34033 28.24089,5.11576 42.34193,5.71616 3.12108,0.13289 5.70838,0.27503 5.74954,0.31587 0.0412,0.0408 -0.25348,0.2412 -0.65477,0.44524 -2.56917,1.30634 -6.71388,5.33006 -8.91833,8.65797 -3.30416,4.98809 -5.46979,11.12582 -6.3363,17.95802 -0.37108,2.92595 -0.31745,8.94068 0.10704,12.00416 1.59671,11.52311 7.10578,21.08361 14.82552,25.72837 1.72817,1.03979 4.21664,2.05458 5.84789,2.38473 1.28588,0.26026 0.9807,0.29732 -7.25822,0.88145 -46.91099,3.32592 -81.72486,9.67778 -105.91045,19.32356 -2.14265,0.85454 -3.94787,1.55371 -4.01158,1.55371 -0.0637,0 0.9091,-1.00672 2.1618,-2.23714 z m 79.35283,-48.89101 c 3.39117,-2.64673 6.16577,-4.87559 6.16577,-4.95303 0,-0.13648 -14.09333,-11.39602 -14.44719,-11.54224 -0.0968,-0.04 -0.17606,1.31045 -0.17606,3.00104 v 3.07379 H 152.7087 130.88296 v 5.45643 5.45644 h 21.82574 21.82574 v 3.07417 3.07417 l 1.14585,-0.91426 c 0.63022,-0.50285 3.92045,-3.07978 7.31163,-5.72651 z"
       id="path4732"
       inkscape:connector-curvature="0" />
    <path
       style="fill:#e3f4d7;stroke:#000000;stroke-width:0.25407225;stroke-miterlimit:4;stroke-dasharray:0, 2.79479481;stroke-dashoffset:0;stroke-opacity:1"
       d="m 347.83082,239.35775 c -0.66833,-0.38097 -5.9927,-2.2244 -9.5405,-3.30316 -17.49097,-5.3184 -39.21726,-8.7599 -65.32179,-10.34716 -10.38924,-0.63171 -17.9364,-0.83795 -31.37531,-0.85739 -12.8155,-0.0186 -13.5284,-0.0397 -12.54981,-0.37287 9.45821,-3.21989 16.69163,-13.73954 18.74525,-27.26146 0.52315,-3.44469 0.51766,-9.87795 -0.0115,-13.42284 -1.20744,-8.08926 -4.13558,-14.85705 -8.76725,-20.26367 -1.4763,-1.72332 -3.98514,-3.86879 -5.69749,-4.87229 -0.55736,-0.32663 -0.92317,-0.61911 -0.8129,-0.64995 0.11027,-0.0308 5.65146,-0.15989 12.31377,-0.28679 14.35289,-0.27339 21.6959,-0.60077 32.41121,-1.44504 25.98756,-2.04757 48.75863,-6.16254 65.67929,-11.86893 1.43161,-0.48279 2.64666,-0.83407 2.7001,-0.78062 0.0535,0.0535 -0.19809,0.62044 -0.55904,1.25996 -2.79812,4.95802 -5.47822,14.32937 -6.80262,23.78637 -3.84876,27.48268 0.40664,59.03732 9.41972,69.84901 0.82725,0.99233 0.87736,1.24071 0.16883,0.83683 z m -33.99358,-43.98058 c 3.81132,-2.97058 6.9256,-5.46637 6.92062,-5.5462 -0.005,-0.0798 -3.27062,-2.72729 -7.25704,-5.88325 l -7.24802,-5.7381 -0.0606,3.06445 -0.0606,3.06445 H 284.31186 262.4921 v 5.56556 5.56557 h 21.84098 21.84099 l -0.0321,2.78278 c -0.0177,1.53053 -0.0246,2.87166 -0.0154,2.9803 0.009,0.10864 0.18873,0.0508 0.39878,-0.12849 0.21008,-0.17931 3.50031,-2.75649 7.31163,-5.72707 z"
       id="path4734"
       inkscape:connector-curvature="0" />
  </g>
</svg>
